<?xml version="1.0" encoding="utf-8"?>
<!-- Generator: Adobe Illustrator 18.1.1, SVG Export Plug-In . SVG Version: 6.00 Build 0)  -->
<svg version="1.1" id="Layer_1" xmlns="http://www.w3.org/2000/svg" xmlns:xlink="http://www.w3.org/1999/xlink" x="0px" y="0px"
	 viewBox="0 0 1280 95" enable-background="new 0 0 1280 95" xml:space="preserve">
<g>
	<circle fill="#552C18" cx="196.4" cy="49.4" r="34"/>
	<path fill="#FFFFFF" stroke="#FFFFFF" stroke-miterlimit="10" d="M214.3,48.2c0-0.6-0.4-1.1-1.1-1.1c-0.2,0-0.4,0-0.7,0
		c-1.3,0-2.2,1.5-2.2,1.5c-0.1,0.2-0.2,0.3-0.4,0.6c-0.2-0.6-0.3-1-0.4-1.5c-0.6-2-1.4-3.7-2.6-5.4c-0.8-1.2-2-1.6-3.3-1.8
		c-2.3-0.4-4.7-0.4-7.1-0.4c-2.3,0-4.7,0-7.1,0.4c-1.3,0.2-2.5,0.7-3.3,1.8c-1.2,1.7-2,3.5-2.6,5.4c-0.1,0.4-0.2,0.9-0.4,1.5
		c-0.2-0.3-0.3-0.4-0.4-0.6c0,0-0.9-1.5-2.2-1.5c-0.2,0-0.4,0-0.7,0c-0.6,0-1,0.4-1.1,1.1c0,0.4,0,0.9,0,1.3c0,0.7,0.4,1.1,1.1,1.1
		c0.7,0,1.3,0,2,0c0.3,0,0.5,0,0.8,0c0,0.1,0.1,0.1,0.1,0.1c-0.1,0.1-0.2,0.1-0.2,0.2c-1.7,1.6-2.6,3.6-2.5,5.9
		c0,1.4,0.2,2.8,0.3,4.2c0.1,1.1,0.4,2.1,0.8,3.1c0.2,0.4,0.4,0.7,0.9,0.8c0.2,0.1,0.3,0.2,0.2,0.4c0,0.6,0,1.2,0,1.7
		c0,0.8,0.4,1.3,1.3,1.3c0.7,0,1.4,0,2.1,0c0.9,0,1.3-0.4,1.3-1.3c0-0.4,0-0.9,0-1.4c3.1,0.2,6.2,0.3,9.4,0.3c3.2,0,6.2-0.1,9.4-0.3
		c0,0.5,0,0.9,0,1.4c0,0.9,0.4,1.3,1.3,1.3c0.7,0,1.4,0,2.1,0c0.8,0,1.3-0.5,1.3-1.3c0-0.6,0-1.2,0-1.7c0-0.2,0-0.3,0.2-0.4
		c0.5-0.1,0.7-0.4,0.9-0.8c0.5-1,0.7-2,0.8-3.1c0.2-1.4,0.3-2.8,0.3-4.2c0.1-2.3-0.9-4.3-2.5-5.9c-0.1-0.1-0.2-0.1-0.2-0.2
		c0-0.1,0.1-0.1,0.1-0.1c0.3,0,0.5,0,0.8,0c0.7,0,1.3,0,2,0c0.7,0,1.1-0.4,1.1-1.1C214.3,49.1,214.3,48.7,214.3,48.2z M185.4,49.5
		c0.5-2.1,1.3-4.1,2.4-5.9c0.1-0.1,0.1-0.2,0.2-0.2l0,0l0,0c0.1-0.1,0.2-0.1,0.3-0.2c0.7-0.3,2.8-0.9,8.4-0.9
		c5.6,0.1,7.7,0.7,8.4,0.9c0.1,0.1,0.2,0.1,0.3,0.2l0,0l0,0c0.1,0.1,0.2,0.2,0.2,0.2c1.1,1.8,1.9,3.9,2.4,5.9
		c0.1,0.2,0.1,0.3,0.1,0.4c-3.8-0.3-7.6-0.5-11.4-0.5s-7.6,0.2-11.4,0.5C185.4,49.9,185.4,49.7,185.4,49.5z M186,58.5
		c-1.4,0-2.5-1.1-2.5-2.5c0-1.3,1.1-2.5,2.5-2.5c1.3,0,2.5,1.1,2.5,2.5C188.4,57.4,187.4,58.5,186,58.5z M207.4,58.5
		c-1.4,0-2.5-1.1-2.5-2.5c0-1.3,1.1-2.5,2.5-2.5c1.4,0,2.5,1.1,2.5,2.5C209.9,57.4,208.7,58.5,207.4,58.5z M223,69.6h-1.4
		c-0.6,0-1-0.4-1-1V38.7c0-3.3-2.7-6-6-6h-35.9c-3.3,0-6,2.7-6,6v29.9c0,0.6-0.4,1-1,1h-1.4c-0.6,0-1-0.4-1-1V38.7
		c0-5.2,4.2-9.4,9.4-9.4h35.9c5.2,0,9.4,4.2,9.4,9.4v29.9C224,69.1,223.6,69.6,223,69.6z"/>
</g>
<g>
	<circle fill="#B34700" cx="358.5" cy="49.4" r="34"/>
	<g>
		<path fill="#FFFFFF" d="M378.4,58.3c-0.3-0.1-6.7-2.5-19.3-2.9l4.3-10.7c2.6,1.1,4,2.1,4.3,2.5c0,0.1,0,0.1,0.1,0.2v0.1
			c0,0.1,0.1,0.1,0.1,0.1c0,0,0,0.1,0.1,0.1c0.1,0.1,0.1,0.1,0.2,0.1c0.1,0,0.1,0.1,0.2,0.1l0,0h0.1h0.1c0,0,0.1,0,0.1-0.1
			c0,0,0.1,0,0.1-0.1l0.1-0.1c0,0,0.1,0,0.1-0.1c0.4-0.1,2.1,0.1,4.4,1.1c2.3,1,3.7,1.9,3.9,2.3c0,0.3,0.1,0.6,0.4,0.7
			c0.1,0,0.2,0.1,0.3,0.1c0.3,0,0.6-0.1,0.7-0.4c2.8-7-1.8-15.4-10.3-19.1l0.3-0.8c0.1-0.4,0-0.8-0.4-1c-0.4-0.1-0.8,0-1,0.4
			l-0.3,0.8c-4.1-1.5-8.4-1.8-12.2-0.7c-4.1,1.2-7.1,3.7-8.5,7.3c-0.1,0.4,0,0.8,0.4,1c0.3,0.1,0.6,0,0.8-0.2
			c0.4-0.1,2.1,0.1,4.4,1.1c2.3,1,3.7,1.9,3.9,2.3l0,0l0,0l0,0c0,0.1,0,0.1,0.1,0.2v0.1c0,0.1,0.1,0.1,0.1,0.1c0,0,0,0.1,0.1,0.1
			c0.1,0.1,0.1,0.1,0.2,0.1l0,0l0,0c0.1,0,0.1,0.1,0.2,0.1h0.1c0.1,0,0.1,0,0.2-0.1h0.1c0.1,0,0.1-0.1,0.2-0.1
			c0.5-0.1,2.2,0.3,4.8,1.2l-4.5,11.2c-0.8,0-1.6,0-2.4,0c-15.2,0-22.9,2.9-23.3,3c-0.4,0.1-0.6,0.6-0.4,1c0.1,0.3,0.4,0.4,0.7,0.4
			c0.1,0,0.1,0,0.3-0.1c0.1,0,7.8-2.9,22.7-2.9c0.6,0,1.2,0,1.8,0l-1.8,4.3v0.1c-0.6-0.1-1.2-0.3-2-0.3c-0.7,0-1.5,0.1-2.1,0.3
			c-0.4,0.1-0.6,0.5-0.5,0.9c0.1,0.4,0.5,0.6,0.9,0.5c0.5-0.1,1.1-0.2,1.7-0.2c1.5,0,2.6,0.5,2.9,1c0.1,0.1,0.4,0.3,0.6,0.3
			c0.1,0,0.4-0.1,0.4-0.1c0.3-0.3,0.4-0.7,0.1-1c-0.1-0.1-0.2-0.2-0.3-0.3c0.3-0.1,0.7-0.1,1-0.1c0.9,0,1.5,0.2,1.8,0.4
			c0.3,0.2,0.8,0.1,1-0.1c0.2-0.3,0.1-0.8-0.1-1c-0.7-0.4-1.6-0.7-2.6-0.7c-0.4,0-0.7,0.1-1,0.1l1.5-3.7c13,0.4,19.6,2.8,19.6,2.8
			c0.4,0.1,0.8-0.1,1-0.4C378.9,58.9,378.8,58.5,378.4,58.3z M363.3,43c-1.8-0.7-3.9-1.5-5.4-1.6c2.6-5.6,6.7-9.3,9.4-8.3
			c2.6,1.1,3,6.6,1,12.5C367.1,44.7,365.1,43.8,363.3,43z M377.8,49.4c-1-0.8-2.6-1.5-3.8-2.1c-1.3-0.5-2.6-1-3.7-1.1
			c-0.1,0-0.4-0.1-0.7-0.1c1.5-4.5,1.8-8.6,0.8-11.4C376.1,38.3,379.1,44.2,377.8,49.4z M352.6,38.7c-1.3-0.5-2.6-1-3.7-1.1
			c-0.1,0-0.3-0.1-0.5-0.1c1.4-2.4,3.8-4.3,7-5.1c2.6-0.8,5.6-0.9,8.5-0.2c-2.6,1.2-5.4,4.4-7.3,8.7c-0.2-0.1-0.4-0.3-0.5-0.4
			C355.2,39.9,353.9,39.2,352.6,38.7z"/>
		<circle fill="#FFFFFF" cx="345.4" cy="61.9" r="0.5"/>
		<circle fill="#FFFFFF" cx="344.2" cy="63.3" r="0.5"/>
		<circle fill="#FFFFFF" cx="341.6" cy="63.3" r="0.5"/>
		<circle fill="#FFFFFF" cx="337.8" cy="64.3" r="0.5"/>
		<circle fill="#FFFFFF" cx="346.1" cy="63.5" r="0.5"/>
		<circle fill="#FFFFFF" cx="364" cy="67.4" r="0.5"/>
		<circle fill="#FFFFFF" cx="366.1" cy="66.5" r="0.5"/>
		<circle fill="#FFFFFF" cx="368.7" cy="67.9" r="0.5"/>
		<circle fill="#FFFFFF" cx="366.6" cy="67.9" r="0.5"/>
		<circle fill="#FFFFFF" cx="363.2" cy="65.7" r="0.5"/>
	</g>
</g>
<g>
	<circle fill="#7A7A52" cx="40.6" cy="49.4" r="34"/>
	<g>
		<g>
			<path fill="#FFFFFF" d="M32.4,67.4c0-0.7-0.5-1.2-1.2-1.2h-5.9c-0.7,0-1.2,0.5-1.2,1.2c0,0.7,0.5,1.2,1.2,1.2h5.9
				C31.8,68.5,32.4,68,32.4,67.4"/>
			<path fill="#FFFFFF" d="M59.4,67.4c0-0.7-0.5-1.2-1.2-1.2h-5.9c-0.7,0-1.2,0.5-1.2,1.2c0,0.7,0.5,1.2,1.2,1.2h5.9
				C58.9,68.5,59.4,68,59.4,67.4"/>
			<path fill="#FFFFFF" d="M66.4,61.5h-1.2c-0.6,0-1.2,0.5-1.2,1.2c0,0.7,0.5,1.2,1.2,1.2h1.2c0.6,0,1.2-0.5,1.2-1.2
				C67.6,62,67.1,61.5,66.4,61.5"/>
			<path fill="#FFFFFF" d="M39.4,61.5h-1.2c-0.6,0-1.2,0.5-1.2,1.2c0,0.7,0.5,1.2,1.2,1.2h1.2c0.6,0,1.2-0.5,1.2-1.2
				C40.6,62,40.1,61.5,39.4,61.5"/>
			<path fill="#FFFFFF" d="M13.6,61.5h-1.2c-0.6,0-1.2,0.5-1.2,1.2c0,0.7,0.5,1.2,1.2,1.2h1.2c0.6,0,1.2-0.5,1.2-1.2
				C14.7,62,14.2,61.5,13.6,61.5"/>
			<path fill="#FFFFFF" d="M32.9,70.3h-2.4c-0.7,0-1.2,0.5-1.2,1.2c0,0.7,0.5,1.2,1.2,1.2h2.4c0.7,0,1.2-0.5,1.2-1.2
				C34.1,70.8,33.6,70.3,32.9,70.3"/>
			<path fill="#FFFFFF" d="M60,70.3h-2.4c-0.7,0-1.2,0.5-1.2,1.2c0,0.7,0.5,1.2,1.2,1.2H60c0.7,0,1.2-0.5,1.2-1.2
				C61.1,70.8,60.6,70.3,60,70.3"/>
			<path fill="#FFFFFF" d="M57,43.4c0.7,1,1.5,2,2.4,3v2.8H57V43.4z M52.3,61.5l0.3-1.2h3l0.3,1.2H52.3z M48.8,49.1v-2.9
				c0-0.1,0-0.2,0-0.2c0.9-0.8,1.7-1.7,2.4-2.6v5.8H48.8z M30,43.3c0.7,1,1.5,1.9,2.4,2.6c0,0.1,0,0.1,0,0.2v2.9H30L30,43.3L30,43.3
				z M25.3,61.5l0.3-1.2h3l0.3,1.2H25.3z M21.8,49.1v-2.8c0.9-0.9,1.7-1.9,2.4-2.9v5.7H21.8z M19.4,49.1h-1.1
				c0.4-0.2,0.7-0.5,1.1-0.7V49.1z M26.5,58h1.2V33.3h-1.2V58z M37.9,49.1h-3.2v-1.4C35.7,48.3,36.8,48.8,37.9,49.1L37.9,49.1z
				 M46.5,47.7v1.4h-3.2C44.3,48.8,45.4,48.3,46.5,47.7L46.5,47.7z M53.5,58h1.2V33.3h-1.2V58z M61.7,48.5c0.3,0.2,0.7,0.5,1,0.7h-1
				V48.5z M70,49.8c0-0.6-0.5-1.2-1.2-1.2c-4.9,0-9.4-4.7-11.4-9.3c-0.1-0.2-0.3-0.4-0.5-0.5v-6.7c0-0.6-0.5-1.2-1.2-1.2h-0.6v-3.5
				c0-0.7-0.5-1.2-1.2-1.2c-0.7,0-1.2,0.5-1.2,1.2v3.5h-0.6c-0.7,0-1.2,0.5-1.2,1.2v6.7c-0.2,0.1-0.3,0.3-0.4,0.5
				c-1.6,3.8-5.3,7.5-10.2,8.1c-4.9-0.5-8.6-4.3-10.2-8.1c-0.1-0.2-0.2-0.3-0.4-0.5v-6.6c0-0.6-0.5-1.2-1.2-1.2h-0.6v-3.5
				c0-0.7-0.5-1.2-1.2-1.2c-0.7,0-1.2,0.5-1.2,1.2v3.5h-0.6c-0.7,0-1.2,0.5-1.2,1.2v6.7c-0.2,0.1-0.3,0.3-0.4,0.5
				c-2,4.6-6.5,9.3-11.4,9.3c-0.6,0-1.2,0.5-1.2,1.2c0,0.1,0,0.2,0,0.3c0,0.1,0,0.2,0,0.3c0,0.7,0.5,1.2,1.2,1.2h11.7V58
				c-0.3,0.1-0.5,0.3-0.6,0.5l-0.7,3h-2.3c-0.6,0-1.2,0.5-1.2,1.2c0,0.7,0.5,1.2,1.2,1.2H23h8.2h2.4c0.6,0,1.2-0.5,1.2-1.2
				c0-0.7-0.5-1.2-1.2-1.2h-2.3l-0.7-3c-0.1-0.3-0.3-0.5-0.6-0.5v-6.5h21.2V58c-0.3,0.1-0.5,0.3-0.6,0.5l-0.7,3h-2.3
				c-0.6,0-1.2,0.5-1.2,1.2c0,0.7,0.5,1.2,1.2,1.2H50h8.2h2.4c0.6,0,1.2-0.5,1.2-1.2c0-0.7-0.5-1.2-1.2-1.2h-2.3l-0.7-3
				c-0.1-0.3-0.3-0.5-0.6-0.5v-6.5h11.7c0.7,0,1.2-0.5,1.2-1.2c0,0,0-0.1,0-0.1C70,50.1,70,50,70,49.8L70,49.8z"/>
		</g>
	</g>
</g>
<circle fill="#66CC00" cx="758.3" cy="49.4" r="34"/>
<g>
	<circle fill="#5C5C8A" cx="916.1" cy="49.4" r="34"/>
	<path fill="#FFFFFF" stroke="#FFFFFF" stroke-miterlimit="10" d="M908.7,38.1c0,0.5-0.4,1-1,1s-1-0.4-1-1c0-0.5,0.4-1,1-1
		S908.7,37.5,908.7,38.1z M912.2,37.1c-0.5,0-1,0.4-1,1c0,0.5,0.4,1,1,1s1-0.4,1-1C913.2,37.5,912.7,37.1,912.2,37.1z M917.1,37.1
		c-0.5,0-1,0.4-1,1c0,0.5,0.4,1,1,1c0.5,0,1-0.4,1-1C918.1,37.5,917.7,37.1,917.1,37.1z M907.7,41c-0.5,0-1,0.4-1,1c0,0.5,0.4,1,1,1
		c0.5,0,1-0.4,1-1C908.7,41.5,908.3,41,907.7,41z M912.2,41c-0.5,0-1,0.4-1,1c0,0.5,0.4,1,1,1s1-0.4,1-1
		C913.2,41.5,912.7,41,912.2,41z M917.1,41c-0.5,0-1,0.4-1,1c0,0.5,0.4,1,1,1c0.5,0,1-0.4,1-1C918.1,41.5,917.7,41,917.1,41z
		 M907.7,45c-0.5,0-1,0.4-1,1c0,0.5,0.4,1,1,1c0.5,0,1-0.4,1-1C908.7,45.4,908.3,45,907.7,45z M912.2,45c-0.5,0-1,0.4-1,1
		c0,0.5,0.4,1,1,1s1-0.4,1-1C913.2,45.4,912.7,45,912.2,45z M917.1,45c-0.5,0-1,0.4-1,1c0,0.5,0.4,1,1,1c0.5,0,1-0.4,1-1
		C918.1,45.4,917.7,45,917.1,45z M907.7,48.9c-0.5,0-1,0.4-1,1c0,0.5,0.4,1,1,1c0.5,0,1-0.4,1-1C908.7,49.4,908.3,48.9,907.7,48.9z
		 M912.2,48.9c-0.5,0-1,0.4-1,1c0,0.5,0.4,1,1,1s1-0.4,1-1C913.2,49.4,912.7,48.9,912.2,48.9z M917.1,48.9c-0.5,0-1,0.4-1,1
		c0,0.5,0.4,1,1,1c0.5,0,1-0.4,1-1C918.1,49.4,917.7,48.9,917.1,48.9z M907.7,52.9c-0.5,0-1,0.4-1,1c0,0.5,0.4,1,1,1
		c0.5,0,1-0.4,1-1C908.7,53.3,908.3,52.9,907.7,52.9z M912.2,52.9c-0.5,0-1,0.4-1,1c0,0.5,0.4,1,1,1s1-0.4,1-1
		C913.2,53.3,912.7,52.9,912.2,52.9z M917.1,52.9c-0.5,0-1,0.4-1,1c0,0.5,0.4,1,1,1c0.5,0,1-0.4,1-1
		C918.1,53.3,917.7,52.9,917.1,52.9z M907.7,56.9c-0.5,0-1,0.4-1,1c0,0.5,0.4,1,1,1c0.5,0,1-0.4,1-1
		C908.7,57.3,908.3,56.9,907.7,56.9z M912.2,56.9c-0.5,0-1,0.4-1,1c0,0.5,0.4,1,1,1s1-0.4,1-1C913.2,57.3,912.7,56.9,912.2,56.9z
		 M917.1,56.9c-0.5,0-1,0.4-1,1c0,0.5,0.4,1,1,1c0.5,0,1-0.4,1-1C918.1,57.3,917.7,56.9,917.1,56.9z M907.7,60.8c-0.5,0-1,0.4-1,1
		c0,0.5,0.4,1,1,1c0.5,0,1-0.4,1-1C908.7,61.3,908.3,60.8,907.7,60.8z M912.2,60.8c-0.5,0-1,0.4-1,1c0,0.5,0.4,1,1,1s1-0.4,1-1
		C913.2,61.3,912.7,60.8,912.2,60.8z M917.1,60.8c-0.5,0-1,0.4-1,1c0,0.5,0.4,1,1,1c0.5,0,1-0.4,1-1
		C918.1,61.3,917.7,60.8,917.1,60.8z M907.7,64.8c-0.5,0-1,0.4-1,1s0.4,1,1,1c0.5,0,1-0.4,1-1S908.3,64.8,907.7,64.8z M912.2,64.8
		c-0.5,0-1,0.4-1,1s0.4,1,1,1s1-0.4,1-1S912.7,64.8,912.2,64.8z M917.1,64.8c-0.5,0-1,0.4-1,1s0.4,1,1,1c0.5,0,1-0.4,1-1
		S917.7,64.8,917.1,64.8z M927,37.1c-0.5,0-1,0.4-1,1c0,0.5,0.4,1,1,1c0.5,0,1-0.4,1-1C928,37.5,927.6,37.1,927,37.1z M927,41
		c-0.5,0-1,0.4-1,1c0,0.5,0.4,1,1,1c0.5,0,1-0.4,1-1C928,41.5,927.6,41,927,41z M927,45c-0.5,0-1,0.4-1,1c0,0.5,0.4,1,1,1
		c0.5,0,1-0.4,1-1C928,45.4,927.6,45,927,45z M927,48.9c-0.5,0-1,0.4-1,1c0,0.5,0.4,1,1,1c0.5,0,1-0.4,1-1
		C928,49.4,927.6,48.9,927,48.9z M927,52.9c-0.5,0-1,0.4-1,1c0,0.5,0.4,1,1,1c0.5,0,1-0.4,1-1C928,53.3,927.6,52.9,927,52.9z
		 M927,56.9c-0.5,0-1,0.4-1,1c0,0.5,0.4,1,1,1c0.5,0,1-0.4,1-1C928,57.3,927.6,56.9,927,56.9z M927,60.8c-0.5,0-1,0.4-1,1
		c0,0.5,0.4,1,1,1c0.5,0,1-0.4,1-1C928,61.3,927.6,60.8,927,60.8z M927,64.8c-0.5,0-1,0.4-1,1s0.4,1,1,1c0.5,0,1-0.4,1-1
		S927.6,64.8,927,64.8z M940.4,70.7c0,0.5-0.4,1-1,1h-7.8h-9.2h-0.6h-18.7h-6.2c-0.5,0-1-0.4-1-1c0-0.5,0.4-1,1-1h5V34.5
		c0-0.5,0.3-1,0.9-1.2l18.7-6.1c0.1,0,0.2,0,0.4,0c0.6,0,1.2,0.5,1.2,1.3v1.3l9.2,5.1c0.4,0.2,0.7,0.7,0.7,1.1v33.7h6.4
		C939.9,69.7,940.4,70.2,940.4,70.7z M903.8,69.7h17.3V30.9v-1.5L903.8,35V69.7z M931,69.7V36.4l-7.9-4.4v37.7H931z"/>
</g>
<g>
	<circle fill="#477CFF" cx="837.2" cy="49.4" r="34"/>
	<g>
		<path fill="#FFFFFF" stroke="#FFFFFF" stroke-miterlimit="10" d="M814.1,71.2c1.8,0,2.6,0.5,3.6,1.2c1.2,0.7,2.5,1.6,5.1,1.6
			s3.9-0.8,5.1-1.6c1-0.6,1.8-1.2,3.6-1.2s2.6,0.5,3.6,1.2c1.2,0.7,2.5,1.6,5.1,1.6c2.6,0,3.9-0.8,5.1-1.6c0.3-0.2,0.6-0.4,0.9-0.5
			c0.7-0.4,1.5-0.6,2.8-0.6c1.7,0,2.5,0.4,3.4,1c0.1,0,0.1,0.1,0.2,0.1c1.2,0.7,2.5,1.6,5.1,1.6c0.8,0,1.4-0.6,1.4-1.4
			c0-0.8-0.6-1.4-1.4-1.4c-1.8,0-2.6-0.5-3.6-1.2c-1.2-0.7-2.5-1.6-5.1-1.6c-2.6,0-3.9,0.8-5.1,1.6c-1,0.6-1.8,1.2-3.6,1.2
			s-2.6-0.5-3.6-1.2c-1.2-0.7-2.5-1.6-5.1-1.6c-2.6,0-3.9,0.8-5.1,1.6c-0.3,0.2-0.6,0.4-0.9,0.5c-0.7,0.4-1.5,0.6-2.8,0.6
			c-1.7,0-2.5-0.4-3.4-1c-0.1,0-0.1-0.1-0.2-0.1c-1.2-0.7-2.5-1.6-5.1-1.6c-0.8,0-1.4,0.6-1.4,1.4C812.8,70.6,813.4,71.2,814.1,71.2
			z"/>
		<path fill="#FFFFFF" stroke="#FFFFFF" stroke-miterlimit="10" d="M831.6,60.3c-2.6,0-3.9,0.8-5.1,1.6c-0.3,0.2-0.6,0.4-0.9,0.5
			c-0.7,0.4-1.5,0.6-2.8,0.6c-1.7,0-2.5-0.4-3.4-1c-0.1,0-0.1-0.1-0.2-0.1c-1.2-0.7-2.5-1.6-5.1-1.6c-0.8,0-1.4,0.6-1.4,1.4
			c0,0.8,0.6,1.4,1.4,1.4c1.8,0,2.6,0.5,3.6,1.2c1.2,0.7,2.5,1.6,5.1,1.6s3.9-0.8,5.1-1.6c1-0.6,1.8-1.2,3.6-1.2s2.6,0.5,3.6,1.2
			c1.2,0.7,2.5,1.6,5.1,1.6c2.6,0,3.9-0.8,5.1-1.6c0.3-0.2,0.6-0.4,0.9-0.5c0.7-0.4,1.5-0.6,2.8-0.6c1.7,0,2.5,0.4,3.4,1
			c0.1,0,0.1,0.1,0.2,0.1c1.2,0.7,2.5,1.6,5.1,1.6c0.8,0,1.4-0.6,1.4-1.4c0-0.8-0.6-1.4-1.4-1.4c-1.8,0-2.6-0.5-3.6-1.2
			c-0.5-0.3-1.1-0.7-1.8-1V44h5.4c0.8,0,1.4-0.6,1.4-1.4s-0.6-1.4-1.4-1.4h-5.4v-6.2c0-3.5-2.1-7.5-4.7-9.3c-2-1.3-3.4-0.9-4.1-0.5
			c-1.3,0.7-2.1,2.3-2.1,4.3v7.5c0,0.8,0.6,1.4,1.4,1.4s1.4-0.6,1.4-1.4v-7.5c0-1.2,0.3-1.8,0.6-1.9c0.3-0.1,0.8,0,1.3,0.4
			c1.9,1.3,3.5,4.5,3.5,7v6.2h-13.6v-6.2c0-3.5-2.1-7.5-4.7-9.3c-2-1.3-3.4-0.9-4.1-0.5c-1.3,0.7-2.1,2.3-2.1,4.3v7.5
			c0,0.8,0.6,1.4,1.4,1.4c0.8,0,1.4-0.6,1.4-1.4v-7.5c0-1.2,0.3-1.8,0.6-1.9c0.3-0.1,0.8,0,1.3,0.4c1.9,1.3,3.5,4.5,3.5,7v6.2h-19.1
			c-0.8,0-1.4,0.6-1.4,1.4s0.6,1.4,1.4,1.4h19.1v16.5C832.7,60.4,832.2,60.3,831.6,60.3z M835.9,44h13.6v4.1h-13.6V44z M835.9,50.8
			h13.6v4.1h-13.6V50.8z M835.9,57.6h13.6v2.7c-0.2,0-0.4,0-0.5,0c-2.6,0-3.9,0.8-5.1,1.6c-1,0.6-1.8,1.2-3.6,1.2s-2.6-0.5-3.6-1.2
			c-0.2-0.1-0.5-0.3-0.7-0.4L835.9,57.6L835.9,57.6z"/>
	</g>
</g>
<g>
	<circle fill="#42210B" cx="120" cy="49.4" r="34"/>
	<g>
		<g>
			<path fill="#FFFFFF" d="M112.3,27.3c-0.9-0.3-1.9,0.2-2.1,1.1l-12.3,41c-0.2,0.9,0.2,1.9,1.1,2.1c0.2,0.1,0.3,0.1,0.5,0.1
				c0.7,0,1.4-0.5,1.6-1.2l12.3-40.9C113.6,28.5,113.2,27.6,112.3,27.3z"/>
			<path fill="#FFFFFF" d="M142.1,69.4l-12.3-40.9c-0.2-0.9-1.2-1.4-2.1-1.1c-0.9,0.2-1.4,1.2-1.1,2.1l12.3,41
				c0.2,0.7,0.9,1.2,1.6,1.2c0.1,0,0.3,0,0.5,0C141.8,71.3,142.3,70.4,142.1,69.4z"/>
			<path fill="#FFFFFF" d="M121.1,54.5c0-0.6-0.5-1-1.1-1c-0.6,0-1.1,0.4-1.1,1l-1,13.3c0,0.3,0.1,0.6,0.3,0.8
				c0.2,0.2,0.5,0.3,0.8,0.3h2.1c0.3,0,0.6-0.1,0.8-0.3c0.2-0.2,0.3-0.5,0.3-0.8L121.1,54.5z"/>
			<path fill="#FFFFFF" d="M120,39.7c-0.3,0-0.5,0.2-0.5,0.5l-1,8.2c0,0.1,0,0.3,0.1,0.4c0.1,0.1,0.2,0.2,0.4,0.2h2.1
				c0.1,0,0.3,0,0.4-0.2c0.1-0.1,0.1-0.3,0.1-0.4l-1-8.2C120.5,39.9,120.3,39.7,120,39.7z"/>
			<path fill="#FFFFFF" d="M118.9,35.7h2.1c0.2,0,0.3-0.1,0.4-0.2c0.1-0.1,0.1-0.3,0.1-0.5l-1-4.1c0-0.2-0.3-0.4-0.5-0.4
				s-0.5,0.2-0.5,0.4l-1,4.1c0,0.1,0,0.3,0.1,0.5C118.6,35.6,118.8,35.7,118.9,35.7z"/>
		</g>
	</g>
</g>
<g>
	<circle fill="#270562" cx="437.4" cy="49.4" r="34"/>
	<g>
		<path fill="#FFFFFF" d="M421.3,60.1c0.6,0.1,6.7,0.9,9,0.1l0.1,0c0.3,0,7.9-1.1,11.4,0c0.4,0.1,1,0.2,1.7,0.3
			c0.1-1,0.3-1.6,0.6-2.2c0.3-0.6,0.5-1.1,0.5-2.1c0-1.1-0.2-1.5-0.5-2.1c-0.3-0.6-0.6-1.3-0.6-2.6c0-1.3,0.3-2,0.6-2.6
			c0.3-0.6,0.5-1.1,0.5-2.1c0-1.1-0.2-1.5-0.5-2.1c-0.3-0.6-0.6-1-0.6-2.6h1.1c0,1.1,0.2,1.5,0.5,2.1c0.3,0.6,0.6,1.3,0.6,2.6
			c0,1.3-0.3,2-0.6,2.6c-0.3,0.6-0.5,1.1-0.5,2.1c0,1.1,0.2,1.5,0.5,2.1c0.3,0.6,0.6,1.3,0.6,2.6c0,1.3-0.3,2-0.6,2.6
			c-0.2,0.5-0.5,1-0.5,1.8c1,0.1,2.1,0.2,3.1,0.2c0-1.6,0.4-2.4,0.8-3.2c0.3-0.7,0.7-1.4,0.7-2.7c0-1.4-0.3-2-0.7-2.7
			c-0.4-0.7-0.8-1.6-0.8-3.2c0-1.6,0.4-2.5,0.8-3.2c0.3-0.7,0.7-1.4,0.7-2.7c0-1.4-0.3-2-0.7-2.7c-0.4-0.7-0.8-1.6-0.8-3.2h1.1
			c0,1.6,0.3,2,0.7,2.7c0.4,0.7,0.8,1.6,0.8,3.2c0,1.6-0.4,2.5-0.8,3.2c-0.3,0.7-0.7,1.4-0.7,2.7c0,1.4,0.3,2,0.7,2.7
			c0.4,0.7,0.8,1.6,0.8,3.2c0,1.6-0.4,2.5-0.8,3.2c-0.3,0.7-0.6,1.4-0.7,2.7c0.6,0,1-0.1,1.4-0.3l0.1,0c0.2-0.1,1-0.2,2-0.4
			c0.1-0.8,0.3-1.3,0.6-1.8c0.3-0.6,0.5-1.1,0.5-2.1s-0.2-1.5-0.5-2.1c-0.3-0.6-0.6-1.3-0.6-2.6c0-1.3,0.3-2,0.6-2.6
			c0.3-0.6,0.5-1.1,0.5-2.1c0-1.1-0.2-1.5-0.5-2.1c-0.3-0.6-0.6-1-0.6-2.6h1.1c0,1.1,0.2,1.5,0.5,2.1c0.3,0.6,0.6,1.3,0.6,2.6
			c0,1.3-0.3,2-0.6,2.6c-0.3,0.6-0.5,1.1-0.5,2.1c0,1.1,0.2,1.5,0.5,2.1c0.3,0.6,0.6,1.3,0.6,2.6c0,1.3-0.3,2-0.6,2.6
			c-0.2,0.4-0.3,0.7-0.4,1.1c2-0.3,4.5-0.6,6.1-0.1V34.5h-44v25.6C417.3,59.9,420.1,59.8,421.3,60.1z M435.2,50.6
			c1.5,0,2.9,1.4,3.2,1.8l2-1.3v2.9l-2.1-1.3c-0.4,0.5-1.6,1.7-3,1.7c-1.7,0-3.2-1.9-3.2-1.9S433.4,50.6,435.2,50.6z M422.4,39.4
			l2.1,1.5c0.3-0.4,1.7-2.1,3.5-2.1c2,0,3.5,2.2,3.5,2.2s-1.6,2.2-3.6,2.2c-1.6,0-2.9-1.5-3.3-2l-2.2,1.5V39.4z"/>
		<path fill="#FFFFFF" d="M450.5,61.7c-0.7,0.3-1.6,0.4-2.7,0.4c-2.7,0-5.8-0.6-6.3-0.7l-0.1,0c-3.1-1-10.2-0.1-10.8,0
			c-2.7,0.9-9.2,0-9.5-0.1l-0.1,0c-0.9-0.3-3.6-0.2-5.6,0v3.2h44v-3.3C457.6,60.2,452.4,61.2,450.5,61.7z"/>
	</g>
</g>
<circle fill="#339900" cx="521.5" cy="49.4" r="34"/>
<circle fill="#774A8E" cx="1081" cy="49.4" r="34"/>
<g>
	<path fill="none" stroke="#FFFFFF" stroke-width="12" stroke-linejoin="round" stroke-miterlimit="10" d="M1102.2,28.7v41.5h-6
		c0,0,0-10.9,0-15.5c0-9.2-4-15.9-15.3-15.9h0.2c-11.4,0-15.3,6.7-15.3,15.9c0,4.6,0,15.5,0,15.5h-6V28.7H1102.2z"/>
	<path fill="none" stroke="#FFFFFF" stroke-width="12" stroke-linejoin="round" stroke-miterlimit="10" d="M1096,67.8h-4.2
		c0,0,0-7.7,0-11c0-6.5-2.8-11.3-10.9-11.3h0.1c-8,0-10.9,4.8-10.9,11.3c0,3.3,0,11,0,11h-4.2"/>
	<path fill="none" stroke="#FFFFFF" stroke-width="12" stroke-linejoin="round" stroke-miterlimit="10" d="M1091.6,65.4h-3.4
		c0,0,0-5.2,0-7.4c0-4.4-1.9-7.6-7.3-7.6h0.1c-5.4,0-7.3,3.2-7.3,7.6c0,2.2,0,7.4,0,7.4h-3.4"/>
</g>
<g>
	<circle fill="#BE4D6B" cx="1002.6" cy="49.4" r="34"/>
	<g>
		<path fill="#FFFFFF" stroke="#FFFFFF" stroke-miterlimit="10" d="M987.3,62.3h-4.1c-0.3,0-0.5-0.3-0.5-0.5V40.9
			c0-0.3,0.3-0.5,0.5-0.5h4.1c0.3,0,0.5,0.3,0.5,0.5v20.7C987.9,62,987.6,62.3,987.3,62.3z"/>
		<path fill="#FFFFFF" stroke="#FFFFFF" stroke-miterlimit="10" d="M999.5,62.3h-4.1c-0.3,0-0.5-0.3-0.5-0.5V40.9
			c0-0.3,0.3-0.5,0.5-0.5h4.1c0.3,0,0.5,0.3,0.5,0.5v20.7C1000,62,999.8,62.3,999.5,62.3z"/>
		<path fill="#FFFFFF" stroke="#FFFFFF" stroke-miterlimit="10" d="M1011.6,62.3h-4.1c-0.3,0-0.5-0.3-0.5-0.5V40.9
			c0-0.3,0.3-0.5,0.5-0.5h4.1c0.3,0,0.5,0.3,0.5,0.5v20.7C1012.2,62,1011.9,62.3,1011.6,62.3z"/>
		<path fill="#FFFFFF" stroke="#FFFFFF" stroke-miterlimit="10" d="M1023.7,62.3h-4.1c-0.3,0-0.5-0.3-0.5-0.5V40.9
			c0-0.3,0.3-0.5,0.5-0.5h4.1c0.3,0,0.5,0.3,0.5,0.5v20.7C1024.3,62,1024.1,62.3,1023.7,62.3z"/>
		<g>
			<path fill="#FFFFFF" stroke="#FFFFFF" stroke-miterlimit="10" d="M1025.5,32.4v-0.5c0-0.1-0.1-0.2-0.1-0.2l-22-8.7L981,31.7
				c-0.1,0.1-0.1,0.1-0.1,0.2v0.5c0,0.1-0.1,0.3-0.3,0.3h-0.7c-0.1,0-0.3,0.1-0.3,0.3v4.9h47.1v-4.9c0-0.1-0.1-0.3-0.3-0.3h-0.8
				C1025.6,32.7,1025.5,32.5,1025.5,32.4z"/>
			<rect x="979.6" y="65.1" fill="#FFFFFF" stroke="#FFFFFF" stroke-miterlimit="10" width="47.1" height="5.1"/>
		</g>
	</g>
</g>
<g>
	<circle fill="#74452F" cx="274" cy="49.4" r="34"/>
	<path fill="#FFFFFF" stroke="#FFFFFF" stroke-miterlimit="10" d="M262.5,31.9l-3.8,1.5v-1.5c0-1.5,0.8-2.8,2.1-3.4l12.5-4.8
		c0.4-0.1,0.9-0.1,1.4,0l0.4,0.1l12.1,4.7c1.3,0.6,2.2,1.9,2.1,3.4v1.5l-3.8-1.5l0,0L274,27.4L262.5,31.9L262.5,31.9z M251.3,70.9
		c0-1.3,1-2.3,2.3-2.3c0,0,0,0,0,0h1.8V40.5c-0.1-1,0.5-1.8,1.3-2.3l16.7-6.5l0.1,0l0.1,0c0.2-0.1,0.4-0.1,0.7,0l0.1,0l0.1,0
		l3.7,1.5l3.7,1.5l4.1,1.6l3.6,1.4l0,0l1.5,0.6c0.9,0.4,1.4,1.3,1.3,2.3v28.1h1.8c1.3,0,2.3,1,2.3,2.3s-1,2.3-2.3,2.3h-40.8
		C252.3,73.2,251.3,72.2,251.3,70.9z M259.1,45.4l13.1-4.4v-3.8l-13.1,5.1V45.4z M259.1,52l13.1-3.1v-4l-13.1,3.8V52z M259.1,58.5
		l13.1-1.7v-4l-13.1,2.4V58.5z M259.1,65l13.1-0.3v-4l-13.1,1V65z"/>
</g>
<circle fill="#8A5563" cx="1159.2" cy="49.4" r="34"/>
<g>
	<circle fill="#9A2E36" cx="1238.1" cy="49.4" r="34"/>
	<g>
		<path fill="#FFFFFF" d="M1251.3,35.8c-2.1,0-3.9-1.7-3.9-3.9c0-2.2,1.7-3.9,3.9-3.9c2.1,0,3.9,1.7,3.9,3.9
			C1255.2,34,1253.4,35.8,1251.3,35.8z"/>
		<path fill="#FFFFFF" d="M1226.1,27.4c-0.8-0.1-1.6,0.1-2.3,0.5l0,0l-0.1,0.1c-0.3,0.2-0.6,0.5-0.9,0.8l-4.7,4.1l-2.5,0.6l1.3,2.1
			l1.5-2.2l3.5-1.4c0.3,1.7,1.7,3.1,3.5,3.3c2.1,0.2,4-1.4,4.2-3.5C1229.8,29.5,1228.2,27.6,1226.1,27.4z"/>
		<path fill="#FFFFFF" d="M1236.7,48.7l-8.1-13.6v0.1l0-0.1c0,0-4.3,0-5.8,0c-1.7,0-6.6,1.4-6.6,1.4c-0.4,0-0.7,0.3-0.7,0.7
			l-0.2,3.5l-1.3,0.2l-0.3,5.9l1.3,0.1l0,0.7l5.3,0.1c0.3,0.1,0.6,0.3,0.9,0.4l-0.7,10.3h1.7l0,10l2.5-0.1l1.3-10h0.6l0,10h2.3
			l1.4-10h2.2l-2.5-15.3l4.1,5.7L1236.7,48.7L1236.7,48.7z M1221.3,46.9c-0.3-0.1-0.7-0.3-1-0.4l0.5-9.9c0.4-0.2,0.8-0.2,1.2-0.2
			L1221.3,46.9z"/>
		<path fill="#FFFFFF" d="M1253.6,48.2l0.6-8l5.6,6.9h2.5l-7.8-11.3l-7.3,0c-0.6,0-6,1.4-6,1.4c-0.4,0-0.7,0.3-0.7,0.7l-0.2,3.6
			l-1.3,0.2l-0.3,6.1l1.3,0.1l0,0.7l5.4,0.1c0.3,0.1,0.6,0.3,0.9,0.3l0,0.6v3.4v14.4h3l1.9-15l5.5,4.1l-1.1,9.3l2.6,0.1l2.5-10.7
			l0,0L1253.6,48.2z M1245.5,47.6l0.5-10.2c0,0,0.6-0.2,1.2-0.3l-0.8,10.9C1246.1,47.9,1245.8,47.8,1245.5,47.6z"/>
	</g>
</g>
<circle fill="#009966" cx="679.3" cy="49.4" r="34"/>
<g>
	<circle fill="#552C18" cx="196.4" cy="49.4" r="34"/>
	<path fill="#FFFFFF" stroke="#FFFFFF" stroke-miterlimit="10" d="M214.3,48.2c0-0.6-0.4-1.1-1.1-1.1c-0.2,0-0.4,0-0.7,0
		c-1.3,0-2.2,1.5-2.2,1.5c-0.1,0.2-0.2,0.3-0.4,0.6c-0.2-0.6-0.3-1-0.4-1.5c-0.6-2-1.4-3.7-2.6-5.4c-0.8-1.2-2-1.6-3.3-1.8
		c-2.3-0.4-4.7-0.4-7.1-0.4c-2.3,0-4.7,0-7.1,0.4c-1.3,0.2-2.5,0.7-3.3,1.8c-1.2,1.7-2,3.5-2.6,5.4c-0.1,0.4-0.2,0.9-0.4,1.5
		c-0.2-0.3-0.3-0.4-0.4-0.6c0,0-0.9-1.5-2.2-1.5c-0.2,0-0.4,0-0.7,0c-0.6,0-1,0.4-1.1,1.1c0,0.4,0,0.9,0,1.3c0,0.7,0.4,1.1,1.1,1.1
		c0.7,0,1.3,0,2,0c0.3,0,0.5,0,0.8,0c0,0.1,0.1,0.1,0.1,0.1c-0.1,0.1-0.2,0.1-0.2,0.2c-1.7,1.6-2.6,3.6-2.5,5.9
		c0,1.4,0.2,2.8,0.3,4.2c0.1,1.1,0.4,2.1,0.8,3.1c0.2,0.4,0.4,0.7,0.9,0.8c0.2,0.1,0.3,0.2,0.2,0.4c0,0.6,0,1.2,0,1.7
		c0,0.8,0.4,1.3,1.3,1.3c0.7,0,1.4,0,2.1,0c0.9,0,1.3-0.4,1.3-1.3c0-0.4,0-0.9,0-1.4c3.1,0.2,6.2,0.3,9.4,0.3c3.2,0,6.2-0.1,9.4-0.3
		c0,0.5,0,0.9,0,1.4c0,0.9,0.4,1.3,1.3,1.3c0.7,0,1.4,0,2.1,0c0.8,0,1.3-0.5,1.3-1.3c0-0.6,0-1.2,0-1.7c0-0.2,0-0.3,0.2-0.4
		c0.5-0.1,0.7-0.4,0.9-0.8c0.5-1,0.7-2,0.8-3.1c0.2-1.4,0.3-2.8,0.3-4.2c0.1-2.3-0.9-4.3-2.5-5.9c-0.1-0.1-0.2-0.1-0.2-0.2
		c0-0.1,0.1-0.1,0.1-0.1c0.3,0,0.5,0,0.8,0c0.7,0,1.3,0,2,0c0.7,0,1.1-0.4,1.1-1.1C214.3,49.1,214.3,48.7,214.3,48.2z M185.4,49.5
		c0.5-2.1,1.3-4.1,2.4-5.9c0.1-0.1,0.1-0.2,0.2-0.2l0,0l0,0c0.1-0.1,0.2-0.1,0.3-0.2c0.7-0.3,2.8-0.9,8.4-0.9
		c5.6,0.1,7.7,0.7,8.4,0.9c0.1,0.1,0.2,0.1,0.3,0.2l0,0l0,0c0.1,0.1,0.2,0.2,0.2,0.2c1.1,1.8,1.9,3.9,2.4,5.9
		c0.1,0.2,0.1,0.3,0.1,0.4c-3.8-0.3-7.6-0.5-11.4-0.5s-7.6,0.2-11.4,0.5C185.4,49.9,185.4,49.7,185.4,49.5z M186,58.5
		c-1.4,0-2.5-1.1-2.5-2.5c0-1.3,1.1-2.5,2.5-2.5c1.3,0,2.5,1.1,2.5,2.5C188.4,57.4,187.4,58.5,186,58.5z M207.4,58.5
		c-1.4,0-2.5-1.1-2.5-2.5c0-1.3,1.1-2.5,2.5-2.5c1.4,0,2.5,1.1,2.5,2.5C209.9,57.4,208.7,58.5,207.4,58.5z M223,69.6h-1.4
		c-0.6,0-1-0.4-1-1V38.7c0-3.3-2.7-6-6-6h-35.9c-3.3,0-6,2.7-6,6v29.9c0,0.6-0.4,1-1,1h-1.4c-0.6,0-1-0.4-1-1V38.7
		c0-5.2,4.2-9.4,9.4-9.4h35.9c5.2,0,9.4,4.2,9.4,9.4v29.9C224,69.1,223.6,69.6,223,69.6z"/>
</g>
<g>
	<circle fill="#B34700" cx="358.5" cy="49.4" r="34"/>
	<g>
		<path fill="#FFFFFF" d="M378.4,58.3c-0.3-0.1-6.7-2.5-19.3-2.9l4.3-10.7c2.6,1.1,4,2.1,4.3,2.5c0,0.1,0,0.1,0.1,0.2v0.1
			c0,0.1,0.1,0.1,0.1,0.1c0,0,0,0.1,0.1,0.1c0.1,0.1,0.1,0.1,0.2,0.1c0.1,0,0.1,0.1,0.2,0.1l0,0h0.1h0.1c0,0,0.1,0,0.1-0.1
			c0,0,0.1,0,0.1-0.1l0.1-0.1c0,0,0.1,0,0.1-0.1c0.4-0.1,2.1,0.1,4.4,1.1c2.3,1,3.7,1.9,3.9,2.3c0,0.3,0.1,0.6,0.4,0.7
			c0.1,0,0.2,0.1,0.3,0.1c0.3,0,0.6-0.1,0.7-0.4c2.8-7-1.8-15.4-10.3-19.1l0.3-0.8c0.1-0.4,0-0.8-0.4-1c-0.4-0.1-0.8,0-1,0.4
			l-0.3,0.8c-4.1-1.5-8.4-1.8-12.2-0.7c-4.1,1.2-7.1,3.7-8.5,7.3c-0.1,0.4,0,0.8,0.4,1c0.3,0.1,0.6,0,0.8-0.2
			c0.4-0.1,2.1,0.1,4.4,1.1c2.3,1,3.7,1.9,3.9,2.3l0,0l0,0l0,0c0,0.1,0,0.1,0.1,0.2v0.1c0,0.1,0.1,0.1,0.1,0.1c0,0,0,0.1,0.1,0.1
			c0.1,0.1,0.1,0.1,0.2,0.1l0,0l0,0c0.1,0,0.1,0.1,0.2,0.1h0.1c0.1,0,0.1,0,0.2-0.1h0.1c0.1,0,0.1-0.1,0.2-0.1
			c0.5-0.1,2.2,0.3,4.8,1.2l-4.5,11.2c-0.8,0-1.6,0-2.4,0c-15.2,0-22.9,2.9-23.3,3c-0.4,0.1-0.6,0.6-0.4,1c0.1,0.3,0.4,0.4,0.7,0.4
			c0.1,0,0.1,0,0.3-0.1c0.1,0,7.8-2.9,22.7-2.9c0.6,0,1.2,0,1.8,0l-1.8,4.3v0.1c-0.6-0.1-1.2-0.3-2-0.3c-0.7,0-1.5,0.1-2.1,0.3
			c-0.4,0.1-0.6,0.5-0.5,0.9c0.1,0.4,0.5,0.6,0.9,0.5c0.5-0.1,1.1-0.2,1.7-0.2c1.5,0,2.6,0.5,2.9,1c0.1,0.1,0.4,0.3,0.6,0.3
			c0.1,0,0.4-0.1,0.4-0.1c0.3-0.3,0.4-0.7,0.1-1c-0.1-0.1-0.2-0.2-0.3-0.3c0.3-0.1,0.7-0.1,1-0.1c0.9,0,1.5,0.2,1.8,0.4
			c0.3,0.2,0.8,0.1,1-0.1c0.2-0.3,0.1-0.8-0.1-1c-0.7-0.4-1.6-0.7-2.6-0.7c-0.4,0-0.7,0.1-1,0.1l1.5-3.7c13,0.4,19.6,2.8,19.6,2.8
			c0.4,0.1,0.8-0.1,1-0.4C378.9,58.9,378.8,58.5,378.4,58.3z M363.3,43c-1.8-0.7-3.9-1.5-5.4-1.6c2.6-5.6,6.7-9.3,9.4-8.3
			c2.6,1.1,3,6.6,1,12.5C367.1,44.7,365.1,43.8,363.3,43z M377.8,49.4c-1-0.8-2.6-1.5-3.8-2.1c-1.3-0.5-2.6-1-3.7-1.1
			c-0.1,0-0.4-0.1-0.7-0.1c1.5-4.5,1.8-8.6,0.8-11.4C376.1,38.3,379.1,44.2,377.8,49.4z M352.6,38.7c-1.3-0.5-2.6-1-3.7-1.1
			c-0.1,0-0.3-0.1-0.5-0.1c1.4-2.4,3.8-4.3,7-5.1c2.6-0.8,5.6-0.9,8.5-0.2c-2.6,1.2-5.4,4.4-7.3,8.7c-0.2-0.1-0.4-0.3-0.5-0.4
			C355.2,39.9,353.9,39.2,352.6,38.7z"/>
		<circle fill="#FFFFFF" cx="345.4" cy="61.9" r="0.5"/>
		<circle fill="#FFFFFF" cx="344.2" cy="63.3" r="0.5"/>
		<circle fill="#FFFFFF" cx="341.6" cy="63.3" r="0.5"/>
		<circle fill="#FFFFFF" cx="337.8" cy="64.3" r="0.5"/>
		<circle fill="#FFFFFF" cx="346.1" cy="63.5" r="0.5"/>
		<circle fill="#FFFFFF" cx="364" cy="67.4" r="0.5"/>
		<circle fill="#FFFFFF" cx="366.1" cy="66.5" r="0.5"/>
		<circle fill="#FFFFFF" cx="368.7" cy="67.9" r="0.5"/>
		<circle fill="#FFFFFF" cx="366.6" cy="67.9" r="0.5"/>
		<circle fill="#FFFFFF" cx="363.2" cy="65.7" r="0.5"/>
	</g>
</g>
<g>
	<circle fill="#7A7A52" cx="40.6" cy="49.4" r="34"/>
	<g>
		<g>
			<path fill="#FFFFFF" d="M32.4,67.4c0-0.7-0.5-1.2-1.2-1.2h-5.9c-0.7,0-1.2,0.5-1.2,1.2c0,0.7,0.5,1.2,1.2,1.2h5.9
				C31.8,68.5,32.4,68,32.4,67.4"/>
			<path fill="#FFFFFF" d="M59.4,67.4c0-0.7-0.5-1.2-1.2-1.2h-5.9c-0.7,0-1.2,0.5-1.2,1.2c0,0.7,0.5,1.2,1.2,1.2h5.9
				C58.9,68.5,59.4,68,59.4,67.4"/>
			<path fill="#FFFFFF" d="M66.4,61.5h-1.2c-0.6,0-1.2,0.5-1.2,1.2c0,0.7,0.5,1.2,1.2,1.2h1.2c0.6,0,1.2-0.5,1.2-1.2
				C67.6,62,67.1,61.5,66.4,61.5"/>
			<path fill="#FFFFFF" d="M39.4,61.5h-1.2c-0.6,0-1.2,0.5-1.2,1.2c0,0.7,0.5,1.2,1.2,1.2h1.2c0.6,0,1.2-0.5,1.2-1.2
				C40.6,62,40.1,61.5,39.4,61.5"/>
			<path fill="#FFFFFF" d="M13.6,61.5h-1.2c-0.6,0-1.2,0.5-1.2,1.2c0,0.7,0.5,1.2,1.2,1.2h1.2c0.6,0,1.2-0.5,1.2-1.2
				C14.7,62,14.2,61.5,13.6,61.5"/>
			<path fill="#FFFFFF" d="M32.9,70.3h-2.4c-0.7,0-1.2,0.5-1.2,1.2c0,0.7,0.5,1.2,1.2,1.2h2.4c0.7,0,1.2-0.5,1.2-1.2
				C34.1,70.8,33.6,70.3,32.9,70.3"/>
			<path fill="#FFFFFF" d="M60,70.3h-2.4c-0.7,0-1.2,0.5-1.2,1.2c0,0.7,0.5,1.2,1.2,1.2H60c0.7,0,1.2-0.5,1.2-1.2
				C61.1,70.8,60.6,70.3,60,70.3"/>
			<path fill="#FFFFFF" d="M57,43.4c0.7,1,1.5,2,2.4,3v2.8H57V43.4z M52.3,61.5l0.3-1.2h3l0.3,1.2H52.3z M48.8,49.1v-2.9
				c0-0.1,0-0.2,0-0.2c0.9-0.8,1.7-1.7,2.4-2.6v5.8H48.8z M30,43.3c0.7,1,1.5,1.9,2.4,2.6c0,0.1,0,0.1,0,0.2v2.9H30L30,43.3L30,43.3
				z M25.3,61.5l0.3-1.2h3l0.3,1.2H25.3z M21.8,49.1v-2.8c0.9-0.9,1.7-1.9,2.4-2.9v5.7H21.8z M19.4,49.1h-1.1
				c0.4-0.2,0.7-0.5,1.1-0.7V49.1z M26.5,58h1.2V33.3h-1.2V58z M37.9,49.1h-3.2v-1.4C35.7,48.3,36.8,48.8,37.9,49.1L37.9,49.1z
				 M46.5,47.7v1.4h-3.2C44.3,48.8,45.4,48.3,46.5,47.7L46.5,47.7z M53.5,58h1.2V33.3h-1.2V58z M61.7,48.5c0.3,0.2,0.7,0.5,1,0.7h-1
				V48.5z M70,49.8c0-0.6-0.5-1.2-1.2-1.2c-4.9,0-9.4-4.7-11.4-9.3c-0.1-0.2-0.3-0.4-0.5-0.5v-6.7c0-0.6-0.5-1.2-1.2-1.2h-0.6v-3.5
				c0-0.7-0.5-1.2-1.2-1.2c-0.7,0-1.2,0.5-1.2,1.2v3.5h-0.6c-0.7,0-1.2,0.5-1.2,1.2v6.7c-0.2,0.1-0.3,0.3-0.4,0.5
				c-1.6,3.8-5.3,7.5-10.2,8.1c-4.9-0.5-8.6-4.3-10.2-8.1c-0.1-0.2-0.2-0.3-0.4-0.5v-6.6c0-0.6-0.5-1.2-1.2-1.2h-0.6v-3.5
				c0-0.7-0.5-1.2-1.2-1.2c-0.7,0-1.2,0.5-1.2,1.2v3.5h-0.6c-0.7,0-1.2,0.5-1.2,1.2v6.7c-0.2,0.1-0.3,0.3-0.4,0.5
				c-2,4.6-6.5,9.3-11.4,9.3c-0.6,0-1.2,0.5-1.2,1.2c0,0.1,0,0.2,0,0.3c0,0.1,0,0.2,0,0.3c0,0.7,0.5,1.2,1.2,1.2h11.7V58
				c-0.3,0.1-0.5,0.3-0.6,0.5l-0.7,3h-2.3c-0.6,0-1.2,0.5-1.2,1.2c0,0.7,0.5,1.2,1.2,1.2H23h8.2h2.4c0.6,0,1.2-0.5,1.2-1.2
				c0-0.7-0.5-1.2-1.2-1.2h-2.3l-0.7-3c-0.1-0.3-0.3-0.5-0.6-0.5v-6.5h21.2V58c-0.3,0.1-0.5,0.3-0.6,0.5l-0.7,3h-2.3
				c-0.6,0-1.2,0.5-1.2,1.2c0,0.7,0.5,1.2,1.2,1.2H50h8.2h2.4c0.6,0,1.2-0.5,1.2-1.2c0-0.7-0.5-1.2-1.2-1.2h-2.3l-0.7-3
				c-0.1-0.3-0.3-0.5-0.6-0.5v-6.5h11.7c0.7,0,1.2-0.5,1.2-1.2c0,0,0-0.1,0-0.1C70,50.1,70,50,70,49.8L70,49.8z"/>
		</g>
	</g>
</g>
<g>
	<circle fill="#5C5C8A" cx="916.1" cy="49.4" r="34"/>
	<path fill="#FFFFFF" stroke="#FFFFFF" stroke-miterlimit="10" d="M908.7,38.1c0,0.5-0.4,1-1,1s-1-0.4-1-1c0-0.5,0.4-1,1-1
		S908.7,37.5,908.7,38.1z M912.2,37.1c-0.5,0-1,0.4-1,1c0,0.5,0.4,1,1,1s1-0.4,1-1C913.2,37.5,912.7,37.1,912.2,37.1z M917.1,37.1
		c-0.5,0-1,0.4-1,1c0,0.5,0.4,1,1,1c0.5,0,1-0.4,1-1C918.1,37.5,917.7,37.1,917.1,37.1z M907.7,41c-0.5,0-1,0.4-1,1c0,0.5,0.4,1,1,1
		c0.5,0,1-0.4,1-1C908.7,41.5,908.3,41,907.7,41z M912.2,41c-0.5,0-1,0.4-1,1c0,0.5,0.4,1,1,1s1-0.4,1-1
		C913.2,41.5,912.7,41,912.2,41z M917.1,41c-0.5,0-1,0.4-1,1c0,0.5,0.4,1,1,1c0.5,0,1-0.4,1-1C918.1,41.5,917.7,41,917.1,41z
		 M907.7,45c-0.5,0-1,0.4-1,1c0,0.5,0.4,1,1,1c0.5,0,1-0.4,1-1C908.7,45.4,908.3,45,907.7,45z M912.2,45c-0.5,0-1,0.4-1,1
		c0,0.5,0.4,1,1,1s1-0.4,1-1C913.2,45.4,912.7,45,912.2,45z M917.1,45c-0.5,0-1,0.4-1,1c0,0.5,0.4,1,1,1c0.5,0,1-0.4,1-1
		C918.1,45.4,917.7,45,917.1,45z M907.7,48.9c-0.5,0-1,0.4-1,1c0,0.5,0.4,1,1,1c0.5,0,1-0.4,1-1C908.7,49.4,908.3,48.9,907.7,48.9z
		 M912.2,48.9c-0.5,0-1,0.4-1,1c0,0.5,0.4,1,1,1s1-0.4,1-1C913.2,49.4,912.7,48.9,912.2,48.9z M917.1,48.9c-0.5,0-1,0.4-1,1
		c0,0.5,0.4,1,1,1c0.5,0,1-0.4,1-1C918.1,49.4,917.7,48.9,917.1,48.9z M907.7,52.9c-0.5,0-1,0.4-1,1c0,0.5,0.4,1,1,1
		c0.5,0,1-0.4,1-1C908.7,53.3,908.3,52.9,907.7,52.9z M912.2,52.9c-0.5,0-1,0.4-1,1c0,0.5,0.4,1,1,1s1-0.4,1-1
		C913.2,53.3,912.7,52.9,912.2,52.9z M917.1,52.9c-0.5,0-1,0.4-1,1c0,0.5,0.4,1,1,1c0.5,0,1-0.4,1-1
		C918.1,53.3,917.7,52.9,917.1,52.9z M907.7,56.9c-0.5,0-1,0.4-1,1c0,0.5,0.4,1,1,1c0.5,0,1-0.4,1-1
		C908.7,57.3,908.3,56.9,907.7,56.9z M912.2,56.9c-0.5,0-1,0.4-1,1c0,0.5,0.4,1,1,1s1-0.4,1-1C913.2,57.3,912.7,56.9,912.2,56.9z
		 M917.1,56.9c-0.5,0-1,0.4-1,1c0,0.5,0.4,1,1,1c0.5,0,1-0.4,1-1C918.1,57.3,917.7,56.9,917.1,56.9z M907.7,60.8c-0.5,0-1,0.4-1,1
		c0,0.5,0.4,1,1,1c0.5,0,1-0.4,1-1C908.7,61.3,908.3,60.8,907.7,60.8z M912.2,60.8c-0.5,0-1,0.4-1,1c0,0.5,0.4,1,1,1s1-0.4,1-1
		C913.2,61.3,912.7,60.8,912.2,60.8z M917.1,60.8c-0.5,0-1,0.4-1,1c0,0.5,0.4,1,1,1c0.5,0,1-0.4,1-1
		C918.1,61.3,917.7,60.8,917.1,60.8z M907.7,64.8c-0.5,0-1,0.4-1,1s0.4,1,1,1c0.5,0,1-0.4,1-1S908.3,64.8,907.7,64.8z M912.2,64.8
		c-0.5,0-1,0.4-1,1s0.4,1,1,1s1-0.4,1-1S912.7,64.8,912.2,64.8z M917.1,64.8c-0.5,0-1,0.4-1,1s0.4,1,1,1c0.5,0,1-0.4,1-1
		S917.7,64.8,917.1,64.8z M927,37.1c-0.5,0-1,0.4-1,1c0,0.5,0.4,1,1,1c0.5,0,1-0.4,1-1C928,37.5,927.6,37.1,927,37.1z M927,41
		c-0.5,0-1,0.4-1,1c0,0.5,0.4,1,1,1c0.5,0,1-0.4,1-1C928,41.5,927.6,41,927,41z M927,45c-0.5,0-1,0.4-1,1c0,0.5,0.4,1,1,1
		c0.5,0,1-0.4,1-1C928,45.4,927.6,45,927,45z M927,48.9c-0.5,0-1,0.4-1,1c0,0.5,0.4,1,1,1c0.5,0,1-0.4,1-1
		C928,49.4,927.6,48.9,927,48.9z M927,52.9c-0.5,0-1,0.4-1,1c0,0.5,0.4,1,1,1c0.5,0,1-0.4,1-1C928,53.3,927.6,52.9,927,52.9z
		 M927,56.9c-0.5,0-1,0.4-1,1c0,0.5,0.4,1,1,1c0.5,0,1-0.4,1-1C928,57.3,927.6,56.9,927,56.9z M927,60.8c-0.5,0-1,0.4-1,1
		c0,0.5,0.4,1,1,1c0.5,0,1-0.4,1-1C928,61.3,927.6,60.8,927,60.8z M927,64.8c-0.5,0-1,0.4-1,1s0.4,1,1,1c0.5,0,1-0.4,1-1
		S927.6,64.8,927,64.8z M940.4,70.7c0,0.5-0.4,1-1,1h-7.8h-9.2h-0.6h-18.7h-6.2c-0.5,0-1-0.4-1-1c0-0.5,0.4-1,1-1h5V34.5
		c0-0.5,0.3-1,0.9-1.2l18.7-6.1c0.1,0,0.2,0,0.4,0c0.6,0,1.2,0.5,1.2,1.3v1.3l9.2,5.1c0.4,0.2,0.7,0.7,0.7,1.1v33.7h6.4
		C939.9,69.7,940.4,70.2,940.4,70.7z M903.8,69.7h17.3V30.9v-1.5L903.8,35V69.7z M931,69.7V36.4l-7.9-4.4v37.7H931z"/>
</g>
<g>
	<circle fill="#477CFF" cx="837.2" cy="49.4" r="34"/>
	<g>
		<path fill="#FFFFFF" stroke="#FFFFFF" stroke-miterlimit="10" d="M814.1,71.2c1.8,0,2.6,0.5,3.6,1.2c1.2,0.7,2.5,1.6,5.1,1.6
			s3.9-0.8,5.1-1.6c1-0.6,1.8-1.2,3.6-1.2s2.6,0.5,3.6,1.2c1.2,0.7,2.5,1.6,5.1,1.6c2.6,0,3.9-0.8,5.1-1.6c0.3-0.2,0.6-0.4,0.9-0.5
			c0.7-0.4,1.5-0.6,2.8-0.6c1.7,0,2.5,0.4,3.4,1c0.1,0,0.1,0.1,0.2,0.1c1.2,0.7,2.5,1.6,5.1,1.6c0.8,0,1.4-0.6,1.4-1.4
			c0-0.8-0.6-1.4-1.4-1.4c-1.8,0-2.6-0.5-3.6-1.2c-1.2-0.7-2.5-1.6-5.1-1.6c-2.6,0-3.9,0.8-5.1,1.6c-1,0.6-1.8,1.2-3.6,1.2
			s-2.6-0.5-3.6-1.2c-1.2-0.7-2.5-1.6-5.1-1.6c-2.6,0-3.9,0.8-5.1,1.6c-0.3,0.2-0.6,0.4-0.9,0.5c-0.7,0.4-1.5,0.6-2.8,0.6
			c-1.7,0-2.5-0.4-3.4-1c-0.1,0-0.1-0.1-0.2-0.1c-1.2-0.7-2.5-1.6-5.1-1.6c-0.8,0-1.4,0.6-1.4,1.4C812.8,70.6,813.4,71.2,814.1,71.2
			z"/>
		<path fill="#FFFFFF" stroke="#FFFFFF" stroke-miterlimit="10" d="M831.6,60.3c-2.6,0-3.9,0.8-5.1,1.6c-0.3,0.2-0.6,0.4-0.9,0.5
			c-0.7,0.4-1.5,0.6-2.8,0.6c-1.7,0-2.5-0.4-3.4-1c-0.1,0-0.1-0.1-0.2-0.1c-1.2-0.7-2.5-1.6-5.1-1.6c-0.8,0-1.4,0.6-1.4,1.4
			c0,0.8,0.6,1.4,1.4,1.4c1.8,0,2.6,0.5,3.6,1.2c1.2,0.7,2.5,1.6,5.1,1.6s3.9-0.8,5.1-1.6c1-0.6,1.8-1.2,3.6-1.2s2.6,0.5,3.6,1.2
			c1.2,0.7,2.5,1.6,5.1,1.6c2.6,0,3.9-0.8,5.1-1.6c0.3-0.2,0.6-0.4,0.9-0.5c0.7-0.4,1.5-0.6,2.8-0.6c1.7,0,2.5,0.4,3.4,1
			c0.1,0,0.1,0.1,0.2,0.1c1.2,0.7,2.5,1.6,5.1,1.6c0.8,0,1.4-0.6,1.4-1.4c0-0.8-0.6-1.4-1.4-1.4c-1.8,0-2.6-0.5-3.6-1.2
			c-0.5-0.3-1.1-0.7-1.8-1V44h5.4c0.8,0,1.4-0.6,1.4-1.4s-0.6-1.4-1.4-1.4h-5.4v-6.2c0-3.5-2.1-7.5-4.7-9.3c-2-1.3-3.4-0.9-4.1-0.5
			c-1.3,0.7-2.1,2.3-2.1,4.3v7.5c0,0.8,0.6,1.4,1.4,1.4s1.4-0.6,1.4-1.4v-7.5c0-1.2,0.3-1.8,0.6-1.9c0.3-0.1,0.8,0,1.3,0.4
			c1.9,1.3,3.5,4.5,3.5,7v6.2h-13.6v-6.2c0-3.5-2.1-7.5-4.7-9.3c-2-1.3-3.4-0.9-4.1-0.5c-1.3,0.7-2.1,2.3-2.1,4.3v7.5
			c0,0.8,0.6,1.4,1.4,1.4c0.8,0,1.4-0.6,1.4-1.4v-7.5c0-1.2,0.3-1.8,0.6-1.9c0.3-0.1,0.8,0,1.3,0.4c1.9,1.3,3.5,4.5,3.5,7v6.2h-19.1
			c-0.8,0-1.4,0.6-1.4,1.4s0.6,1.4,1.4,1.4h19.1v16.5C832.7,60.4,832.2,60.3,831.6,60.3z M835.9,44h13.6v4.1h-13.6V44z M835.9,50.8
			h13.6v4.1h-13.6V50.8z M835.9,57.6h13.6v2.7c-0.2,0-0.4,0-0.5,0c-2.6,0-3.9,0.8-5.1,1.6c-1,0.6-1.8,1.2-3.6,1.2s-2.6-0.5-3.6-1.2
			c-0.2-0.1-0.5-0.3-0.7-0.4L835.9,57.6L835.9,57.6z"/>
	</g>
</g>
<g>
	<circle fill="#42210B" cx="120" cy="49.4" r="34"/>
	<g>
		<g>
			<path fill="#FFFFFF" d="M112.3,27.3c-0.9-0.3-1.9,0.2-2.1,1.1l-12.3,41c-0.2,0.9,0.2,1.9,1.1,2.1c0.2,0.1,0.3,0.1,0.5,0.1
				c0.7,0,1.4-0.5,1.6-1.2l12.3-40.9C113.6,28.5,113.2,27.6,112.3,27.3z"/>
			<path fill="#FFFFFF" d="M142.1,69.4l-12.3-40.9c-0.2-0.9-1.2-1.4-2.1-1.1c-0.9,0.2-1.4,1.2-1.1,2.1l12.3,41
				c0.2,0.7,0.9,1.2,1.6,1.2c0.1,0,0.3,0,0.5,0C141.8,71.3,142.3,70.4,142.1,69.4z"/>
			<path fill="#FFFFFF" d="M121.1,54.5c0-0.6-0.5-1-1.1-1c-0.6,0-1.1,0.4-1.1,1l-1,13.3c0,0.3,0.1,0.6,0.3,0.8
				c0.2,0.2,0.5,0.3,0.8,0.3h2.1c0.3,0,0.6-0.1,0.8-0.3c0.2-0.2,0.3-0.5,0.3-0.8L121.1,54.5z"/>
			<path fill="#FFFFFF" d="M120,39.7c-0.3,0-0.5,0.2-0.5,0.5l-1,8.2c0,0.1,0,0.3,0.1,0.4c0.1,0.1,0.2,0.2,0.4,0.2h2.1
				c0.1,0,0.3,0,0.4-0.2c0.1-0.1,0.1-0.3,0.1-0.4l-1-8.2C120.5,39.9,120.3,39.7,120,39.7z"/>
			<path fill="#FFFFFF" d="M118.9,35.7h2.1c0.2,0,0.3-0.1,0.4-0.2c0.1-0.1,0.1-0.3,0.1-0.5l-1-4.1c0-0.2-0.3-0.4-0.5-0.4
				s-0.5,0.2-0.5,0.4l-1,4.1c0,0.1,0,0.3,0.1,0.5C118.6,35.6,118.8,35.7,118.9,35.7z"/>
		</g>
	</g>
</g>
<g>
	<circle fill="#270562" cx="437.4" cy="49.4" r="34"/>
	<g>
		<path fill="#FFFFFF" d="M421.3,60.1c0.6,0.1,6.7,0.9,9,0.1l0.1,0c0.3,0,7.9-1.1,11.4,0c0.4,0.1,1,0.2,1.7,0.3
			c0.1-1,0.3-1.6,0.6-2.2c0.3-0.6,0.5-1.1,0.5-2.1c0-1.1-0.2-1.5-0.5-2.1c-0.3-0.6-0.6-1.3-0.6-2.6c0-1.3,0.3-2,0.6-2.6
			c0.3-0.6,0.5-1.1,0.5-2.1c0-1.1-0.2-1.5-0.5-2.1c-0.3-0.6-0.6-1-0.6-2.6h1.1c0,1.1,0.2,1.5,0.5,2.1c0.3,0.6,0.6,1.3,0.6,2.6
			c0,1.3-0.3,2-0.6,2.6c-0.3,0.6-0.5,1.1-0.5,2.1c0,1.1,0.2,1.5,0.5,2.1c0.3,0.6,0.6,1.3,0.6,2.6c0,1.3-0.3,2-0.6,2.6
			c-0.2,0.5-0.5,1-0.5,1.8c1,0.1,2.1,0.2,3.1,0.2c0-1.6,0.4-2.4,0.8-3.2c0.3-0.7,0.7-1.4,0.7-2.7c0-1.4-0.3-2-0.7-2.7
			c-0.4-0.7-0.8-1.6-0.8-3.2c0-1.6,0.4-2.5,0.8-3.2c0.3-0.7,0.7-1.4,0.7-2.7c0-1.4-0.3-2-0.7-2.7c-0.4-0.7-0.8-1.6-0.8-3.2h1.1
			c0,1.6,0.3,2,0.7,2.7c0.4,0.7,0.8,1.6,0.8,3.2c0,1.6-0.4,2.5-0.8,3.2c-0.3,0.7-0.7,1.4-0.7,2.7c0,1.4,0.3,2,0.7,2.7
			c0.4,0.7,0.8,1.6,0.8,3.2c0,1.6-0.4,2.5-0.8,3.2c-0.3,0.7-0.6,1.4-0.7,2.7c0.6,0,1-0.1,1.4-0.3l0.1,0c0.2-0.1,1-0.2,2-0.4
			c0.1-0.8,0.3-1.3,0.6-1.8c0.3-0.6,0.5-1.1,0.5-2.1s-0.2-1.5-0.5-2.1c-0.3-0.6-0.6-1.3-0.6-2.6c0-1.3,0.3-2,0.6-2.6
			c0.3-0.6,0.5-1.1,0.5-2.1c0-1.1-0.2-1.5-0.5-2.1c-0.3-0.6-0.6-1-0.6-2.6h1.1c0,1.1,0.2,1.5,0.5,2.1c0.3,0.6,0.6,1.3,0.6,2.6
			c0,1.3-0.3,2-0.6,2.6c-0.3,0.6-0.5,1.1-0.5,2.1c0,1.1,0.2,1.5,0.5,2.1c0.3,0.6,0.6,1.3,0.6,2.6c0,1.3-0.3,2-0.6,2.6
			c-0.2,0.4-0.3,0.7-0.4,1.1c2-0.3,4.5-0.6,6.1-0.1V34.5h-44v25.6C417.3,59.9,420.1,59.8,421.3,60.1z M435.2,50.6
			c1.5,0,2.9,1.4,3.2,1.8l2-1.3v2.9l-2.1-1.3c-0.4,0.5-1.6,1.7-3,1.7c-1.7,0-3.2-1.9-3.2-1.9S433.4,50.6,435.2,50.6z M422.4,39.4
			l2.1,1.5c0.3-0.4,1.7-2.1,3.5-2.1c2,0,3.5,2.2,3.5,2.2s-1.6,2.2-3.6,2.2c-1.6,0-2.9-1.5-3.3-2l-2.2,1.5V39.4z"/>
		<path fill="#FFFFFF" d="M450.5,61.7c-0.7,0.3-1.6,0.4-2.7,0.4c-2.7,0-5.8-0.6-6.3-0.7l-0.1,0c-3.1-1-10.2-0.1-10.8,0
			c-2.7,0.9-9.2,0-9.5-0.1l-0.1,0c-0.9-0.3-3.6-0.2-5.6,0v3.2h44v-3.3C457.6,60.2,452.4,61.2,450.5,61.7z"/>
	</g>
</g>
<circle fill="#774A8E" cx="1081" cy="49.4" r="34"/>
<g>
	<circle fill="#BE4D6B" cx="1002.6" cy="49.4" r="34"/>
	<g>
		<path fill="#FFFFFF" stroke="#FFFFFF" stroke-miterlimit="10" d="M987.3,62.3h-4.1c-0.3,0-0.5-0.3-0.5-0.5V40.9
			c0-0.3,0.3-0.5,0.5-0.5h4.1c0.3,0,0.5,0.3,0.5,0.5v20.7C987.9,62,987.6,62.3,987.3,62.3z"/>
		<path fill="#FFFFFF" stroke="#FFFFFF" stroke-miterlimit="10" d="M999.5,62.3h-4.1c-0.3,0-0.5-0.3-0.5-0.5V40.9
			c0-0.3,0.3-0.5,0.5-0.5h4.1c0.3,0,0.5,0.3,0.5,0.5v20.7C1000,62,999.8,62.3,999.5,62.3z"/>
		<path fill="#FFFFFF" stroke="#FFFFFF" stroke-miterlimit="10" d="M1011.6,62.3h-4.1c-0.3,0-0.5-0.3-0.5-0.5V40.9
			c0-0.3,0.3-0.5,0.5-0.5h4.1c0.3,0,0.5,0.3,0.5,0.5v20.7C1012.2,62,1011.9,62.3,1011.6,62.3z"/>
		<path fill="#FFFFFF" stroke="#FFFFFF" stroke-miterlimit="10" d="M1023.7,62.3h-4.1c-0.3,0-0.5-0.3-0.5-0.5V40.9
			c0-0.3,0.3-0.5,0.5-0.5h4.1c0.3,0,0.5,0.3,0.5,0.5v20.7C1024.3,62,1024.1,62.3,1023.7,62.3z"/>
		<g>
			<path fill="#FFFFFF" stroke="#FFFFFF" stroke-miterlimit="10" d="M1025.5,32.4v-0.5c0-0.1-0.1-0.2-0.1-0.2l-22-8.7L981,31.7
				c-0.1,0.1-0.1,0.1-0.1,0.2v0.5c0,0.1-0.1,0.3-0.3,0.3h-0.7c-0.1,0-0.3,0.1-0.3,0.3v4.9h47.1v-4.9c0-0.1-0.1-0.3-0.3-0.3h-0.8
				C1025.6,32.7,1025.5,32.5,1025.5,32.4z"/>
			<rect x="979.6" y="65.1" fill="#FFFFFF" stroke="#FFFFFF" stroke-miterlimit="10" width="47.1" height="5.1"/>
		</g>
	</g>
</g>
<g>
	<circle fill="#74452F" cx="274" cy="49.4" r="34"/>
	<path fill="#FFFFFF" stroke="#FFFFFF" stroke-miterlimit="10" d="M262.5,31.9l-3.8,1.5v-1.5c0-1.5,0.8-2.8,2.1-3.4l12.5-4.8
		c0.4-0.1,0.9-0.1,1.4,0l0.4,0.1l12.1,4.7c1.3,0.6,2.2,1.9,2.1,3.4v1.5l-3.8-1.5l0,0L274,27.4L262.5,31.9L262.5,31.9z M251.3,70.9
		c0-1.3,1-2.3,2.3-2.3c0,0,0,0,0,0h1.8V40.5c-0.1-1,0.5-1.8,1.3-2.3l16.7-6.5l0.1,0l0.1,0c0.2-0.1,0.4-0.1,0.7,0l0.1,0l0.1,0
		l3.7,1.5l3.7,1.5l4.1,1.6l3.6,1.4l0,0l1.5,0.6c0.9,0.4,1.4,1.3,1.3,2.3v28.1h1.8c1.3,0,2.3,1,2.3,2.3s-1,2.3-2.3,2.3h-40.8
		C252.3,73.2,251.3,72.2,251.3,70.9z M259.1,45.4l13.1-4.4v-3.8l-13.1,5.1V45.4z M259.1,52l13.1-3.1v-4l-13.1,3.8V52z M259.1,58.5
		l13.1-1.7v-4l-13.1,2.4V58.5z M259.1,65l13.1-0.3v-4l-13.1,1V65z"/>
</g>
<g>
	<circle fill="#9A2E36" cx="1238.1" cy="49.4" r="34"/>
	<g>
		<path fill="#FFFFFF" d="M1251.3,35.8c-2.1,0-3.9-1.7-3.9-3.9c0-2.2,1.7-3.9,3.9-3.9c2.1,0,3.9,1.7,3.9,3.9
			C1255.2,34,1253.4,35.8,1251.3,35.8z"/>
		<path fill="#FFFFFF" d="M1226.1,27.4c-0.8-0.1-1.6,0.1-2.3,0.5l0,0l-0.1,0.1c-0.3,0.2-0.6,0.5-0.9,0.8l-4.7,4.1l-2.5,0.6l1.3,2.1
			l1.5-2.2l3.5-1.4c0.3,1.7,1.7,3.1,3.5,3.3c2.1,0.2,4-1.4,4.2-3.5C1229.8,29.5,1228.2,27.6,1226.1,27.4z"/>
		<path fill="#FFFFFF" d="M1236.7,48.7l-8.1-13.6v0.1l0-0.1c0,0-4.3,0-5.8,0c-1.7,0-6.6,1.4-6.6,1.4c-0.4,0-0.7,0.3-0.7,0.7
			l-0.2,3.5l-1.3,0.2l-0.3,5.9l1.3,0.1l0,0.7l5.3,0.1c0.3,0.1,0.6,0.3,0.9,0.4l-0.7,10.3h1.7l0,10l2.5-0.1l1.3-10h0.6l0,10h2.3
			l1.4-10h2.2l-2.5-15.3l4.1,5.7L1236.7,48.7L1236.7,48.7z M1221.3,46.9c-0.3-0.1-0.7-0.3-1-0.4l0.5-9.9c0.4-0.2,0.8-0.2,1.2-0.2
			L1221.3,46.9z"/>
		<path fill="#FFFFFF" d="M1253.6,48.2l0.6-8l5.6,6.9h2.5l-7.8-11.3l-7.3,0c-0.6,0-6,1.4-6,1.4c-0.4,0-0.7,0.3-0.7,0.7l-0.2,3.6
			l-1.3,0.2l-0.3,6.1l1.3,0.1l0,0.7l5.4,0.1c0.3,0.1,0.6,0.3,0.9,0.3l0,0.6v3.4v14.4h3l1.9-15l5.5,4.1l-1.1,9.3l2.6,0.1l2.5-10.7
			l0,0L1253.6,48.2z M1245.5,47.6l0.5-10.2c0,0,0.6-0.2,1.2-0.3l-0.8,10.9C1246.1,47.9,1245.8,47.8,1245.5,47.6z"/>
	</g>
</g>
<circle fill="#006600" cx="599.5" cy="49.4" r="34"/>
<g>
	<g>
		<path fill="#FFFFFF" d="M704,40.9h-35.3v-2.1h1.1c0.6,0,1.1-0.5,1.1-1.1c0-0.4-0.2-0.7-0.5-0.9l-7.3-8.4c-0.4-0.5-1.2-0.5-1.6,0
			l-7.5,8.6c-0.3,0.3-0.3,0.8-0.2,1.1c0.2,0.4,0.6,0.6,1,0.6h1.1v31c0,0.6,0.5,1.1,1.1,1.1c0.6,0,1.1-0.5,1.1-1.1v-1.1h8.6v1.1
			c0,0.6,0.5,1.1,1.1,1.1c0.6,0,1.1-0.5,1.1-1.1V43h6.4v10.9c-1.2,0.4-2.1,1.6-2.1,3c0,1.8,1.4,3.2,3.2,3.2s3.2-1.4,3.2-3.2
			c0-1.4-0.9-2.6-2.1-3V43h8.6v8.8c-1.2,0.4-2.1,1.6-2.1,3c0,1.8,1.4,3.2,3.2,3.2s3.2-1.4,3.2-3.2c0-1.4-0.9-2.6-2.1-3V43h6.4v26.8
			c0,0.6,0.5,1.1,1.1,1.1c0.6,0,1.1-0.5,1.1-1.1V43h4.3v2.4c-0.6,0.3-1.1,0.8-1.1,1.4c0,0.6,0.4,1.1,1.1,1.4v3.1
			c-0.6,0.3-1.1,0.8-1.1,1.4c0,0.6,0.4,1.1,1.1,1.4v3.1c-0.6,0.3-1.1,0.8-1.1,1.4c0,0.6,0.4,1.1,1.1,1.4V63
			c-0.6,0.3-1.1,0.8-1.1,1.4s0.4,1.1,1.1,1.4v1.8c0,0.6,0.5,1.1,1.1,1.1c0.6,0,1.1-0.5,1.1-1.1v-1.8c0.6-0.3,1.1-0.8,1.1-1.4
			s-0.4-1.1-1.1-1.4v-3.1c0.6-0.3,1.1-0.8,1.1-1.4c0-0.6-0.4-1.1-1.1-1.4V54c0.6-0.3,1.1-0.8,1.1-1.4c0-0.6-0.4-1.1-1.1-1.4v-3.1
			c0.6-0.3,1.1-0.8,1.1-1.4s-0.4-1.1-1.1-1.4V43h1.1c0.6,0,1.1-0.5,1.1-1.1C705,41.3,704.6,40.9,704,40.9z M666.5,66.6h-8.6v-4.3
			h8.6V66.6z M666.5,60.1h-8.6v-4.3h8.6V60.1z M666.5,53.7h-8.6v-4.3h8.6V53.7z M666.5,47.3h-8.6v-8.6h8.6V47.3z M676.1,58
			c-0.6,0-1.1-0.5-1.1-1.1c0-0.6,0.5-1.1,1.1-1.1s1.1,0.5,1.1,1.1C677.2,57.5,676.7,58,676.1,58z M686.8,55.9
			c-0.6,0-1.1-0.5-1.1-1.1c0-0.6,0.5-1.1,1.1-1.1s1.1,0.5,1.1,1.1C687.9,55.4,687.4,55.9,686.8,55.9z"/>
	</g>
</g>
<g>
	<path fill="none" stroke="#FFFFFF" stroke-width="3" stroke-linejoin="round" stroke-miterlimit="10" d="M1102.2,28.7v41.5h-6
		c0,0,0-10.9,0-15.5c0-9.2-4-15.9-15.3-15.9h0.2c-11.4,0-15.3,6.7-15.3,15.9c0,4.6,0,15.5,0,15.5h-6V28.7H1102.2z"/>
	<path fill="none" stroke="#FFFFFF" stroke-width="3" stroke-linejoin="round" stroke-miterlimit="10" d="M1096,67.8h-4.2
		c0,0,0-7.7,0-11c0-6.5-2.8-11.3-10.9-11.3h0.1c-8,0-10.9,4.8-10.9,11.3c0,3.3,0,11,0,11h-4.2"/>
	<path fill="none" stroke="#FFFFFF" stroke-width="3" stroke-linejoin="round" stroke-miterlimit="10" d="M1091.6,65.4h-3.4
		c0,0,0-5.2,0-7.4c0-4.4-1.9-7.6-7.3-7.6h0.1c-5.4,0-7.3,3.2-7.3,7.6c0,2.2,0,7.4,0,7.4h-3.4"/>
</g>
<g>
	<path fill="#FFFFFF" d="M604,34.9c0.2-0.1,0.2-0.3,0.2-0.5c0,0-0.1-0.4-0.1-0.9c0.1-0.6,0.4-1.1,1-1.3c0.2-0.1,0.3-0.4,0.2-0.6
		c-0.1-0.2-0.4-0.3-0.6-0.2c-0.8,0.4-1.3,1.1-1.5,2c0,0.1,0,0.2,0,0.3c-1.2-0.4-2.5,0-2.5,0c-0.2,0.1-0.3,0.3-0.3,0.5
		c0.1,0.2,0.3,0.4,0.5,0.3c0,0,1.5-0.5,2.5,0.3c0.1,0.1,0.2,0.1,0.3,0.1C603.8,34.9,603.9,34.9,604,34.9z"/>
	<path fill="#FFFFFF" d="M601.6,31.5c0.1,0.1,0.2,0.1,0.3,0.1c0.1,0,0.2,0,0.2-0.1c0.2-0.1,0.2-0.3,0.2-0.5c0,0-0.1-0.3,0-0.7
		c0.1-0.5,0.3-0.8,0.7-1c0.2-0.1,0.3-0.4,0.2-0.6c-0.1-0.2-0.4-0.3-0.6-0.2c-0.9,0.4-1.2,1.2-1.2,1.8c-0.9-0.3-1.9,0-1.9,0
		c-0.2,0.1-0.3,0.3-0.3,0.5c0.1,0.2,0.3,0.4,0.5,0.3C599.8,31.2,600.9,30.9,601.6,31.5z"/>
	<path fill="#FFFFFF" d="M599.7,28c0,0,0.5-0.2,0.9,0.1c0.1,0.1,0.2,0.1,0.3,0.1c0.1,0,0.2,0,0.2-0.1c0.2-0.1,0.2-0.3,0.2-0.5
		c0,0,0-0.1,0-0.3c0-0.2,0.1-0.3,0.3-0.4c0.2-0.1,0.3-0.4,0.2-0.6c-0.1-0.2-0.4-0.3-0.6-0.2c-0.5,0.2-0.7,0.6-0.7,0.9
		c-0.5-0.1-0.9,0.1-1,0.1c-0.2,0.1-0.4,0.3-0.3,0.6C599.3,27.9,599.5,28,599.7,28z"/>
	<path fill="#FFFFFF" d="M582,61.1h7.4c0.2,0,0.4-0.2,0.4-0.4s-0.2-0.4-0.4-0.4H582c-0.2,0-0.4,0.2-0.4,0.4S581.8,61.1,582,61.1z"/>
	<path fill="#FFFFFF" d="M587.1,65.2h-2.8c-0.2,0-0.4,0.2-0.4,0.4s0.2,0.4,0.4,0.4h2.8c0.2,0,0.4-0.2,0.4-0.4S587.3,65.2,587.1,65.2
		z"/>
	<path fill="#FFFFFF" d="M595.1,70.9c0,0.2,0.2,0.4,0.4,0.4h7.4c0.2,0,0.4-0.2,0.4-0.4s-0.2-0.4-0.4-0.4h-7.4
		C595.3,70.6,595.1,70.7,595.1,70.9z"/>
	<path fill="#FFFFFF" d="M610,64.5c0,0.2,0.2,0.4,0.4,0.4h7.4c0.2,0,0.4-0.2,0.4-0.4s-0.2-0.4-0.4-0.4h-7.4
		C610.2,64.2,610,64.3,610,64.5z"/>
	<path fill="#FFFFFF" d="M597.3,61.1h4.5c0.2,0,0.4-0.2,0.4-0.4s-0.2-0.4-0.4-0.4h-4.5c-0.2,0-0.4,0.2-0.4,0.4
		S597.1,61.1,597.3,61.1z"/>
	<path fill="#FFFFFF" d="M593.7,66.5h4.5c0.2,0,0.4-0.2,0.4-0.4s-0.2-0.4-0.4-0.4h-4.5c-0.2,0-0.4,0.2-0.4,0.4
		S593.5,66.5,593.7,66.5z"/>
	<path fill="#FFFFFF" d="M608,61.1h4.5c0.2,0,0.4-0.2,0.4-0.4s-0.2-0.4-0.4-0.4H608c-0.2,0-0.4,0.2-0.4,0.4S607.8,61.1,608,61.1z"/>
	<path fill="#FFFFFF" d="M622.9,39.6c-1.3-3-3.1-5.7-5.4-8.1s-5-4.2-8.1-5.4c-3.1-1.3-6.5-2-9.9-2c-3.4,0-6.7,0.7-9.9,2
		c-3,1.3-5.7,3.1-8.1,5.4c-2.3,2.3-4.2,5-5.4,8.1c-1.3,3.1-2,6.5-2,9.9c0,3.4,0.7,6.7,2,9.9c1.3,3,3.1,5.7,5.4,8.1
		c2.3,2.3,5,4.2,8.1,5.4c3.1,1.3,6.5,2,9.9,2c3.4,0,6.7-0.7,9.9-2c3-1.3,5.7-3.1,8.1-5.4s4.2-5,5.4-8.1c1.3-3.1,2-6.5,2-9.9
		C624.9,46,624.2,42.7,622.9,39.6z M599.5,74.1c-11,0-20.3-7.2-23.5-17.2l47-0.1C619.9,66.8,610.5,74.1,599.5,74.1z M586.1,45.1
		c-0.1-0.1-0.3-0.2-0.4-0.1l-1.4,1v-1.5c0-0.2-0.1-0.3-0.3-0.3s-0.3,0.1-0.3,0.3v2.8l-1.3-1c-0.1-0.1-0.3-0.1-0.4,0.1
		c-0.1,0.1-0.1,0.3,0.1,0.4l1.6,1.2v0.8h-1.8l-2.1-3.6l2.1-3.6h4.1l2.1,3.6l-2.1,3.6h-1.8v-2.1l1.7-1.3
		C586.2,45.4,586.2,45.2,586.1,45.1z M599.7,42.6c-0.1-0.2-0.3-0.2-0.5-0.1l-1.8,1.3v-1.9c0-0.2-0.2-0.3-0.3-0.3s-0.3,0.2-0.3,0.3
		v3.5l-1.7-1.2c-0.2-0.1-0.4-0.1-0.5,0.1c-0.1,0.2-0.1,0.4,0.1,0.5l2.1,1.5v1h-2.3l-2.6-4.4l2.6-4.4h5.1l2.6,4.4l-2.6,4.4h-2.1v-2.6
		l2.2-1.6C599.8,42.9,599.8,42.7,599.7,42.6z M611.3,56.1L611.3,56.1l-4.9,0v-3.5h11.2v3.5l-5.5,0v0H611.3z M618.3,56.1v-3.5h1.7
		c0.2,0,0.4-0.2,0.4-0.4s-0.2-0.4-0.4-0.4h-16.2c-0.2,0-0.4,0.2-0.4,0.4s0.2,0.4,0.4,0.4h1.8v3.5l-8.2,0v-8.2h2.3
		c0.1,0,0.2-0.1,0.3-0.2l2.8-4.8c0.1-0.1,0.1-0.2,0-0.4l-2.8-4.8c-0.1-0.1-0.2-0.2-0.3-0.2h-5.5c-0.1,0-0.2,0.1-0.3,0.2l-2.8,4.8
		c-0.1,0.1-0.1,0.2,0,0.3l2.8,4.8c0.1,0.1,0.2,0.2,0.3,0.2h2.5v8.2l-12.5,0v-6.8h1.9c0.1,0,0.2-0.1,0.2-0.2l2.2-3.8
		c0-0.1,0-0.2,0-0.3l-2.2-3.9c0-0.1-0.1-0.2-0.2-0.2h-4.4c-0.1,0-0.2,0.1-0.2,0.2l-2.2,3.8c0,0.1,0,0.2,0,0.3l2.2,3.9
		c0,0.1,0.1,0.2,0.2,0.2h2v6.8l-7.9,0c-0.6-2.1-0.9-4.4-0.9-6.7c0-13.6,11.1-24.6,24.6-24.6c13.6,0,24.6,11.1,24.6,24.6
		c0,2.3-0.3,4.6-0.9,6.7L618.3,56.1z"/>
	<path fill="#FFFFFF" d="M620.1,50.1h-16.2c-0.2,0-0.4,0.2-0.4,0.4s0.2,0.4,0.4,0.4h16.2c0.2,0,0.4-0.2,0.4-0.4
		S620.3,50.1,620.1,50.1z"/>
	<path fill="#FFFFFF" d="M620.1,48.2h-16.2c-0.2,0-0.4,0.2-0.4,0.4s0.2,0.4,0.4,0.4h16.2c0.2,0,0.4-0.2,0.4-0.4
		S620.3,48.2,620.1,48.2z"/>
</g>
<path fill="#FFFFFF" d="M777.3,31.7c-0.7,0.2-1.4,0.3-2.2,0.3c-3.2,0-6.5-1.9-9.7-3.8c-3.3-1.9-6.8-3.9-10.2-3.9
	c-0.8,0-1.6,0.1-2.4,0.4l-0.3,0.1v7.5v8.1v28.4c-2.8,0.1-5,1.4-5,2.9c0,1.6,2.4,2.9,5.4,2.9c3.1,0,5.4-1.3,5.4-2.9
	c0-1.6-2.2-2.8-5-2.9V39.5c3.6-3.2,7-3.3,10.9-3.3h1.9c3.9,0,7.8-0.3,11.7-3.6l1.6-1.4L777.3,31.7z M757.4,71.7c0,0.9-1.9,2-4.5,2
	s-4.5-1.1-4.5-2c0-0.9,1.6-1.9,4.1-2v1.4c0,0.3,0.2,0.5,0.5,0.5c0.3,0,0.5-0.2,0.5-0.5v-1.4C755.7,69.8,757.4,70.8,757.4,71.7z
	 M766,35.2h-1.9c-3.7,0-7.3,0.3-10.9,3.1v-6.1v-6.8c0.6-0.1,1.2-0.3,1.8-0.3c3.2,0,6.5,1.9,9.7,3.8c3.3,1.9,6.8,3.9,10.2,3.9
	c0.2,0,0.4,0,0.5,0C772.4,35,769.3,35.2,766,35.2z"/>
<path fill="#FFFFFF" d="M511.9,53.3c1.7,0,3.2-0.7,4.4-1.7l4.9,4.9v12.1c0,0.3,0.2,0.5,0.5,0.5c0.3,0,0.5-0.2,0.5-0.5V56.5l4.9-4.9
	c1.2,1,2.7,1.7,4.4,1.7c3.6,0,6.6-3,6.6-6.6c0-1.5-0.5-2.9-1.5-4.1c0.9-1.2,1.5-2.6,1.5-4.1c0-3.6-3-6.6-6.6-6.6c-1,0-2.1,0.3-3,0.8
	c-1.8-1.8-4.2-2.9-6.8-2.9c-3.3,0-6.4,1.7-8,4.5c-0.4-0.1-0.9-0.2-1.4-0.2c-3,0-5.4,2.4-5.4,5.4c0,0.8,0.2,1.7,0.6,2.4
	c-1.4,1.3-2.1,3-2.1,4.8C505.3,50.4,508.2,53.3,511.9,53.3z M517,50.8c0.7-0.8,1.1-1.8,1.4-2.8c0.9,0.3,1.8,0.5,2.8,0.6V55L517,50.8
	z M522.2,48.6c0.9-0.1,1.9-0.2,2.8-0.6c0.2,1,0.7,2,1.4,2.8l-4.1,4.1V48.6z M508.5,41.7c-0.4-0.7-0.7-1.5-0.7-2.2
	c0-2.4,2-4.3,4.3-4.3c0.5,0,1,0.1,1.5,0.3c0.3,0.1,0.5,0,0.7-0.3c1.5-2.7,4.3-4.3,7.3-4.3c2.4,0,4.7,1,6.3,2.8
	c0.2,0.2,0.5,0.2,0.7,0.1c0.9-0.5,1.8-0.8,2.8-0.8c3,0,5.5,2.5,5.5,5.5c0,1.4-0.5,2.7-1.5,3.8c-0.2,0.2-0.2,0.5,0,0.8
	c0.9,1,1.5,2.3,1.5,3.8c0,3-2.5,5.5-5.5,5.5c-2.8,0-5.3-2.2-5.5-5.1c0-0.2-0.1-0.3-0.3-0.4c-0.1-0.1-0.2-0.1-0.3-0.1
	c-0.1,0-0.2,0-0.2,0.1c-1.1,0.5-2.3,0.8-3.4,0.8c-0.1,0-0.1,0-0.1,0c-0.1,0-0.1,0-0.1,0c-1.2,0-2.3-0.3-3.4-0.8
	c-0.2-0.1-0.3-0.1-0.5,0c-0.2,0.1-0.3,0.3-0.3,0.4c-0.2,2.8-2.7,5.1-5.5,5.1c-3,0-5.5-2.5-5.5-5.5c0-1.7,0.8-3.3,2.1-4.3
	C508.6,42.2,508.7,41.9,508.5,41.7z"/>
<g>
	<path fill="#FFFFFF" d="M1159.2,44.9c-6.6,0-11.5,1.5-11.5,3.5V54c2.7-1.2,6.9-1.5,8.7-1.6c0.9-0.1,1.8-0.1,2.8-0.1
		c1,0,2,0,2.8,0.1c1.8,0.1,6,0.4,8.7,1.6v-5.6C1170.7,46.4,1165.8,44.9,1159.2,44.9z"/>
	<path fill="#FFFFFF" d="M1178.1,55.9c-0.6,0-1.1,0.5-1.1,1.2c0,0.6,0.5,1.1,1.1,1.1c0.6,0,1.1-0.5,1.1-1.1
		C1179.2,56.4,1178.7,55.9,1178.1,55.9z"/>
	<path fill="#FFFFFF" d="M1178.1,59.2c-0.4,0-0.8-0.1-1.1-0.3l-0.3,1.1h2.8l-0.3-1.1C1178.9,59.1,1178.5,59.2,1178.1,59.2z"/>
	<path fill="#FFFFFF" d="M1136.7,47.4l9.8,3.8v-2.8c0-3.6,7.9-4.6,12.6-4.6c4.7,0,12.6,1,12.6,4.6v2.8l5.7-2.2c0,0,0,0,0,0l0.8-0.3
		c0,0,0,0,0,0l3.3-1.3l-22.5-8.5L1136.7,47.4z"/>
	<path fill="#FFFFFF" d="M1183.3,46.9l-23.9-9.1c-0.1,0-0.3,0-0.4,0l-23.9,9.1c-0.2,0.1-0.3,0.3-0.3,0.5c0,0.2,0.1,0.4,0.3,0.5
		l11.5,4.4v2.5c0,0.2,0.1,0.4,0.3,0.5c0.2,0.1,0.4,0.1,0.5,0c1.7-1,5-1.6,9.1-1.8c0.8-0.1,1.8-0.1,2.7-0.1c1,0,1.9,0,2.7,0.1
		c1.9,0.1,6.6,0.5,9.1,1.8c0.1,0,0.2,0.1,0.3,0.1c0.1,0,0.2,0,0.3-0.1c0.2-0.1,0.3-0.3,0.3-0.5v-2.5l5.4-2.1V55
		c-0.7,0.4-1.2,1.1-1.2,2c0,0.3,0.1,0.6,0.2,0.9l-0.6,2.5c0,0.2,0,0.3,0.1,0.5c0.1,0.1,0.3,0.2,0.4,0.2h4.2c0.2,0,0.3-0.1,0.4-0.2
		c0.1-0.1,0.1-0.3,0.1-0.5l-0.6-2.4c0.1-0.3,0.2-0.6,0.2-0.9c0-0.9-0.5-1.6-1.2-2v-5.5l4.2-1.6c0.2-0.1,0.3-0.3,0.3-0.5
		S1183.5,47,1183.3,46.9z M1170.7,54c-2.8-1.2-7-1.5-8.7-1.6c-0.8-0.1-1.8-0.1-2.8-0.1c-1,0-1.9,0-2.8,0.1c-1.8,0.1-6,0.4-8.7,1.6
		v-5.6c0-2,4.9-3.5,11.5-3.5c6.6,0,11.5,1.5,11.5,3.5L1170.7,54L1170.7,54z M1176.7,60l0.3-1.1c0.3,0.2,0.7,0.3,1.1,0.3
		c0.4,0,0.8-0.1,1.1-0.3l0.3,1.1L1176.7,60L1176.7,60z M1179.2,57c0,0.6-0.5,1.1-1.1,1.1s-1.1-0.5-1.1-1.1c0-0.7,0.5-1.2,1.1-1.2
		C1178.7,55.9,1179.2,56.4,1179.2,57z M1178.3,48.7C1178.3,48.7,1178.3,48.7,1178.3,48.7l-0.8,0.3c0,0,0,0,0,0l-5.7,2.2v-2.8
		c0-3.6-7.9-4.6-12.6-4.6c-4.7,0-12.6,1-12.6,4.6v2.8l-9.8-3.8l22.4-8.5l22.5,8.5L1178.3,48.7z"/>
</g>
</svg>
