<?xml version="1.0" encoding="utf-8"?>
<!-- Generator: Adobe Illustrator 18.1.1, SVG Export Plug-In . SVG Version: 6.00 Build 0)  -->
<svg version="1.1" id="Layer_1" xmlns="http://www.w3.org/2000/svg" xmlns:xlink="http://www.w3.org/1999/xlink" x="0px" y="0px"
	 viewBox="0 0 30 30" enable-background="new 0 0 30 30" xml:space="preserve">
<g>
	<circle fill="#7A7A52" cx="15" cy="15" r="15"/>
	<g>
		<g>
			<path fill="#FFFFFF" d="M11.4,22.9c0-0.3-0.2-0.5-0.5-0.5H8.2c-0.3,0-0.5,0.2-0.5,0.5c0,0.3,0.2,0.5,0.5,0.5h2.6
				C11.1,23.4,11.4,23.2,11.4,22.9"/>
			<path fill="#FFFFFF" d="M23.3,22.9c0-0.3-0.2-0.5-0.5-0.5h-2.6c-0.3,0-0.5,0.2-0.5,0.5c0,0.3,0.2,0.5,0.5,0.5h2.6
				C23.1,23.4,23.3,23.2,23.3,22.9"/>
			<path fill="#FFFFFF" d="M26.4,20.3h-0.5c-0.3,0-0.5,0.2-0.5,0.5c0,0.3,0.2,0.5,0.5,0.5h0.5c0.3,0,0.5-0.2,0.5-0.5
				C26.9,20.5,26.7,20.3,26.4,20.3"/>
			<path fill="#FFFFFF" d="M14.5,20.3h-0.5c-0.3,0-0.5,0.2-0.5,0.5c0,0.3,0.2,0.5,0.5,0.5h0.5c0.3,0,0.5-0.2,0.5-0.5
				C15,20.5,14.8,20.3,14.5,20.3"/>
			<path fill="#FFFFFF" d="M3.1,20.3H2.5c-0.3,0-0.5,0.2-0.5,0.5c0,0.3,0.2,0.5,0.5,0.5h0.5c0.3,0,0.5-0.2,0.5-0.5
				C3.6,20.5,3.3,20.3,3.1,20.3"/>
			<path fill="#FFFFFF" d="M11.6,24.2h-1c-0.3,0-0.5,0.2-0.5,0.5c0,0.3,0.2,0.5,0.5,0.5h1c0.3,0,0.5-0.2,0.5-0.5
				C12.1,24.4,11.9,24.2,11.6,24.2"/>
			<path fill="#FFFFFF" d="M23.5,24.2h-1c-0.3,0-0.5,0.2-0.5,0.5c0,0.3,0.2,0.5,0.5,0.5h1c0.3,0,0.5-0.2,0.5-0.5
				C24.1,24.4,23.8,24.2,23.5,24.2"/>
			<path fill="#FFFFFF" d="M22.2,12.3c0.3,0.5,0.6,0.9,1,1.3v1.2h-1V12.3z M20.2,20.3l0.1-0.5h1.3l0.1,0.5H20.2z M18.6,14.9v-1.3
				c0,0,0-0.1,0-0.1c0.4-0.3,0.7-0.7,1-1.2v2.6H18.6z M10.3,12.3c0.3,0.4,0.7,0.8,1,1.2c0,0,0,0.1,0,0.1v1.3h-1L10.3,12.3L10.3,12.3
				z M8.2,20.3l0.1-0.5h1.3l0.1,0.5H8.2z M6.7,14.9v-1.2c0.4-0.4,0.7-0.8,1-1.3v2.5H6.7z M5.6,14.9H5.2c0.2-0.1,0.3-0.2,0.5-0.3
				V14.9z M8.8,18.8h0.5V7.9H8.8V18.8z M13.8,14.9h-1.4v-0.6C12.8,14.5,13.3,14.7,13.8,14.9L13.8,14.9z M17.6,14.2v0.6h-1.4
				C16.6,14.7,17.1,14.5,17.6,14.2L17.6,14.2z M20.7,18.8h0.5V7.9h-0.5V18.8z M24.3,14.6c0.1,0.1,0.3,0.2,0.5,0.3h-0.5V14.6z
				 M28,15.2c0-0.3-0.2-0.5-0.5-0.5c-2.2,0-4.2-2.1-5-4.1c0-0.1-0.1-0.2-0.2-0.2v-3c0-0.3-0.2-0.5-0.5-0.5h-0.3V5.3
				c0-0.3-0.2-0.5-0.5-0.5c-0.3,0-0.5,0.2-0.5,0.5v1.6h-0.3c-0.3,0-0.5,0.2-0.5,0.5v2.9c-0.1,0.1-0.1,0.1-0.2,0.2
				c-0.7,1.7-2.3,3.3-4.5,3.6c-2.2-0.2-3.8-1.9-4.5-3.6c0-0.1-0.1-0.2-0.2-0.2V7.3c0-0.3-0.2-0.5-0.5-0.5H9.5V5.3
				C9.5,5,9.3,4.8,9,4.8C8.7,4.8,8.5,5,8.5,5.3v1.6H8.2C8,6.8,7.7,7.1,7.7,7.3v2.9c-0.1,0.1-0.1,0.1-0.2,0.2c-0.9,2-2.9,4.1-5,4.1
				c-0.3,0-0.5,0.2-0.5,0.5c0,0,0,0.1,0,0.1c0,0,0,0.1,0,0.1c0,0.3,0.2,0.5,0.5,0.5h5.2v2.9c-0.1,0-0.2,0.1-0.2,0.2l-0.3,1.3h-1
				c-0.3,0-0.5,0.2-0.5,0.5c0,0.3,0.2,0.5,0.5,0.5h1h3.6h1c0.3,0,0.5-0.2,0.5-0.5c0-0.3-0.2-0.5-0.5-0.5h-1L10.6,19
				c0-0.1-0.1-0.2-0.2-0.2v-2.9h9.3v2.9c-0.1,0-0.2,0.1-0.2,0.2l-0.3,1.3h-1c-0.3,0-0.5,0.2-0.5,0.5c0,0.3,0.2,0.5,0.5,0.5h1h3.6h1
				c0.3,0,0.5-0.2,0.5-0.5c0-0.3-0.2-0.5-0.5-0.5h-1L22.5,19c0-0.1-0.1-0.2-0.2-0.2v-2.9h5.2c0.3,0,0.5-0.2,0.5-0.5c0,0,0,0,0,0
				C28,15.3,28,15.2,28,15.2L28,15.2z"/>
		</g>
	</g>
</g>
</svg>
