<?xml version="1.0" encoding="utf-8"?>
<!-- Generator: Adobe Illustrator 18.1.1, SVG Export Plug-In . SVG Version: 6.00 Build 0)  -->
<svg version="1.1" id="Layer_1" xmlns="http://www.w3.org/2000/svg" xmlns:xlink="http://www.w3.org/1999/xlink" x="0px" y="0px"
	 viewBox="0 0 30 30" enable-background="new 0 0 30 30" xml:space="preserve">
<g>
	<circle fill="#42210B" cx="15" cy="15" r="15"/>
	<g>
		<g>
			<path fill="#FFFFFF" d="M11.6,5.2c-0.4-0.1-0.8,0.1-0.9,0.5L5.2,23.8c-0.1,0.4,0.1,0.8,0.5,0.9c0.1,0,0.2,0,0.2,0
				c0.3,0,0.6-0.2,0.7-0.5l5.4-18.1C12.2,5.8,12,5.4,11.6,5.2z"/>
			<path fill="#FFFFFF" d="M24.8,23.8L19.3,5.8c-0.1-0.4-0.5-0.6-0.9-0.5c-0.4,0.1-0.6,0.5-0.5,0.9l5.4,18.1
				c0.1,0.3,0.4,0.5,0.7,0.5c0.1,0,0.2,0,0.2,0C24.7,24.6,24.9,24.2,24.8,23.8z"/>
			<path fill="#FFFFFF" d="M15.5,17.2c0-0.3-0.2-0.5-0.5-0.5c-0.3,0-0.5,0.2-0.5,0.5L14,23.1c0,0.1,0,0.3,0.1,0.4
				c0.1,0.1,0.2,0.2,0.4,0.2h0.9c0.1,0,0.3-0.1,0.4-0.2c0.1-0.1,0.2-0.2,0.1-0.4L15.5,17.2z"/>
			<path fill="#FFFFFF" d="M15,10.7c-0.1,0-0.2,0.1-0.2,0.2l-0.5,3.6c0,0.1,0,0.2,0.1,0.2c0,0,0.1,0.1,0.2,0.1h0.9
				c0.1,0,0.1,0,0.2-0.1c0,0,0.1-0.1,0.1-0.2l-0.5-3.6C15.2,10.8,15.1,10.7,15,10.7z"/>
			<path fill="#FFFFFF" d="M14.5,8.9h0.9c0.1,0,0.2,0,0.2-0.1c0-0.1,0.1-0.1,0-0.2l-0.5-1.8c0-0.1-0.1-0.2-0.2-0.2s-0.2,0.1-0.2,0.2
				l-0.5,1.8c0,0.1,0,0.2,0,0.2C14.4,8.9,14.5,8.9,14.5,8.9z"/>
		</g>
	</g>
</g>
</svg>
