<?xml version="1.0" encoding="utf-8"?>
<!-- Generator: Adobe Illustrator 18.1.1, SVG Export Plug-In . SVG Version: 6.00 Build 0)  -->
<svg version="1.1" id="Layer_1" xmlns="http://www.w3.org/2000/svg" xmlns:xlink="http://www.w3.org/1999/xlink" x="0px" y="0px"
	 viewBox="0 0 30 30" enable-background="new 0 0 30 30" xml:space="preserve">
<g>
	<circle fill="#552C18" cx="15" cy="15" r="15"/>
	<path fill="#FFFFFF" stroke="#FFFFFF" stroke-miterlimit="10" d="M22.9,14.5c0-0.3-0.2-0.5-0.5-0.5c-0.1,0-0.2,0-0.3,0
		c-0.6,0-1,0.6-1,0.6c0,0.1-0.1,0.1-0.2,0.3c-0.1-0.2-0.1-0.4-0.2-0.6c-0.2-0.9-0.6-1.7-1.1-2.4c-0.3-0.5-0.9-0.7-1.5-0.8
		c-1-0.2-2.1-0.2-3.1-0.2c-1,0-2.1,0-3.1,0.2c-0.6,0.1-1.1,0.3-1.5,0.8c-0.5,0.7-0.9,1.5-1.1,2.4c0,0.2-0.1,0.4-0.2,0.6
		c-0.1-0.1-0.1-0.2-0.2-0.3c0,0-0.4-0.6-1-0.6c-0.1,0-0.2,0-0.3,0c-0.3,0-0.4,0.2-0.5,0.5c0,0.2,0,0.4,0,0.6c0,0.3,0.2,0.5,0.5,0.5
		c0.3,0,0.6,0,0.9,0c0.1,0,0.2,0,0.3,0c0,0,0,0,0,0c0,0-0.1,0-0.1,0.1c-0.7,0.7-1.1,1.6-1.1,2.6c0,0.6,0.1,1.2,0.1,1.8
		c0,0.5,0.2,0.9,0.4,1.4c0.1,0.2,0.2,0.3,0.4,0.4c0.1,0,0.1,0.1,0.1,0.2c0,0.2,0,0.5,0,0.8c0,0.3,0.2,0.6,0.6,0.6c0.3,0,0.6,0,0.9,0
		c0.4,0,0.6-0.2,0.6-0.6c0-0.2,0-0.4,0-0.6c1.4,0.1,2.8,0.1,4.2,0.1s2.8,0,4.2-0.1c0,0.2,0,0.4,0,0.6c0,0.4,0.2,0.6,0.6,0.6
		c0.3,0,0.6,0,0.9,0c0.3,0,0.6-0.2,0.6-0.6c0-0.2,0-0.5,0-0.8c0-0.1,0-0.1,0.1-0.2c0.2,0,0.3-0.2,0.4-0.4c0.2-0.4,0.3-0.9,0.4-1.4
		c0.1-0.6,0.1-1.2,0.1-1.8c0-1-0.4-1.9-1.1-2.6c0,0-0.1,0-0.1-0.1c0,0,0,0,0,0c0.1,0,0.2,0,0.3,0c0.3,0,0.6,0,0.9,0
		c0.3,0,0.5-0.2,0.5-0.5C22.9,14.9,22.9,14.7,22.9,14.5z M10.1,15c0.2-0.9,0.6-1.8,1.1-2.6c0,0,0-0.1,0.1-0.1l0,0l0,0
		c0,0,0.1,0,0.1-0.1c0.3-0.1,1.2-0.4,3.7-0.4c2.5,0,3.4,0.3,3.7,0.4c0,0,0.1,0,0.1,0.1l0,0l0,0c0,0,0.1,0.1,0.1,0.1
		c0.5,0.8,0.8,1.7,1.1,2.6c0,0.1,0,0.1,0,0.2c-1.7-0.1-3.3-0.2-5-0.2s-3.3,0.1-5,0.2C10.1,15.2,10.1,15.1,10.1,15z M10.4,19
		c-0.6,0-1.1-0.5-1.1-1.1s0.5-1.1,1.1-1.1s1.1,0.5,1.1,1.1C11.5,18.5,11,19,10.4,19z M19.9,19c-0.6,0-1.1-0.5-1.1-1.1
		s0.5-1.1,1.1-1.1c0.6,0,1.1,0.5,1.1,1.1C20.9,18.5,20.4,19,19.9,19z M26.8,23.9h-0.6c-0.2,0-0.4-0.2-0.4-0.4V10.2
		c0-1.5-1.2-2.6-2.6-2.6H7.2c-1.5,0-2.6,1.2-2.6,2.6v13.2c0,0.2-0.2,0.4-0.4,0.4H3.5c-0.2,0-0.4-0.2-0.4-0.4V10.2
		c0-2.3,1.8-4.1,4.1-4.1h15.9c2.3,0,4.1,1.8,4.1,4.1v13.2C27.2,23.7,27,23.9,26.8,23.9z"/>
</g>
</svg>
