<?xml version="1.0" encoding="utf-8"?>
<!-- Generator: Adobe Illustrator 18.1.1, SVG Export Plug-In . SVG Version: 6.00 Build 0)  -->
<svg version="1.1" id="Layer_1" xmlns="http://www.w3.org/2000/svg" xmlns:xlink="http://www.w3.org/1999/xlink" x="0px" y="0px"
	 viewBox="0 0 30 30" enable-background="new 0 0 30 30" xml:space="preserve">
<g>
	<circle fill="#74452F" cx="15" cy="15" r="15"/>
	<path fill="#FFFFFF" stroke="#FFFFFF" stroke-miterlimit="10" d="M9.9,7.3L8.2,7.9V7.2c0-0.6,0.4-1.2,0.9-1.5l5.5-2.1
		c0.2,0,0.4,0,0.6,0l0.2,0.1l5.3,2.1c0.6,0.3,1,0.9,0.9,1.5v0.7l-1.7-0.7l0,0l-5.1-2L9.9,7.3L9.9,7.3z M5,24.5c0-0.6,0.5-1,1-1h0
		h0.8V11c0-0.4,0.2-0.8,0.6-1l7.4-2.9l0,0l0,0c0.1,0,0.2,0,0.3,0l0,0l0,0l1.7,0.6l1.6,0.6l1.8,0.7L22,9.8l0,0l0.7,0.3
		c0.4,0.2,0.6,0.6,0.6,1v12.4H24c0.6,0,1,0.5,1,1s-0.5,1-1,1H6C5.4,25.5,5,25,5,24.5z M8.4,13.2l5.8-2V9.6l-5.8,2.3V13.2z M8.4,16.1
		l5.8-1.4V13l-5.8,1.7V16.1z M8.4,19l5.8-0.8v-1.8l-5.8,1.1V19z M8.4,21.9l5.8-0.2V20l-5.8,0.5V21.9z"/>
</g>
</svg>
