<?xml version="1.0" encoding="utf-8"?>
<!-- Generator: Adobe Illustrator 18.1.1, SVG Export Plug-In . SVG Version: 6.00 Build 0)  -->
<svg version="1.1" id="Layer_1" xmlns="http://www.w3.org/2000/svg" xmlns:xlink="http://www.w3.org/1999/xlink" x="0px" y="0px"
	 viewBox="0 0 30 30" enable-background="new 0 0 30 30" xml:space="preserve">
<g>
	<circle fill="#B34700" cx="15" cy="15" r="15"/>
	<g>
		<path fill="#FFFFFF" d="M23.8,18.9c-0.1-0.1-2.9-1.1-8.5-1.3l1.9-4.7c1.1,0.5,1.8,0.9,1.9,1.1c0,0,0,0.1,0,0.1v0c0,0,0,0,0,0.1
			c0,0,0,0,0,0c0,0,0.1,0,0.1,0.1c0,0,0.1,0,0.1,0l0,0h0h0c0,0,0,0,0,0c0,0,0,0,0,0l0,0c0,0,0,0,0,0c0.2,0,0.9,0.1,1.9,0.5
			c1,0.4,1.6,0.8,1.7,1c0,0.1,0.1,0.3,0.2,0.3c0,0,0.1,0,0.1,0c0.1,0,0.3-0.1,0.3-0.2c1.2-3.1-0.8-6.8-4.5-8.4l0.1-0.4
			c0.1-0.2,0-0.4-0.2-0.4c-0.2-0.1-0.4,0-0.4,0.2l-0.1,0.4c-1.8-0.6-3.7-0.8-5.4-0.3c-1.8,0.5-3.1,1.7-3.8,3.2
			c-0.1,0.2,0,0.4,0.2,0.4c0.1,0.1,0.3,0,0.4-0.1c0.2,0,0.9,0.1,1.9,0.5c1,0.4,1.6,0.8,1.7,1l0,0l0,0l0,0c0,0,0,0.1,0,0.1v0
			c0,0,0,0,0,0.1c0,0,0,0,0,0c0,0,0.1,0,0.1,0.1l0,0l0,0c0,0,0.1,0,0.1,0h0c0,0,0.1,0,0.1,0h0c0,0,0.1,0,0.1-0.1
			c0.2,0,1,0.1,2.1,0.6l-2,5c-0.4,0-0.7,0-1.1,0c-6.7,0-10.1,1.3-10.3,1.3s-0.3,0.3-0.2,0.4c0.1,0.1,0.2,0.2,0.3,0.2
			c0,0,0.1,0,0.1,0c0,0,3.5-1.3,10-1.3c0.3,0,0.6,0,0.8,0l-0.8,1.9v0c-0.3-0.1-0.6-0.1-0.9-0.1c-0.3,0-0.6,0-0.9,0.1
			c-0.2,0.1-0.3,0.2-0.2,0.4c0.1,0.2,0.2,0.3,0.4,0.2c0.2-0.1,0.5-0.1,0.7-0.1c0.6,0,1.1,0.2,1.3,0.4c0.1,0.1,0.2,0.1,0.3,0.1
			c0.1,0,0.2,0,0.2-0.1c0.1-0.1,0.2-0.3,0-0.5c0,0-0.1-0.1-0.1-0.1c0.1,0,0.3-0.1,0.5-0.1c0.4,0,0.6,0.1,0.8,0.2
			c0.1,0.1,0.4,0.1,0.5-0.1c0.1-0.1,0.1-0.4-0.1-0.5c-0.3-0.2-0.7-0.3-1.2-0.3c-0.2,0-0.3,0-0.5,0l0.7-1.7c5.8,0.2,8.7,1.2,8.7,1.2
			c0.2,0.1,0.4,0,0.4-0.2C24,19.2,24,19,23.8,18.9z M17.1,12.2c-0.8-0.3-1.7-0.6-2.4-0.7c1.1-2.5,3-4.1,4.1-3.7
			c1.2,0.5,1.3,2.9,0.4,5.5C18.8,12.9,18,12.5,17.1,12.2z M23.6,15c-0.5-0.4-1.2-0.7-1.7-0.9c-0.6-0.2-1.2-0.4-1.6-0.5
			c-0.1,0-0.2,0-0.3,0c0.7-2,0.8-3.8,0.4-5C22.8,10.1,24.1,12.7,23.6,15z M12.4,10.3c-0.6-0.2-1.2-0.4-1.6-0.5c-0.1,0-0.1,0-0.2,0
			c0.6-1.1,1.7-1.9,3.1-2.3c1.2-0.4,2.5-0.4,3.8-0.1c-1.2,0.6-2.4,1.9-3.2,3.9c-0.1-0.1-0.2-0.1-0.2-0.2
			C13.6,10.8,13,10.5,12.4,10.3z"/>
		<circle fill="#FFFFFF" cx="9.2" cy="20.5" r="0.2"/>
		<circle fill="#FFFFFF" cx="8.7" cy="21.1" r="0.2"/>
		<circle fill="#FFFFFF" cx="7.6" cy="21.1" r="0.2"/>
		<circle fill="#FFFFFF" cx="5.9" cy="21.6" r="0.2"/>
		<circle fill="#FFFFFF" cx="9.5" cy="21.2" r="0.2"/>
		<circle fill="#FFFFFF" cx="17.4" cy="22.9" r="0.2"/>
		<circle fill="#FFFFFF" cx="18.4" cy="22.5" r="0.2"/>
		<circle fill="#FFFFFF" cx="19.5" cy="23.2" r="0.2"/>
		<circle fill="#FFFFFF" cx="18.6" cy="23.2" r="0.2"/>
		<circle fill="#FFFFFF" cx="17.1" cy="22.2" r="0.2"/>
	</g>
</g>
</svg>
