<?xml version="1.0" encoding="utf-8"?>
<!-- Generator: Adobe Illustrator 18.1.1, SVG Export Plug-In . SVG Version: 6.00 Build 0)  -->
<svg version="1.1" id="Layer_1" xmlns="http://www.w3.org/2000/svg" xmlns:xlink="http://www.w3.org/1999/xlink" x="0px" y="0px"
	 viewBox="0 0 30 30" enable-background="new 0 0 30 30" xml:space="preserve">
<g>
	<circle fill="#270562" cx="15" cy="15" r="15"/>
	<g>
		<path fill="#FFFFFF" d="M7.9,19.7c0.3,0,3,0.4,4,0.1l0,0c0.1,0,3.5-0.5,5,0c0.2,0,0.4,0.1,0.7,0.1c0-0.5,0.2-0.7,0.3-1
			c0.1-0.3,0.2-0.5,0.2-0.9c0-0.5-0.1-0.7-0.2-0.9c-0.1-0.3-0.3-0.6-0.3-1.1c0-0.6,0.1-0.9,0.3-1.1c0.1-0.3,0.2-0.5,0.2-0.9
			c0-0.5-0.1-0.7-0.2-0.9c-0.1-0.3-0.3-0.4-0.3-1.1h0.5c0,0.5,0.1,0.7,0.2,0.9c0.1,0.3,0.3,0.6,0.3,1.1s-0.1,0.9-0.3,1.1
			c-0.1,0.3-0.2,0.5-0.2,0.9c0,0.5,0.1,0.7,0.2,0.9c0.1,0.3,0.3,0.6,0.3,1.1s-0.1,0.9-0.3,1.1c-0.1,0.2-0.2,0.4-0.2,0.8
			c0.4,0.1,0.9,0.1,1.4,0.1c0-0.7,0.2-1.1,0.3-1.4c0.1-0.3,0.3-0.6,0.3-1.2c0-0.6-0.1-0.9-0.3-1.2c-0.2-0.3-0.3-0.7-0.3-1.4
			c0-0.7,0.2-1.1,0.3-1.4c0.1-0.3,0.3-0.6,0.3-1.2c0-0.6-0.1-0.9-0.3-1.2c-0.2-0.3-0.3-0.7-0.3-1.4H20c0,0.7,0.1,0.9,0.3,1.2
			c0.2,0.3,0.3,0.7,0.3,1.4s-0.2,1.1-0.3,1.4c-0.1,0.3-0.3,0.6-0.3,1.2c0,0.6,0.1,0.9,0.3,1.2c0.2,0.3,0.3,0.7,0.3,1.4
			s-0.2,1.1-0.3,1.4c-0.1,0.3-0.3,0.6-0.3,1.2c0.2,0,0.5-0.1,0.6-0.1l0,0c0.1,0,0.4-0.1,0.9-0.2c0-0.4,0.2-0.6,0.3-0.8
			c0.1-0.3,0.2-0.5,0.2-0.9s-0.1-0.7-0.2-0.9c-0.1-0.3-0.3-0.6-0.3-1.1c0-0.6,0.1-0.9,0.3-1.1c0.1-0.3,0.2-0.5,0.2-0.9
			c0-0.5-0.1-0.7-0.2-0.9c-0.1-0.3-0.3-0.4-0.3-1.1H22c0,0.5,0.1,0.7,0.2,0.9c0.1,0.3,0.3,0.6,0.3,1.1s-0.1,0.9-0.3,1.1
			c-0.1,0.3-0.2,0.5-0.2,0.9c0,0.5,0.1,0.7,0.2,0.9c0.1,0.3,0.3,0.6,0.3,1.1s-0.1,0.9-0.3,1.1c-0.1,0.2-0.1,0.3-0.2,0.5
			c0.9-0.1,2-0.2,2.7,0V8.4H5.3v11.3C6.1,19.6,7.4,19.6,7.9,19.7z M14,15.5c0.7,0,1.3,0.6,1.4,0.8l0.9-0.6V17l-0.9-0.6
			c-0.2,0.2-0.7,0.8-1.3,0.8c-0.8,0-1.4-0.8-1.4-0.8S13.3,15.5,14,15.5z M8.4,10.6l0.9,0.7c0.1-0.2,0.8-0.9,1.5-0.9
			c0.9,0,1.6,1,1.6,1s-0.7,1-1.6,1c-0.7,0-1.3-0.6-1.5-0.9l-1,0.7V10.6z"/>
		<path fill="#FFFFFF" d="M20.8,20.4c-0.3,0.1-0.7,0.2-1.2,0.2c-1.2,0-2.6-0.3-2.8-0.3l0,0c-1.4-0.5-4.5,0-4.8,0
			c-1.2,0.4-4.1,0-4.2,0l0,0c-0.4-0.1-1.6-0.1-2.5,0v1.4h19.4v-1.5C23.9,19.8,21.7,20.2,20.8,20.4z"/>
	</g>
</g>
</svg>
