<?xml version="1.0" encoding="utf-8"?>
<!-- Generator: Adobe Illustrator 18.1.1, SVG Export Plug-In . SVG Version: 6.00 Build 0)  -->
<svg version="1.1" id="Layer_1" xmlns="http://www.w3.org/2000/svg" xmlns:xlink="http://www.w3.org/1999/xlink" x="0px" y="0px"
	 viewBox="0 0 30 30" enable-background="new 0 0 30 30" xml:space="preserve">
<g>
	<circle fill="#339900" cx="15" cy="15" r="15"/>
	<path fill="#FFFFFF" d="M10.7,15.9c0.7,0,1.4-0.3,1.9-0.7l2.2,2.2v5.4c0,0.1,0.1,0.2,0.2,0.2c0.1,0,0.2-0.1,0.2-0.2v-5.4l2.2-2.2
		c0.5,0.5,1.2,0.7,1.9,0.7c1.6,0,2.9-1.3,2.9-2.9c0-0.7-0.2-1.3-0.6-1.8c0.4-0.5,0.6-1.2,0.6-1.8c0-1.6-1.3-2.9-2.9-2.9
		c-0.5,0-0.9,0.1-1.3,0.3c-0.8-0.8-1.9-1.3-3-1.3c-1.5,0-2.8,0.8-3.6,2c-0.2,0-0.4-0.1-0.6-0.1c-1.3,0-2.4,1.1-2.4,2.4
		c0,0.4,0.1,0.7,0.3,1.1c-0.6,0.6-0.9,1.3-0.9,2.1C7.8,14.6,9.1,15.9,10.7,15.9z M13,14.8c0.3-0.4,0.5-0.8,0.6-1.2
		c0.4,0.1,0.8,0.2,1.2,0.3v2.8L13,14.8z M15.3,13.8c0.4,0,0.8-0.1,1.2-0.3c0.1,0.5,0.3,0.9,0.6,1.2l-1.8,1.8V13.8z M9.3,10.7
		C9.1,10.4,9,10.1,9,9.8c0-1.1,0.9-1.9,1.9-1.9c0.2,0,0.4,0,0.6,0.1c0.1,0,0.2,0,0.3-0.1c0.6-1.2,1.9-1.9,3.2-1.9
		c1.1,0,2.1,0.5,2.8,1.2c0.1,0.1,0.2,0.1,0.3,0C18.5,7,19,6.9,19.4,6.9c1.3,0,2.4,1.1,2.4,2.4c0,0.6-0.2,1.2-0.6,1.7
		c-0.1,0.1-0.1,0.2,0,0.3c0.4,0.5,0.6,1,0.6,1.7c0,1.3-1.1,2.4-2.4,2.4c-1.2,0-2.3-1-2.4-2.2c0-0.1,0-0.1-0.1-0.2c0,0-0.1,0-0.1,0
		c0,0-0.1,0-0.1,0c-0.5,0.2-1,0.3-1.5,0.3c0,0,0,0,0,0c0,0,0,0,0,0c-0.5,0-1-0.1-1.5-0.3c-0.1,0-0.1,0-0.2,0c-0.1,0-0.1,0.1-0.1,0.2
		c-0.1,1.2-1.2,2.2-2.4,2.2c-1.3,0-2.4-1.1-2.4-2.4c0-0.7,0.3-1.4,0.9-1.9C9.3,11,9.3,10.8,9.3,10.7z"/>
</g>
</svg>
