<?xml version="1.0" encoding="utf-8"?>
<!-- Generator: Adobe Illustrator 18.1.1, SVG Export Plug-In . SVG Version: 6.00 Build 0)  -->
<svg version="1.1" id="Layer_1" xmlns="http://www.w3.org/2000/svg" xmlns:xlink="http://www.w3.org/1999/xlink" x="0px" y="0px"
	 viewBox="0 0 30 30" enable-background="new 0 0 30 30" xml:space="preserve">
<g>
	<circle fill="#006600" cx="15" cy="15" r="15"/>
	<g>
		<path fill="#FFFFFF" d="M17,8.6c0.1,0,0.1-0.1,0.1-0.2c0,0-0.1-0.2,0-0.4c0-0.3,0.2-0.5,0.4-0.6c0.1,0,0.1-0.2,0.1-0.3
			C17.5,7,17.4,7,17.3,7c-0.4,0.2-0.6,0.5-0.6,0.9c0,0.1,0,0.1,0,0.1c-0.5-0.2-1.1,0-1.1,0c-0.1,0-0.2,0.1-0.1,0.2
			c0,0.1,0.1,0.2,0.2,0.1c0,0,0.7-0.2,1.1,0.1c0,0,0.1,0,0.1,0C16.9,8.6,16.9,8.6,17,8.6z"/>
		<path fill="#FFFFFF" d="M15.9,7.1c0,0,0.1,0,0.1,0c0,0,0.1,0,0.1,0c0.1,0,0.1-0.1,0.1-0.2c0,0,0-0.1,0-0.3c0-0.2,0.1-0.3,0.3-0.4
			c0.1,0,0.1-0.2,0.1-0.3c0-0.1-0.2-0.1-0.3-0.1C16,6,15.9,6.3,15.8,6.6c-0.4-0.1-0.8,0-0.9,0c-0.1,0-0.2,0.1-0.1,0.2
			C14.9,6.9,15,7,15.1,7C15.1,7,15.6,6.8,15.9,7.1z"/>
		<path fill="#FFFFFF" d="M15.1,5.5c0,0,0.2-0.1,0.4,0c0,0,0.1,0,0.1,0c0,0,0.1,0,0.1,0c0.1,0,0.1-0.1,0.1-0.2c0,0,0-0.1,0-0.1
			c0-0.1,0-0.1,0.1-0.2C16,5,16,4.9,16,4.8c0-0.1-0.2-0.1-0.3-0.1c-0.2,0.1-0.3,0.3-0.3,0.4c-0.2,0-0.4,0-0.4,0
			c-0.1,0-0.2,0.1-0.1,0.2C14.9,5.5,15,5.6,15.1,5.5z"/>
		<path fill="#FFFFFF" d="M7.2,20.1h3.2c0.1,0,0.2-0.1,0.2-0.2c0-0.1-0.1-0.2-0.2-0.2H7.2c-0.1,0-0.2,0.1-0.2,0.2
			C7.1,20.1,7.2,20.1,7.2,20.1z"/>
		<path fill="#FFFFFF" d="M9.5,22H8.3c-0.1,0-0.2,0.1-0.2,0.2c0,0.1,0.1,0.2,0.2,0.2h1.2c0.1,0,0.2-0.1,0.2-0.2
			C9.7,22,9.6,22,9.5,22z"/>
		<path fill="#FFFFFF" d="M13.1,24.5c0,0.1,0.1,0.2,0.2,0.2h3.3c0.1,0,0.2-0.1,0.2-0.2c0-0.1-0.1-0.2-0.2-0.2h-3.3
			C13.1,24.3,13.1,24.4,13.1,24.5z"/>
		<path fill="#FFFFFF" d="M19.6,21.7c0,0.1,0.1,0.2,0.2,0.2h3.2c0.1,0,0.2-0.1,0.2-0.2s-0.1-0.2-0.2-0.2h-3.2
			C19.7,21.5,19.6,21.6,19.6,21.7z"/>
		<path fill="#FFFFFF" d="M14,20.1h2c0.1,0,0.2-0.1,0.2-0.2c0-0.1-0.1-0.2-0.2-0.2h-2c-0.1,0-0.2,0.1-0.2,0.2
			C13.9,20.1,13.9,20.1,14,20.1z"/>
		<path fill="#FFFFFF" d="M12.4,22.5h2c0.1,0,0.2-0.1,0.2-0.2s-0.1-0.2-0.2-0.2h-2c-0.1,0-0.2,0.1-0.2,0.2S12.4,22.5,12.4,22.5z"/>
		<path fill="#FFFFFF" d="M18.7,20.1h2c0.1,0,0.2-0.1,0.2-0.2c0-0.1-0.1-0.2-0.2-0.2h-2c-0.1,0-0.2,0.1-0.2,0.2
			C18.6,20.1,18.7,20.1,18.7,20.1z"/>
		<path fill="#FFFFFF" d="M25.3,10.6c-0.6-1.3-1.4-2.5-2.4-3.6c-1-1-2.2-1.8-3.6-2.4C18,4.1,16.5,3.8,15,3.8c-1.5,0-3,0.3-4.4,0.9
			C9.3,5.2,8.1,6.1,7.1,7.1c-1,1-1.8,2.2-2.4,3.6C4.1,12,3.8,13.5,3.8,15s0.3,3,0.9,4.4c0.6,1.3,1.4,2.5,2.4,3.6s2.2,1.8,3.6,2.4
			c1.4,0.6,2.8,0.9,4.4,0.9c1.5,0,3-0.3,4.4-0.9c1.3-0.6,2.5-1.4,3.6-2.4s1.8-2.2,2.4-3.6c0.6-1.4,0.9-2.8,0.9-4.4
			C26.2,13.5,25.9,12,25.3,10.6z M15,25.9c-4.9,0-9-3.2-10.4-7.6l20.8,0C24,22.7,19.9,25.9,15,25.9z M9.1,13.1C9,13,9,13,8.9,13.1
			l-0.6,0.5v-0.7c0-0.1-0.1-0.1-0.1-0.1c-0.1,0-0.1,0.1-0.1,0.1v1.2l-0.6-0.4c-0.1,0-0.1,0-0.2,0c0,0.1,0,0.1,0,0.2L8,14.4v0.4H7.2
			l-0.9-1.6l0.9-1.6H9l0.9,1.6L9,14.7H8.3v-0.9L9,13.3C9.1,13.2,9.1,13.1,9.1,13.1z M15.1,12c0-0.1-0.1-0.1-0.2,0l-0.8,0.6v-0.8
			c0-0.1-0.1-0.2-0.2-0.2c-0.1,0-0.2,0.1-0.2,0.2v1.5l-0.7-0.5c-0.1,0-0.2,0-0.2,0c0,0.1,0,0.2,0,0.2l0.9,0.7V14h-1l-1.1-2l1.1-2
			h2.3l1.1,2l-1.1,2h-0.9v-1.1l1-0.7C15.1,12.1,15.1,12,15.1,12z M20.2,17.9L20.2,17.9L18,18v-1.6h5V18l-2.4,0v0H20.2z M23.3,17.9
			v-1.6h0.8c0.1,0,0.2-0.1,0.2-0.2s-0.1-0.2-0.2-0.2h-7.2c-0.1,0-0.2,0.1-0.2,0.2s0.1,0.2,0.2,0.2h0.8V18l-3.6,0v-3.6h1
			c0.1,0,0.1,0,0.1-0.1l1.2-2.1c0,0,0-0.1,0-0.2l-1.2-2.1c0,0-0.1-0.1-0.1-0.1h-2.4c-0.1,0-0.1,0-0.1,0.1L11.3,12c0,0,0,0.1,0,0.2
			l1.2,2.1c0,0,0.1,0.1,0.1,0.1h1.1V18l-5.5,0v-3h0.8c0,0,0.1,0,0.1-0.1l1-1.7c0,0,0-0.1,0-0.1l-1-1.7c0,0-0.1-0.1-0.1-0.1h-2
			c0,0-0.1,0-0.1,0.1l-1,1.7c0,0,0,0.1,0,0.1l1,1.7c0,0,0.1,0.1,0.1,0.1H8v3l-3.5,0C4.3,17,4.1,16,4.1,15C4.1,9,9,4.1,15,4.1
			S25.9,9,25.9,15c0,1-0.1,2-0.4,2.9L23.3,17.9z"/>
		<path fill="#FFFFFF" d="M24.1,15.3h-7.2c-0.1,0-0.2,0.1-0.2,0.2c0,0.1,0.1,0.2,0.2,0.2h7.2c0.1,0,0.2-0.1,0.2-0.2
			C24.2,15.3,24.2,15.3,24.1,15.3z"/>
		<path fill="#FFFFFF" d="M24.1,14.5h-7.2c-0.1,0-0.2,0.1-0.2,0.2c0,0.1,0.1,0.2,0.2,0.2h7.2c0.1,0,0.2-0.1,0.2-0.2
			C24.2,14.5,24.2,14.5,24.1,14.5z"/>
	</g>
</g>
</svg>
