<?xml version="1.0" encoding="utf-8"?>
<!-- Generator: Adobe Illustrator 18.1.1, SVG Export Plug-In . SVG Version: 6.00 Build 0)  -->
<svg version="1.1" id="Layer_1" xmlns="http://www.w3.org/2000/svg" xmlns:xlink="http://www.w3.org/1999/xlink" x="0px" y="0px"
	 viewBox="0 0 30 30" enable-background="new 0 0 30 30" xml:space="preserve">
<g>
	<circle fill="#66CC00" cx="15" cy="15" r="15"/>
	<path fill="#FFFFFF" d="M23.4,7.3c-0.3,0.1-0.6,0.1-1,0.1c-1.4,0-2.9-0.9-4.3-1.7c-1.5-0.9-3-1.7-4.5-1.7c-0.4,0-0.7,0.1-1.1,0.2
		l-0.1,0.1v3.3v3.6v12.6c-1.2,0.1-2.2,0.6-2.2,1.3c0,0.7,1.1,1.3,2.4,1.3S15,25.7,15,25c0-0.7-1-1.2-2.2-1.3V10.7
		c1.6-1.4,3.1-1.5,4.8-1.5h0.8c1.7,0,3.4-0.1,5.1-1.6L24.3,7L23.4,7.3z M14.6,25c0,0.4-0.8,0.9-2,0.9s-2-0.5-2-0.9
		c0-0.4,0.7-0.8,1.8-0.9v0.6c0,0.1,0.1,0.2,0.2,0.2s0.2-0.1,0.2-0.2v-0.6C13.9,24.1,14.6,24.6,14.6,25z M18.4,8.9h-0.8
		c-1.6,0-3.2,0.1-4.8,1.4V7.5v-3c0.2-0.1,0.5-0.1,0.8-0.1c1.4,0,2.9,0.9,4.3,1.7c1.5,0.9,3,1.7,4.5,1.7c0.1,0,0.2,0,0.2,0
		C21.3,8.8,19.9,8.9,18.4,8.9z"/>
</g>
</svg>
