<?xml version="1.0" encoding="utf-8"?>
<!-- Generator: Adobe Illustrator 18.1.1, SVG Export Plug-In . SVG Version: 6.00 Build 0)  -->
<svg version="1.1" id="Layer_1" xmlns="http://www.w3.org/2000/svg" xmlns:xlink="http://www.w3.org/1999/xlink" x="0px" y="0px"
	 viewBox="0 0 30 30" enable-background="new 0 0 30 30" xml:space="preserve">
<g>
	<circle fill="#009966" cx="15" cy="15" r="15"/>
	<g>
		<g>
			<path fill="#FFFFFF" d="M25.9,11.7H10.3v-0.9h0.5c0.3,0,0.5-0.2,0.5-0.5c0-0.2-0.1-0.3-0.2-0.4L7.8,6.2C7.6,6,7.3,6,7.1,6.2
				L3.8,9.9c-0.1,0.1-0.2,0.3-0.1,0.5c0.1,0.2,0.2,0.3,0.4,0.3h0.5v13.7c0,0.3,0.2,0.5,0.5,0.5s0.5-0.2,0.5-0.5V24h3.8v0.5
				c0,0.3,0.2,0.5,0.5,0.5c0.3,0,0.5-0.2,0.5-0.5V12.6h2.8v4.8c-0.5,0.2-0.9,0.7-0.9,1.3c0,0.8,0.6,1.4,1.4,1.4
				c0.8,0,1.4-0.6,1.4-1.4c0-0.6-0.4-1.1-0.9-1.3v-4.8h3.8v3.9c-0.5,0.2-0.9,0.7-0.9,1.3c0,0.8,0.6,1.4,1.4,1.4
				c0.8,0,1.4-0.6,1.4-1.4c0-0.6-0.4-1.1-0.9-1.3v-3.9h2.8v11.8c0,0.3,0.2,0.5,0.5,0.5c0.3,0,0.5-0.2,0.5-0.5V12.6h1.9v1
				C24.2,13.8,24,14,24,14.3c0,0.3,0.2,0.5,0.5,0.6v1.4c-0.3,0.1-0.5,0.3-0.5,0.6c0,0.3,0.2,0.5,0.5,0.6v1.4
				C24.2,19,24,19.2,24,19.5s0.2,0.5,0.5,0.6v1.4c-0.3,0.1-0.5,0.3-0.5,0.6s0.2,0.5,0.5,0.6v0.8c0,0.3,0.2,0.5,0.5,0.5
				c0.3,0,0.5-0.2,0.5-0.5v-0.8c0.3-0.1,0.5-0.3,0.5-0.6s-0.2-0.5-0.5-0.6v-1.4c0.3-0.1,0.5-0.3,0.5-0.6s-0.2-0.5-0.5-0.6v-1.4
				c0.3-0.1,0.5-0.3,0.5-0.6c0-0.3-0.2-0.5-0.5-0.6v-1.4c0.3-0.1,0.5-0.3,0.5-0.6s-0.2-0.5-0.5-0.6v-1h0.5c0.3,0,0.5-0.2,0.5-0.5
				C26.3,11.9,26.1,11.7,25.9,11.7z M9.3,23H5.5v-1.9h3.8V23z M9.3,20.2H5.5v-1.9h3.8V20.2z M9.3,17.3H5.5v-1.9h3.8V17.3z M9.3,14.5
				H5.5v-3.8h3.8V14.5z M13.6,19.2c-0.3,0-0.5-0.2-0.5-0.5s0.2-0.5,0.5-0.5c0.3,0,0.5,0.2,0.5,0.5S13.8,19.2,13.6,19.2z M18.3,18.3
				c-0.3,0-0.5-0.2-0.5-0.5c0-0.3,0.2-0.5,0.5-0.5c0.3,0,0.5,0.2,0.5,0.5C18.8,18.1,18.6,18.3,18.3,18.3z"/>
		</g>
	</g>
</g>
</svg>
