<?xml version="1.0" encoding="utf-8"?>
<!-- Generator: Adobe Illustrator 18.1.1, SVG Export Plug-In . SVG Version: 6.00 Build 0)  -->
<svg version="1.1" id="Layer_1" xmlns="http://www.w3.org/2000/svg" xmlns:xlink="http://www.w3.org/1999/xlink" x="0px" y="0px"
	 viewBox="0 0 30 30" enable-background="new 0 0 30 30" xml:space="preserve">
<g>
	<circle fill="#477CFF" cx="15" cy="15" r="15"/>
	<g>
		<path fill="#FFFFFF" stroke="#FFFFFF" stroke-miterlimit="10" d="M4.8,24.6c0.8,0,1.1,0.2,1.6,0.5c0.5,0.3,1.1,0.7,2.2,0.7
			s1.7-0.4,2.2-0.7c0.5-0.3,0.8-0.5,1.6-0.5c0.8,0,1.1,0.2,1.6,0.5c0.5,0.3,1.1,0.7,2.2,0.7c1.1,0,1.7-0.4,2.2-0.7
			c0.1-0.1,0.3-0.2,0.4-0.2c0.3-0.2,0.7-0.3,1.2-0.3c0.7,0,1.1,0.2,1.5,0.5c0,0,0.1,0,0.1,0.1c0.5,0.3,1.1,0.7,2.2,0.7
			c0.3,0,0.6-0.3,0.6-0.6s-0.3-0.6-0.6-0.6c-0.8,0-1.1-0.2-1.6-0.5c-0.5-0.3-1.1-0.7-2.2-0.7s-1.7,0.4-2.2,0.7
			c-0.5,0.3-0.8,0.5-1.6,0.5s-1.1-0.2-1.6-0.5c-0.5-0.3-1.1-0.7-2.2-0.7c-1.1,0-1.7,0.4-2.2,0.7c-0.1,0.1-0.3,0.2-0.4,0.2
			c-0.3,0.2-0.7,0.3-1.2,0.3c-0.7,0-1.1-0.2-1.5-0.5c0,0-0.1,0-0.1-0.1c-0.5-0.3-1.1-0.7-2.2-0.7c-0.3,0-0.6,0.3-0.6,0.6
			C4.2,24.3,4.5,24.6,4.8,24.6z"/>
		<path fill="#FFFFFF" stroke="#FFFFFF" stroke-miterlimit="10" d="M12.5,19.8c-1.1,0-1.7,0.4-2.2,0.7c-0.1,0.1-0.3,0.2-0.4,0.2
			C9.6,20.9,9.2,21,8.7,21c-0.7,0-1.1-0.2-1.5-0.5c0,0-0.1,0-0.1-0.1c-0.5-0.3-1.1-0.7-2.2-0.7c-0.3,0-0.6,0.3-0.6,0.6
			c0,0.3,0.3,0.6,0.6,0.6c0.8,0,1.1,0.2,1.6,0.5c0.5,0.3,1.1,0.7,2.2,0.7s1.7-0.4,2.2-0.7c0.5-0.3,0.8-0.5,1.6-0.5
			c0.8,0,1.1,0.2,1.6,0.5c0.5,0.3,1.1,0.7,2.2,0.7s1.7-0.4,2.2-0.7c0.1-0.1,0.3-0.2,0.4-0.2c0.3-0.2,0.7-0.3,1.2-0.3
			c0.7,0,1.1,0.2,1.5,0.5c0,0,0.1,0,0.1,0.1c0.5,0.3,1.1,0.7,2.2,0.7c0.3,0,0.6-0.3,0.6-0.6S24.4,21,24.1,21c-0.8,0-1.1-0.2-1.6-0.5
			c-0.2-0.1-0.5-0.3-0.8-0.4v-7.5h2.4c0.3,0,0.6-0.3,0.6-0.6c0-0.3-0.3-0.6-0.6-0.6h-2.4V8.7c0-1.5-0.9-3.3-2.1-4.1
			c-0.9-0.6-1.5-0.4-1.8-0.2c-0.6,0.3-0.9,1-0.9,1.9v3.3c0,0.3,0.3,0.6,0.6,0.6c0.3,0,0.6-0.3,0.6-0.6V6.3c0-0.5,0.2-0.8,0.3-0.9
			c0.1-0.1,0.3,0,0.6,0.2c0.8,0.6,1.5,2,1.5,3.1v2.7h-6V8.7c0-1.5-0.9-3.3-2.1-4.1c-0.9-0.6-1.5-0.4-1.8-0.2c-0.6,0.3-0.9,1-0.9,1.9
			v3.3c0,0.3,0.3,0.6,0.6,0.6c0.3,0,0.6-0.3,0.6-0.6V6.3c0-0.5,0.2-0.8,0.3-0.9c0.1-0.1,0.3,0,0.6,0.2c0.8,0.6,1.5,2,1.5,3.1v2.7
			H4.8c-0.3,0-0.6,0.3-0.6,0.6c0,0.3,0.3,0.6,0.6,0.6h8.4v7.3C13,19.8,12.8,19.8,12.5,19.8z M14.5,12.6h6v1.8h-6V12.6z M14.5,15.6h6
			v1.8h-6V15.6z M14.5,18.6h6v1.2c-0.1,0-0.2,0-0.2,0c-1.1,0-1.7,0.4-2.2,0.7c-0.5,0.3-0.8,0.5-1.6,0.5c-0.8,0-1.1-0.2-1.6-0.5
			c-0.1-0.1-0.2-0.1-0.3-0.2L14.5,18.6L14.5,18.6z"/>
	</g>
</g>
</svg>
