<?xml version="1.0" encoding="utf-8"?>
<!-- Generator: Adobe Illustrator 18.1.1, SVG Export Plug-In . SVG Version: 6.00 Build 0)  -->
<svg version="1.1" id="Layer_1" xmlns="http://www.w3.org/2000/svg" xmlns:xlink="http://www.w3.org/1999/xlink" x="0px" y="0px"
	 viewBox="0 0 30 30" enable-background="new 0 0 30 30" xml:space="preserve">
<g>
	<circle fill="#5C5C8A" cx="15" cy="15" r="15"/>
	<path fill="#FFFFFF" stroke="#FFFFFF" stroke-miterlimit="10" d="M11.8,10c0,0.2-0.2,0.4-0.4,0.4c-0.2,0-0.4-0.2-0.4-0.4
		c0-0.2,0.2-0.4,0.4-0.4C11.6,9.5,11.8,9.7,11.8,10z M13.3,9.5c-0.2,0-0.4,0.2-0.4,0.4c0,0.2,0.2,0.4,0.4,0.4s0.4-0.2,0.4-0.4
		C13.7,9.7,13.5,9.5,13.3,9.5z M15.5,9.5C15.2,9.5,15,9.7,15,10c0,0.2,0.2,0.4,0.4,0.4s0.4-0.2,0.4-0.4C15.9,9.7,15.7,9.5,15.5,9.5z
		 M11.3,11.3c-0.2,0-0.4,0.2-0.4,0.4c0,0.2,0.2,0.4,0.4,0.4s0.4-0.2,0.4-0.4C11.8,11.5,11.6,11.3,11.3,11.3z M13.3,11.3
		c-0.2,0-0.4,0.2-0.4,0.4c0,0.2,0.2,0.4,0.4,0.4s0.4-0.2,0.4-0.4C13.7,11.5,13.5,11.3,13.3,11.3z M15.5,11.3c-0.2,0-0.4,0.2-0.4,0.4
		c0,0.2,0.2,0.4,0.4,0.4s0.4-0.2,0.4-0.4C15.9,11.5,15.7,11.3,15.5,11.3z M11.3,13c-0.2,0-0.4,0.2-0.4,0.4c0,0.2,0.2,0.4,0.4,0.4
		s0.4-0.2,0.4-0.4C11.8,13.2,11.6,13,11.3,13z M13.3,13c-0.2,0-0.4,0.2-0.4,0.4c0,0.2,0.2,0.4,0.4,0.4s0.4-0.2,0.4-0.4
		C13.7,13.2,13.5,13,13.3,13z M15.5,13c-0.2,0-0.4,0.2-0.4,0.4c0,0.2,0.2,0.4,0.4,0.4s0.4-0.2,0.4-0.4C15.9,13.2,15.7,13,15.5,13z
		 M11.3,14.8c-0.2,0-0.4,0.2-0.4,0.4s0.2,0.4,0.4,0.4s0.4-0.2,0.4-0.4S11.6,14.8,11.3,14.8z M13.3,14.8c-0.2,0-0.4,0.2-0.4,0.4
		s0.2,0.4,0.4,0.4s0.4-0.2,0.4-0.4S13.5,14.8,13.3,14.8z M15.5,14.8c-0.2,0-0.4,0.2-0.4,0.4s0.2,0.4,0.4,0.4s0.4-0.2,0.4-0.4
		S15.7,14.8,15.5,14.8z M11.3,16.5c-0.2,0-0.4,0.2-0.4,0.4c0,0.2,0.2,0.4,0.4,0.4s0.4-0.2,0.4-0.4C11.8,16.7,11.6,16.5,11.3,16.5z
		 M13.3,16.5c-0.2,0-0.4,0.2-0.4,0.4c0,0.2,0.2,0.4,0.4,0.4s0.4-0.2,0.4-0.4C13.7,16.7,13.5,16.5,13.3,16.5z M15.5,16.5
		c-0.2,0-0.4,0.2-0.4,0.4c0,0.2,0.2,0.4,0.4,0.4s0.4-0.2,0.4-0.4C15.9,16.7,15.7,16.5,15.5,16.5z M11.3,18.3c-0.2,0-0.4,0.2-0.4,0.4
		c0,0.2,0.2,0.4,0.4,0.4s0.4-0.2,0.4-0.4C11.8,18.5,11.6,18.3,11.3,18.3z M13.3,18.3c-0.2,0-0.4,0.2-0.4,0.4c0,0.2,0.2,0.4,0.4,0.4
		s0.4-0.2,0.4-0.4C13.7,18.5,13.5,18.3,13.3,18.3z M15.5,18.3c-0.2,0-0.4,0.2-0.4,0.4c0,0.2,0.2,0.4,0.4,0.4s0.4-0.2,0.4-0.4
		C15.9,18.5,15.7,18.3,15.5,18.3z M11.3,20c-0.2,0-0.4,0.2-0.4,0.4c0,0.2,0.2,0.4,0.4,0.4s0.4-0.2,0.4-0.4
		C11.8,20.2,11.6,20,11.3,20z M13.3,20c-0.2,0-0.4,0.2-0.4,0.4c0,0.2,0.2,0.4,0.4,0.4s0.4-0.2,0.4-0.4C13.7,20.2,13.5,20,13.3,20z
		 M15.5,20c-0.2,0-0.4,0.2-0.4,0.4c0,0.2,0.2,0.4,0.4,0.4s0.4-0.2,0.4-0.4C15.9,20.2,15.7,20,15.5,20z M11.3,21.8
		c-0.2,0-0.4,0.2-0.4,0.4c0,0.2,0.2,0.4,0.4,0.4s0.4-0.2,0.4-0.4C11.8,22,11.6,21.8,11.3,21.8z M13.3,21.8c-0.2,0-0.4,0.2-0.4,0.4
		c0,0.2,0.2,0.4,0.4,0.4s0.4-0.2,0.4-0.4C13.7,22,13.5,21.8,13.3,21.8z M15.5,21.8c-0.2,0-0.4,0.2-0.4,0.4c0,0.2,0.2,0.4,0.4,0.4
		s0.4-0.2,0.4-0.4C15.9,22,15.7,21.8,15.5,21.8z M19.8,9.5c-0.2,0-0.4,0.2-0.4,0.4c0,0.2,0.2,0.4,0.4,0.4c0.2,0,0.4-0.2,0.4-0.4
		C20.3,9.7,20.1,9.5,19.8,9.5z M19.8,11.3c-0.2,0-0.4,0.2-0.4,0.4c0,0.2,0.2,0.4,0.4,0.4c0.2,0,0.4-0.2,0.4-0.4
		C20.3,11.5,20.1,11.3,19.8,11.3z M19.8,13c-0.2,0-0.4,0.2-0.4,0.4c0,0.2,0.2,0.4,0.4,0.4c0.2,0,0.4-0.2,0.4-0.4
		C20.3,13.2,20.1,13,19.8,13z M19.8,14.8c-0.2,0-0.4,0.2-0.4,0.4s0.2,0.4,0.4,0.4c0.2,0,0.4-0.2,0.4-0.4S20.1,14.8,19.8,14.8z
		 M19.8,16.5c-0.2,0-0.4,0.2-0.4,0.4c0,0.2,0.2,0.4,0.4,0.4c0.2,0,0.4-0.2,0.4-0.4C20.3,16.7,20.1,16.5,19.8,16.5z M19.8,18.3
		c-0.2,0-0.4,0.2-0.4,0.4c0,0.2,0.2,0.4,0.4,0.4c0.2,0,0.4-0.2,0.4-0.4C20.3,18.5,20.1,18.3,19.8,18.3z M19.8,20
		c-0.2,0-0.4,0.2-0.4,0.4c0,0.2,0.2,0.4,0.4,0.4c0.2,0,0.4-0.2,0.4-0.4C20.3,20.2,20.1,20,19.8,20z M19.8,21.8
		c-0.2,0-0.4,0.2-0.4,0.4c0,0.2,0.2,0.4,0.4,0.4c0.2,0,0.4-0.2,0.4-0.4C20.3,22,20.1,21.8,19.8,21.8z M25.7,24.4
		c0,0.2-0.2,0.4-0.4,0.4h-3.4h-4.1h-0.3H9.3H6.5c-0.2,0-0.4-0.2-0.4-0.4c0-0.2,0.2-0.4,0.4-0.4h2.2V8.4c0-0.2,0.2-0.5,0.4-0.5
		l8.3-2.7c0,0,0.1,0,0.2,0c0.3,0,0.5,0.2,0.5,0.6v0.6l4.1,2.2c0.2,0.1,0.3,0.3,0.3,0.5V24h2.8C25.5,24,25.7,24.2,25.7,24.4z M9.6,24
		h7.6V6.8V6.2L9.6,8.6V24z M21.6,24V9.3l-3.5-1.9V24H21.6z"/>
</g>
</svg>
