<?xml version="1.0" encoding="utf-8"?>
<!-- Generator: Adobe Illustrator 18.1.1, SVG Export Plug-In . SVG Version: 6.00 Build 0)  -->
<svg version="1.1" id="Layer_1" xmlns="http://www.w3.org/2000/svg" xmlns:xlink="http://www.w3.org/1999/xlink" x="0px" y="0px"
	 viewBox="0 0 30.7 30.3" enable-background="new 0 0 30.7 30.3" xml:space="preserve">
<circle fill="#774A8E" cx="15.4" cy="15.2" r="15"/>
<g>
	<path fill="none" stroke="#FFFFFF" stroke-width="12" stroke-linejoin="round" stroke-miterlimit="10" d="M24.7,6v18.3h-2.6
		c0,0,0-4.8,0-6.9c0-4.1-1.8-7-6.8-7h0.1c-5,0-6.8,3-6.8,7c0,2.1,0,6.9,0,6.9H6V6H24.7z"/>
	<path fill="none" stroke="#FFFFFF" stroke-width="12" stroke-linejoin="round" stroke-miterlimit="10" d="M22,23.2h-1.9
		c0,0,0-3.4,0-4.9c0-2.9-1.2-5-4.8-5h0.1c-3.6,0-4.8,2.1-4.8,5c0,1.5,0,4.9,0,4.9H8.7"/>
	<path fill="none" stroke="#FFFFFF" stroke-width="12" stroke-linejoin="round" stroke-miterlimit="10" d="M20.1,22.2h-1.5
		c0,0,0-2.3,0-3.3c0-1.9-0.8-3.4-3.2-3.4h0c-2.4,0-3.2,1.4-3.2,3.4c0,1,0,3.3,0,3.3h-1.5"/>
</g>
<circle fill="#774A8E" cx="15.4" cy="15.2" r="15"/>
<g>
	<path fill="none" stroke="#FFFFFF" stroke-linejoin="round" stroke-miterlimit="10" d="M24.7,6.4v18.3h-2.6c0,0,0-4.8,0-6.9
		c0-4.1-1.8-7-6.8-7h0.1c-5,0-6.8,3-6.8,7c0,2.1,0,6.9,0,6.9H6V6.4H24.7z"/>
	<path fill="none" stroke="#FFFFFF" stroke-linejoin="round" stroke-miterlimit="10" d="M22,23.6h-1.9c0,0,0-3.4,0-4.9
		c0-2.9-1.2-5-4.8-5h0.1c-3.6,0-4.8,2.1-4.8,5c0,1.5,0,4.9,0,4.9H8.7"/>
	<path fill="none" stroke="#FFFFFF" stroke-linejoin="round" stroke-miterlimit="10" d="M20.1,22.6h-1.5c0,0,0-2.3,0-3.3
		c0-1.9-0.8-3.4-3.2-3.4h0c-2.4,0-3.2,1.4-3.2,3.4c0,1,0,3.3,0,3.3h-1.5"/>
</g>
</svg>
