<?xml version="1.0" encoding="utf-8"?>
<!-- Generator: Adobe Illustrator 18.1.1, SVG Export Plug-In . SVG Version: 6.00 Build 0)  -->
<svg version="1.1" id="Layer_1" xmlns="http://www.w3.org/2000/svg" xmlns:xlink="http://www.w3.org/1999/xlink" x="0px" y="0px"
	 viewBox="0 0 30 30" enable-background="new 0 0 30 30" xml:space="preserve">
<g>
	<circle fill="#BE4D6B" cx="15" cy="15" r="15"/>
	<g>
		<path fill="#FFFFFF" stroke="#FFFFFF" stroke-miterlimit="10" d="M8.2,20.7H6.4c-0.1,0-0.2-0.1-0.2-0.2v-9.2
			c0-0.1,0.1-0.2,0.2-0.2h1.8c0.1,0,0.2,0.1,0.2,0.2v9.2C8.5,20.6,8.4,20.7,8.2,20.7z"/>
		<path fill="#FFFFFF" stroke="#FFFFFF" stroke-miterlimit="10" d="M13.6,20.7h-1.8c-0.1,0-0.2-0.1-0.2-0.2v-9.2
			c0-0.1,0.1-0.2,0.2-0.2h1.8c0.1,0,0.2,0.1,0.2,0.2v9.2C13.8,20.6,13.7,20.7,13.6,20.7z"/>
		<path fill="#FFFFFF" stroke="#FFFFFF" stroke-miterlimit="10" d="M19,20.7h-1.8c-0.1,0-0.2-0.1-0.2-0.2v-9.2
			c0-0.1,0.1-0.2,0.2-0.2H19c0.1,0,0.2,0.1,0.2,0.2v9.2C19.2,20.6,19.1,20.7,19,20.7z"/>
		<path fill="#FFFFFF" stroke="#FFFFFF" stroke-miterlimit="10" d="M24.3,20.7h-1.8c-0.1,0-0.2-0.1-0.2-0.2v-9.2
			c0-0.1,0.1-0.2,0.2-0.2h1.8c0.1,0,0.2,0.1,0.2,0.2v9.2C24.6,20.6,24.5,20.7,24.3,20.7z"/>
		<g>
			<path fill="#FFFFFF" stroke="#FFFFFF" stroke-miterlimit="10" d="M25.1,7.5V7.3c0-0.1,0-0.1-0.1-0.1l-9.7-3.8L5.5,7.2
				c0,0-0.1,0.1-0.1,0.1v0.2c0,0.1-0.1,0.1-0.1,0.1H5c-0.1,0-0.1,0.1-0.1,0.1v2.2h20.8V7.7c0-0.1-0.1-0.1-0.1-0.1h-0.4
				C25.1,7.6,25.1,7.5,25.1,7.5z"/>
			<rect x="4.8" y="21.9" fill="#FFFFFF" stroke="#FFFFFF" stroke-miterlimit="10" width="20.8" height="2.3"/>
		</g>
	</g>
</g>
</svg>
