<?xml version="1.0" encoding="utf-8"?>
<!-- Generator: Adobe Illustrator 18.1.1, SVG Export Plug-In . SVG Version: 6.00 Build 0)  -->
<svg version="1.1" id="Layer_1" xmlns="http://www.w3.org/2000/svg" xmlns:xlink="http://www.w3.org/1999/xlink" x="0px" y="0px"
	 viewBox="0 0 30 30" enable-background="new 0 0 30 30" xml:space="preserve">
<g>
	<circle fill="#8A5563" cx="15" cy="15" r="15"/>
	<g>
		<path fill="#FFFFFF" d="M15,12.8c-2.9,0-5.1,0.7-5.1,1.5v2.5c1.2-0.5,3.1-0.7,3.9-0.7c0.4,0,0.8,0,1.2,0c0.5,0,0.9,0,1.2,0
			c0.8,0,2.6,0.2,3.9,0.7v-2.5C20.1,13.5,17.9,12.8,15,12.8z"/>
		<path fill="#FFFFFF" d="M23.4,17.7c-0.3,0-0.5,0.2-0.5,0.5c0,0.3,0.2,0.5,0.5,0.5c0.3,0,0.5-0.2,0.5-0.5
			C23.9,17.9,23.6,17.7,23.4,17.7z"/>
		<path fill="#FFFFFF" d="M23.4,19.1c-0.2,0-0.4-0.1-0.5-0.1l-0.1,0.5H24L23.8,19C23.7,19.1,23.5,19.1,23.4,19.1z"/>
		<path fill="#FFFFFF" d="M5.1,13.9l4.3,1.7v-1.2c0-1.6,3.5-2,5.6-2c2.1,0,5.6,0.4,5.6,2v1.2l2.5-1c0,0,0,0,0,0l0.4-0.1l0,0l1.5-0.6
			L15,10.2L5.1,13.9z"/>
		<path fill="#FFFFFF" d="M25.6,13.7l-10.6-4c-0.1,0-0.1,0-0.2,0l-10.6,4c-0.1,0-0.2,0.1-0.2,0.2c0,0.1,0.1,0.2,0.2,0.2l5.1,2v1.1
			c0,0.1,0,0.2,0.1,0.2s0.2,0,0.2,0c0.8-0.4,2.2-0.7,4-0.8c0.4,0,0.8,0,1.2,0c0.4,0,0.8,0,1.2,0c0.8,0,2.9,0.2,4,0.8
			c0,0,0.1,0,0.1,0c0,0,0.1,0,0.1,0c0.1,0,0.1-0.1,0.1-0.2v-1.1l2.4-0.9v2.1c-0.3,0.2-0.5,0.5-0.5,0.9c0,0.1,0,0.3,0.1,0.4l-0.3,1.1
			c0,0.1,0,0.1,0,0.2c0,0.1,0.1,0.1,0.2,0.1h1.8c0.1,0,0.1,0,0.2-0.1c0-0.1,0.1-0.1,0-0.2l-0.3-1.1c0.1-0.1,0.1-0.3,0.1-0.4
			c0-0.4-0.2-0.7-0.5-0.9v-2.4l1.9-0.7c0.1,0,0.2-0.1,0.2-0.2S25.7,13.7,25.6,13.7z M20.1,16.8c-1.2-0.5-3.1-0.7-3.9-0.7
			c-0.4,0-0.8,0-1.2,0c-0.4,0-0.9,0-1.2,0c-0.8,0-2.6,0.2-3.9,0.7v-2.5c0-0.9,2.2-1.5,5.1-1.5c2.9,0,5.1,0.7,5.1,1.5L20.1,16.8
			L20.1,16.8z M22.7,19.5l0.1-0.5c0.1,0.1,0.3,0.1,0.5,0.1c0.2,0,0.3-0.1,0.5-0.1l0.1,0.5L22.7,19.5L22.7,19.5z M23.9,18.2
			c0,0.3-0.2,0.5-0.5,0.5s-0.5-0.2-0.5-0.5c0-0.3,0.2-0.5,0.5-0.5C23.6,17.7,23.9,17.9,23.9,18.2z M23.4,14.5
			C23.4,14.5,23.4,14.5,23.4,14.5l-0.4,0.1c0,0,0,0,0,0l-2.5,1v-1.2c0-1.6-3.5-2-5.6-2c-2.1,0-5.6,0.4-5.6,2v1.2l-4.3-1.7l9.9-3.8
			l9.9,3.8L23.4,14.5z"/>
	</g>
</g>
</svg>
