<?xml version="1.0" encoding="utf-8"?>
<!-- Generator: Adobe Illustrator 18.1.1, SVG Export Plug-In . SVG Version: 6.00 Build 0)  -->
<svg version="1.1" id="Layer_1" xmlns="http://www.w3.org/2000/svg" xmlns:xlink="http://www.w3.org/1999/xlink" x="0px" y="0px"
	 viewBox="0 0 30 30" enable-background="new 0 0 30 30" xml:space="preserve">
<g>
	<circle fill="#9A2E36" cx="15" cy="15" r="15"/>
	<g>
		<path fill="#FFFFFF" d="M20.8,9c-0.9,0-1.7-0.8-1.7-1.7c0-1,0.8-1.7,1.7-1.7c0.9,0,1.7,0.8,1.7,1.7C22.5,8.2,21.8,9,20.8,9z"/>
		<path fill="#FFFFFF" d="M9.7,5.3c-0.4,0-0.7,0.1-1,0.2l0,0l0,0C8.5,5.6,8.4,5.7,8.3,5.8L6.2,7.6L5.1,7.9l0.6,0.9l0.7-1l1.6-0.6
			C8,8,8.6,8.6,9.4,8.7c0.9,0.1,1.8-0.6,1.9-1.6C11.3,6.2,10.7,5.3,9.7,5.3z"/>
		<path fill="#FFFFFF" d="M14.4,14.7l-3.6-6v0l0,0c0,0-1.9,0-2.6,0c-0.8,0-2.9,0.6-2.9,0.6C5.2,9.3,5,9.4,5,9.6l-0.1,1.5l-0.6,0.1
			l-0.1,2.6l0.6,0l0,0.3l2.3,0c0.1,0.1,0.3,0.1,0.4,0.2l-0.3,4.5H8l0,4.4l1.1,0l0.6-4.4h0.2l0,4.4h1l0.6-4.4h1l-1.1-6.7l1.8,2.5
			L14.4,14.7L14.4,14.7z M7.6,13.9c-0.1-0.1-0.3-0.1-0.4-0.2l0.2-4.4c0.2-0.1,0.3-0.1,0.5-0.1L7.6,13.9z"/>
		<path fill="#FFFFFF" d="M21.8,14.5l0.3-3.5l2.5,3.1h1.1l-3.4-5L19,9c-0.2,0-2.7,0.6-2.7,0.6c-0.2,0-0.3,0.2-0.3,0.3L16,11.5
			l-0.6,0.1l-0.1,2.7l0.6,0l0,0.3l2.4,0c0.1,0.1,0.3,0.1,0.4,0.2l0,0.3v1.5V23h1.3l0.8-6.6l2.4,1.8l-0.5,4.1l1.1,0l1.1-4.7l0,0
			L21.8,14.5z M18.3,14.2l0.2-4.5c0,0,0.3-0.1,0.5-0.1l-0.3,4.8C18.5,14.3,18.4,14.3,18.3,14.2z"/>
	</g>
</g>
</svg>
