<?xml version="1.0" encoding="utf-8"?>
<!-- Generator: Adobe Illustrator 18.1.1, SVG Export Plug-In . SVG Version: 6.00 Build 0)  -->
<svg version="1.1"
	 id="Layer_1" xmlns:cc="http://creativecommons.org/ns#" xmlns:rdf="http://www.w3.org/1999/02/22-rdf-syntax-ns#" xmlns:dc="http://purl.org/dc/elements/1.1/" xmlns:inkscape="http://www.inkscape.org/namespaces/inkscape" xmlns:sodipodi="http://sodipodi.sourceforge.net/DTD/sodipodi-0.dtd" xmlns:svg="http://www.w3.org/2000/svg"
	 xmlns="http://www.w3.org/2000/svg" xmlns:xlink="http://www.w3.org/1999/xlink" x="0px" y="0px" viewBox="1197 1106 512 512"
	 enable-background="new 1197 1106 512 512" xml:space="preserve">
<g transform="translate(-106.82065,-400.50395)">
	<path d="M1366.6,1586.1c-14.6,0-26.5,11.8-26.5,26.4c0,12.7,9,23.3,20.9,25.8c-27.5,39.1-43.8,86.7-43.8,138.2
		c0,52.9,17.1,101.8,45.9,141.5h0.3c5.8,12.3,18.2,20.9,32.8,20.9h324.5c14.5,0,27-8.6,32.8-20.9h0.3
		c28.9-39.8,45.9-88.6,45.9-141.5c0-51.5-16.3-99.1-43.8-138.2c11.9-2.5,20.9-13.1,20.9-25.8c0-14.6-11.8-26.4-26.4-26.4H1366.6
		L1366.6,1586.1z M1366.7,1600.7h383.5c6.5,0,11.8,5.3,11.8,11.8c0,5.5-4,10.4-9.4,11.6c-4.8,1-8.8,4.3-10.5,8.9
		c-1.8,4.6-1.1,9.7,1.6,13.7c26.9,38.3,41.2,83.1,41.2,129.7c0,43.1-12.1,84.4-34.9,120.6h-383.1c-22.8-36.2-35-77.5-35-120.6
		c-0.1-46.5,14.2-91.3,41.1-129.6c2.8-4,3.4-9.2,1.6-13.8c-1.8-4.6-5.8-7.8-10.6-8.9c-5.4-1.2-9.3-6-9.3-11.6
		C1354.7,1606,1360.1,1600.7,1366.7,1600.7L1366.7,1600.7z M1503.3,1628.6c-11.4,0-20.5,9.2-20.5,20.5c0,11.3,9.1,20.6,20.5,20.6
		c11.3,0,20.6-9.2,20.6-20.6C1523.8,1637.7,1514.6,1628.6,1503.3,1628.6z M1496.4,1634.6c3.8,0,6.9,3.1,6.9,6.9
		c0,3.8-3.1,6.9-6.9,6.9c-3.8,0-6.9-3.1-6.9-6.9C1489.5,1637.7,1492.6,1634.6,1496.4,1634.6z M1587.8,1686.6
		c-21.8,0-41.6,7.1-56.9,18.8l58.1,58.1l-58,58.2c15.3,11.8,35.1,18.9,56.8,18.9c42.6,0,77.9-26.9,85.5-62.6
		c5.8,14.5,20,24.8,36.6,24.8c7.2,0,13.9-1.9,19.6-5.4c-11.7-6.8-19.6-19.4-19.6-34c0-14.5,7.9-27.2,19.6-34
		c-5.7-3.4-12.4-5.4-19.6-5.4c-16.5,0-30.8,10.3-36.6,24.8C1665.6,1713.5,1630.3,1686.6,1587.8,1686.6L1587.8,1686.6z
		 M1521.9,1704.6c-1.3,0-2.6,0.5-3.6,1.5c-2,2-2,5.2,0,7.2l50.4,50.4l-49,49c-1.9,2-1.9,5.2,0,7.2c1,1,2.3,1.5,3.6,1.5
		c1.3,0,2.7-0.5,3.6-1.5l52.5-52.5c0.9-0.9,1.5-2.3,1.5-3.6c0-1.3-0.5-2.6-1.5-3.6l-53.9-53.9
		C1524.5,1705.1,1523.2,1704.6,1521.9,1704.6L1521.9,1704.6z M1597.4,1704.6c7.2,0,13,5.8,13,13c0,7.2-5.8,13-13,13
		c-7.2,0-13.1-5.8-13.1-13C1584.2,1710.4,1590.2,1704.6,1597.4,1704.6L1597.4,1704.6z M1480.6,1711.3c-16.8,0-30.5,13.7-30.5,30.6
		c0,16.9,13.7,30.5,30.5,30.5c16.9,0,30.5-13.6,30.5-30.5S1497.4,1711.3,1480.6,1711.3z M1594.3,1711.3c-3.3,0.2-5.9,3-5.9,6.3
		c0,3.5,2.8,6.4,6.3,6.4c0,0,0,0,0.1,0c3.5,0,6.3-2.8,6.3-6.3c0,0,0,0,0-0.1c0-3.5-2.8-6.3-6.3-6.3
		C1594.6,1711.3,1594.4,1711.3,1594.3,1711.3L1594.3,1711.3z M1470.3,1720.5c5.7,0,10.3,4.5,10.3,10.2s-4.6,10.3-10.3,10.3
		s-10.2-4.6-10.2-10.3S1464.6,1720.5,1470.3,1720.5L1470.3,1720.5z"/>
</g>
<text transform="matrix(1 0 0 1 1112.3892 1801.2812)" font-family="'HelveticaNeue-Bold'" font-size="7.2556">Created by Hopkins</text>
<text transform="matrix(1 0 0 1 1112.3892 1808.5372)" font-family="'HelveticaNeue-Bold'" font-size="7.2556">from the Noun Project</text>
</svg>
