<?xml version="1.0" encoding="utf-8"?>
<!-- Generator: Adobe Illustrator 18.1.1, SVG Export Plug-In . SVG Version: 6.00 Build 0)  -->
<svg version="1.1" id="Layer_1" xmlns="http://www.w3.org/2000/svg" xmlns:xlink="http://www.w3.org/1999/xlink" x="0px" y="0px"
	 viewBox="151.5 127 2656 2160" enable-background="new 151.5 127 2656 2160" xml:space="preserve">
<g>
	<path d="M2457.6,1651.2c-12.8-6.4-291.2-108.8-841.6-128l188.8-467.2c112,48,176,89.6,188.8,108.8c0,3.2,0,6.4,3.2,9.6v3.2
		c0,3.2,3.2,3.2,3.2,6.4c0,0,0,3.2,3.2,3.2c3.2,3.2,6.4,3.2,9.6,6.4c3.2,0,6.4,3.2,9.6,3.2l0,0h3.2h3.2c0,0,3.2,0,3.2-3.2
		c0,0,3.2,0,3.2-3.2l3.2-3.2c0,0,3.2,0,3.2-3.2c19.2-3.2,89.6,6.4,192,48s160,83.2,169.6,99.2c0,12.8,6.4,25.6,19.2,32
		c3.2,0,9.6,3.2,12.8,3.2c12.8,0,25.6-6.4,28.8-19.2c121.6-304-76.8-672-448-835.2l12.8-35.2c6.4-16,0-35.2-19.2-41.6
		c-16-6.4-35.2,0-41.6,19.2l-12.8,35.2c-179.2-64-364.8-76.8-531.2-28.8C1244.8,512,1113.6,624,1052.8,777.6
		c-6.4,16,0,35.2,19.2,41.6c12.8,6.4,25.6,0,35.2-9.6c19.2-3.2,89.6,6.4,192,48c102.4,41.6,160,83.2,169.6,99.2l0,0l0,0l0,0
		c0,3.2,0,6.4,3.2,9.6v3.2c0,3.2,3.2,3.2,3.2,6.4c0,0,0,3.2,3.2,3.2c3.2,3.2,6.4,3.2,9.6,6.4l0,0l0,0c3.2,0,6.4,3.2,9.6,3.2h3.2
		c3.2,0,6.4,0,9.6-3.2h3.2c3.2,0,6.4-3.2,9.6-6.4c22.4-3.2,96,12.8,211.2,54.4L1536,1523.2c-35.2,0-70.4,0-105.6,0
		c-665.6,0-1001.6,124.8-1017.6,131.2c-16,6.4-25.6,25.6-19.2,41.6c6.4,12.8,16,19.2,28.8,19.2c3.2,0,6.4,0,12.8-3.2
		c3.2,0,342.4-124.8,992-124.8c25.6,0,54.4,0,80,0l-76.8,185.6v3.2c-25.6-6.4-54.4-12.8-86.4-12.8s-64,3.2-92.8,12.8
		c-16,6.4-25.6,22.4-22.4,38.4c6.4,16,22.4,25.6,38.4,22.4c22.4-6.4,48-9.6,73.6-9.6c64,0,112,22.4,128,41.6
		c6.4,6.4,16,12.8,25.6,12.8c6.4,0,16-3.2,19.2-6.4c12.8-12.8,16-32,3.2-44.8c-3.2-3.2-9.6-9.6-12.8-12.8
		c12.8-3.2,28.8-6.4,44.8-6.4c38.4,0,64,9.6,80,19.2c12.8,9.6,35.2,6.4,44.8-6.4c9.6-12.8,6.4-35.2-6.4-44.8
		c-28.8-19.2-70.4-32-115.2-32c-16,0-28.8,3.2-44.8,3.2l67.2-163.2c569.6,16,857.6,121.6,857.6,121.6c16,6.4,35.2-3.2,41.6-19.2
		C2480,1673.6,2473.6,1657.6,2457.6,1651.2z M1798.4,982.4c-80-32-169.6-64-236.8-70.4c112-246.4,294.4-406.4,409.6-361.6
		c115.2,48,131.2,288,41.6,544C1964.8,1056,1878.4,1014.4,1798.4,982.4z M2432,1260.8c-44.8-35.2-115.2-67.2-166.4-89.6
		c-57.6-22.4-115.2-41.6-160-48c-6.4,0-19.2-3.2-28.8-3.2c67.2-195.2,76.8-374.4,35.2-496C2355.2,777.6,2489.6,1033.6,2432,1260.8z
		 M1331.2,793.6c-57.6-22.4-115.2-41.6-160-48c-6.4,0-12.8-3.2-22.4-3.2c60.8-105.6,166.4-185.6,304-224
		C1568,483.2,1696,480,1824,508.8c-115.2,54.4-233.6,192-320,380.8c-9.6-6.4-19.2-12.8-22.4-16
		C1443.2,844.8,1388.8,816,1331.2,793.6z"/>
	<circle cx="1017.6" cy="1804.8" r="22.4"/>
	<circle cx="963.2" cy="1868.8" r="22.4"/>
	<circle cx="851.2" cy="1865.6" r="22.4"/>
	<circle cx="684.8" cy="1910.4" r="22.4"/>
	<circle cx="1046.4" cy="1878.4" r="22.4"/>
	<circle cx="1827.2" cy="2048" r="22.4"/>
	<circle cx="1920" cy="2006.4" r="22.4"/>
	<circle cx="2035.2" cy="2070.4" r="22.4"/>
	<circle cx="1942.4" cy="2070.4" r="22.4"/>
	<circle cx="1795.2" cy="1974.4" r="22.4"/>
</g>
<text transform="matrix(1 0 0 1 288 2784)" font-family="'HelveticaNeue-Bold'" font-size="160">Created by Evan Udelsman</text>
<text transform="matrix(1 0 0 1 288 2944)" font-family="'HelveticaNeue-Bold'" font-size="160">from the Noun Project</text>
</svg>
