<?xml version="1.0" encoding="utf-8"?>
<!-- Generator: Adobe Illustrator 18.1.1, SVG Export Plug-In . SVG Version: 6.00 Build 0)  -->
<svg version="1.1" id="Layer_1" xmlns="http://www.w3.org/2000/svg" xmlns:xlink="http://www.w3.org/1999/xlink" x="0px" y="0px"
	 viewBox="1184 1184 512 512" enable-background="new 1184 1184 512 512" xml:space="preserve">
<g>
	<g>
		<path d="M1361.6,1216.9c-9-3-18.9,2.5-21.4,11.4l-124.3,413.2c-2.5,9,2.5,18.9,11.4,21.4c2,1,3.5,1,5.5,1c7.5,0,14.4-5,16.4-12.4
			l123.8-412.7C1375.5,1229.3,1370.6,1219.9,1361.6,1216.9z"/>
		<path d="M1662.5,1641.5l-124.3-412.7c-2.5-9-12.4-14.4-21.4-11.4c-9,2.5-14.4,12.4-11.4,21.4l123.8,413.2c2.5,7,9,11.9,16.4,11.9
			c1.5,0,3.5,0,5-0.5C1660,1660.4,1664.9,1651,1662.5,1641.5z"/>
		<path d="M1450.6,1490.9c-0.5-6-5.5-10.4-11.4-10.4c-6,0-10.9,4.5-11.4,10.4l-10.4,134.3c0,3,1,6.5,3,8.5c2,2.5,5.5,3.5,8.5,3.5
			h20.9c3,0,6.5-1.5,8.5-3.5c2-2.5,3.5-5.5,3-8.5L1450.6,1490.9z"/>
		<path d="M1439.2,1341.7c-3,0-5.5,2-5.5,5l-10.4,82.6c0,1.5,0.5,3.5,1.5,4.5c1,1,2.5,2,4.5,2h20.9c1.5,0,3-0.5,4.5-2
			c1-1,1.5-3,1.5-4.5l-10.4-82.6C1444.6,1343.7,1442.2,1341.7,1439.2,1341.7z"/>
		<path d="M1428.7,1301.4h20.9c2,0,3.5-1,4.5-2c1-1.5,1.5-3,1-5l-10.4-41.3c-0.5-2.5-3-4.5-5.5-4.5s-5,2-5.5,4.5l-10.4,41.3
			c-0.5,1.5,0,3.5,1,5C1425.3,1300.4,1427.3,1301.4,1428.7,1301.4z"/>
	</g>
</g>
<text transform="matrix(1 0 0 1 287.9965 2913.5991)" font-family="'HelveticaNeue-Bold'" font-size="115.2">Created by Allen</text>
<text transform="matrix(1 0 0 1 287.9965 3028.7983)" font-family="'HelveticaNeue-Bold'" font-size="115.2">from the Noun Project</text>
</svg>
