<?xml version="1.0" encoding="utf-8"?>
<!-- Generator: Adobe Illustrator 18.1.1, SVG Export Plug-In . SVG Version: 6.00 Build 0)  -->
<svg version="1.1" id="Layer_1" xmlns="http://www.w3.org/2000/svg" xmlns:xlink="http://www.w3.org/1999/xlink" x="0px" y="0px"
	 viewBox="1184 1184 512 512" enable-background="new 1184 1184 512 512" xml:space="preserve">
<path d="M1346.7,1327.1c0,5.4-4.4,9.8-9.8,9.8c-5.4,0-9.8-4.4-9.8-9.8c0-5.4,4.4-9.8,9.8-9.8
	C1342.3,1317.2,1346.7,1321.7,1346.7,1327.1z M1381.1,1317.2c-5.4,0-9.8,4.4-9.8,9.8c0,5.4,4.4,9.8,9.8,9.8c5.4,0,9.8-4.4,9.8-9.8
	C1390.9,1321.7,1386.5,1317.2,1381.1,1317.2z M1430.2,1317.2c-5.4,0-9.8,4.4-9.8,9.8c0,5.4,4.4,9.8,9.8,9.8c5.4,0,9.8-4.4,9.8-9.8
	C1440,1321.7,1435.6,1317.2,1430.2,1317.2z M1336.9,1356.5c-5.4,0-9.8,4.4-9.8,9.8c0,5.4,4.4,9.8,9.8,9.8c5.4,0,9.8-4.4,9.8-9.8
	C1346.7,1361,1342.3,1356.5,1336.9,1356.5z M1381.1,1356.5c-5.4,0-9.8,4.4-9.8,9.8c0,5.4,4.4,9.8,9.8,9.8c5.4,0,9.8-4.4,9.8-9.8
	C1390.9,1361,1386.5,1356.5,1381.1,1356.5z M1430.2,1356.5c-5.4,0-9.8,4.4-9.8,9.8c0,5.4,4.4,9.8,9.8,9.8c5.4,0,9.8-4.4,9.8-9.8
	C1440,1361,1435.6,1356.5,1430.2,1356.5z M1336.9,1395.8c-5.4,0-9.8,4.4-9.8,9.8c0,5.4,4.4,9.8,9.8,9.8c5.4,0,9.8-4.4,9.8-9.8
	C1346.7,1400.2,1342.3,1395.8,1336.9,1395.8z M1381.1,1395.8c-5.4,0-9.8,4.4-9.8,9.8c0,5.4,4.4,9.8,9.8,9.8c5.4,0,9.8-4.4,9.8-9.8
	C1390.9,1400.2,1386.5,1395.8,1381.1,1395.8z M1430.2,1395.8c-5.4,0-9.8,4.4-9.8,9.8c0,5.4,4.4,9.8,9.8,9.8c5.4,0,9.8-4.4,9.8-9.8
	C1440,1400.2,1435.6,1395.8,1430.2,1395.8z M1336.9,1435.1c-5.4,0-9.8,4.4-9.8,9.8c0,5.4,4.4,9.8,9.8,9.8c5.4,0,9.8-4.4,9.8-9.8
	C1346.7,1439.5,1342.3,1435.1,1336.9,1435.1z M1381.1,1435.1c-5.4,0-9.8,4.4-9.8,9.8c0,5.4,4.4,9.8,9.8,9.8c5.4,0,9.8-4.4,9.8-9.8
	C1390.9,1439.5,1386.5,1435.1,1381.1,1435.1z M1430.2,1435.1c-5.4,0-9.8,4.4-9.8,9.8c0,5.4,4.4,9.8,9.8,9.8c5.4,0,9.8-4.4,9.8-9.8
	C1440,1439.5,1435.6,1435.1,1430.2,1435.1z M1336.9,1474.4c-5.4,0-9.8,4.4-9.8,9.8c0,5.4,4.4,9.8,9.8,9.8c5.4,0,9.8-4.4,9.8-9.8
	C1346.7,1478.8,1342.3,1474.4,1336.9,1474.4z M1381.1,1474.4c-5.4,0-9.8,4.4-9.8,9.8c0,5.4,4.4,9.8,9.8,9.8c5.4,0,9.8-4.4,9.8-9.8
	C1390.9,1478.8,1386.5,1474.4,1381.1,1474.4z M1430.2,1474.4c-5.4,0-9.8,4.4-9.8,9.8c0,5.4,4.4,9.8,9.8,9.8c5.4,0,9.8-4.4,9.8-9.8
	C1440,1478.8,1435.6,1474.4,1430.2,1474.4z M1336.9,1513.7c-5.4,0-9.8,4.4-9.8,9.8c0,5.4,4.4,9.8,9.8,9.8c5.4,0,9.8-4.4,9.8-9.8
	C1346.7,1518.1,1342.3,1513.7,1336.9,1513.7z M1381.1,1513.7c-5.4,0-9.8,4.4-9.8,9.8c0,5.4,4.4,9.8,9.8,9.8c5.4,0,9.8-4.4,9.8-9.8
	C1390.9,1518.1,1386.5,1513.7,1381.1,1513.7z M1430.2,1513.7c-5.4,0-9.8,4.4-9.8,9.8c0,5.4,4.4,9.8,9.8,9.8c5.4,0,9.8-4.4,9.8-9.8
	C1440,1518.1,1435.6,1513.7,1430.2,1513.7z M1336.9,1552.9c-5.4,0-9.8,4.4-9.8,9.8c0,5.4,4.4,9.8,9.8,9.8c5.4,0,9.8-4.4,9.8-9.8
	C1346.7,1557.4,1342.3,1552.9,1336.9,1552.9z M1381.1,1552.9c-5.4,0-9.8,4.4-9.8,9.8c0,5.4,4.4,9.8,9.8,9.8c5.4,0,9.8-4.4,9.8-9.8
	C1390.9,1557.4,1386.5,1552.9,1381.1,1552.9z M1430.2,1552.9c-5.4,0-9.8,4.4-9.8,9.8c0,5.4,4.4,9.8,9.8,9.8c5.4,0,9.8-4.4,9.8-9.8
	C1440,1557.4,1435.6,1552.9,1430.2,1552.9z M1336.9,1592.2c-5.4,0-9.8,4.4-9.8,9.8c0,5.4,4.4,9.8,9.8,9.8c5.4,0,9.8-4.4,9.8-9.8
	C1346.7,1596.6,1342.3,1592.2,1336.9,1592.2z M1381.1,1592.2c-5.4,0-9.8,4.4-9.8,9.8c0,5.4,4.4,9.8,9.8,9.8c5.4,0,9.8-4.4,9.8-9.8
	C1390.9,1596.6,1386.5,1592.2,1381.1,1592.2z M1430.2,1592.2c-5.4,0-9.8,4.4-9.8,9.8c0,5.4,4.4,9.8,9.8,9.8c5.4,0,9.8-4.4,9.8-9.8
	C1440,1596.6,1435.6,1592.2,1430.2,1592.2z M1528.4,1317.2c-5.4,0-9.8,4.4-9.8,9.8c0,5.4,4.4,9.8,9.8,9.8c5.4,0,9.8-4.4,9.8-9.8
	C1538.2,1321.7,1533.8,1317.2,1528.4,1317.2z M1528.4,1356.5c-5.4,0-9.8,4.4-9.8,9.8c0,5.4,4.4,9.8,9.8,9.8c5.4,0,9.8-4.4,9.8-9.8
	C1538.2,1361,1533.8,1356.5,1528.4,1356.5z M1528.4,1395.8c-5.4,0-9.8,4.4-9.8,9.8c0,5.4,4.4,9.8,9.8,9.8c5.4,0,9.8-4.4,9.8-9.8
	C1538.2,1400.2,1533.8,1395.8,1528.4,1395.8z M1528.4,1435.1c-5.4,0-9.8,4.4-9.8,9.8c0,5.4,4.4,9.8,9.8,9.8c5.4,0,9.8-4.4,9.8-9.8
	C1538.2,1439.5,1533.8,1435.1,1528.4,1435.1z M1528.4,1474.4c-5.4,0-9.8,4.4-9.8,9.8c0,5.4,4.4,9.8,9.8,9.8c5.4,0,9.8-4.4,9.8-9.8
	C1538.2,1478.8,1533.8,1474.4,1528.4,1474.4z M1528.4,1513.7c-5.4,0-9.8,4.4-9.8,9.8c0,5.4,4.4,9.8,9.8,9.8c5.4,0,9.8-4.4,9.8-9.8
	C1538.2,1518.1,1533.8,1513.7,1528.4,1513.7z M1528.4,1552.9c-5.4,0-9.8,4.4-9.8,9.8c0,5.4,4.4,9.8,9.8,9.8c5.4,0,9.8-4.4,9.8-9.8
	C1538.2,1557.4,1533.8,1552.9,1528.4,1552.9z M1528.4,1592.2c-5.4,0-9.8,4.4-9.8,9.8c0,5.4,4.4,9.8,9.8,9.8c5.4,0,9.8-4.4,9.8-9.8
	C1538.2,1596.6,1533.8,1592.2,1528.4,1592.2z M1661,1651.1c0,5.4-4.4,9.8-9.8,9.8H1574h-91.3h-5.9h-186.1h-61.9
	c-5.4,0-9.8-4.4-9.8-9.8c0-5.4,4.4-9.8,9.8-9.8h49.6v-349.6c0-5.4,3.4-10.3,8.8-11.8l185.6-60.4c1-0.5,2.5-0.5,3.9-0.5
	c6.4,0,12.3,5.4,12.3,12.8v13.3l91.3,50.6c3.9,2.5,6.9,6.9,6.9,11.3v334.4h63.8C1656.5,1641.3,1661,1645.7,1661,1651.1z
	 M1298.1,1641.3h171.4v-385.4v-14.7l-171.4,56V1641.3z M1567.7,1641.3v-330.5l-78.6-43.7v374.1H1567.7z"/>
<text transform="matrix(1 0 0 1 287.9956 3341.999)" font-family="'HelveticaNeue-Bold'" font-size="144">Created by Mark Aventura</text>
<text transform="matrix(1 0 0 1 287.9956 3485.998)" font-family="'HelveticaNeue-Bold'" font-size="144">from the Noun Project</text>
</svg>
