<?xml version="1.0" encoding="utf-8"?>
<!-- Generator: Adobe Illustrator 18.1.1, SVG Export Plug-In . SVG Version: 6.00 Build 0)  -->
<svg version="1.1" id="Layer_1" xmlns="http://www.w3.org/2000/svg" xmlns:xlink="http://www.w3.org/1999/xlink" x="0px" y="0px"
	 viewBox="1184 1184 512 512" enable-background="new 1184 1184 512 512" xml:space="preserve">
<path d="M1646.5,1532.3c-7.7,0-11.5-2.2-15.9-4.9c-4.9-2.7-10.4-6-21.3-6c-10.9,0-16.4,3.3-21.3,6c-4.4,2.7-8.2,4.9-15.9,4.9
	c-7.7,0-11.5-2.2-15.9-4.9c-4.9-2.7-10.4-6-21.3-6s-16.4,3.3-21.3,6c-4.4,2.7-8.2,4.9-15.9,4.9c-7.6,0-11.5-2.2-15.9-4.9
	c-4.9-2.7-10.4-6-21.3-6c-10.9,0-16.4,3.3-21.3,6c-4.4,2.7-8.2,4.9-15.9,4.9c-7.7,0-11.5-2.2-15.9-4.9c-4.9-2.7-10.4-6-21.3-6
	c-10.9,0-16.4,3.3-21.3,6c-4.4,2.7-8.2,4.9-15.9,4.9c-7.7,0-11.5-2.2-15.9-4.9c-4.9-2.7-10.4-6-21.3-6s-16.4,3.3-21.3,6
	c-4.4,2.7-8.2,4.9-15.9,4.9s-11.5-2.2-15.9-4.9c-6.5-2.7-12-6-23-6c-3.3,0-5.5,2.2-5.5,5.5c0,3.3,2.2,5.5,5.5,5.5
	c7.7,0,11.5,2.2,15.9,4.9c4.9,2.7,10.4,6,21.3,6s16.4-3.3,21.3-6c4.4-2.7,8.2-4.9,15.9-4.9c7.7,0,11.5,2.2,15.9,4.9
	c4.9,2.7,10.4,6,21.3,6c10.9,0,16.4-3.3,21.3-6c4.4-2.7,8.2-4.9,15.9-4.9c7.7,0,11.5,2.2,15.9,4.9c4.9,2.7,10.4,6,21.3,6
	c10.9,0,16.4-3.3,21.3-6c4.4-2.7,8.2-4.9,15.9-4.9c7.7,0,11.5,2.2,15.9,4.9c4.9,2.7,10.4,6,21.3,6s16.4-3.3,21.3-6
	c4.4-2.7,8.2-4.9,15.9-4.9c7.7,0,11.5,2.2,15.9,4.9c4.9,2.7,10.4,6,21.3,6c10.9,0,16.4-3.3,21.3-6c4.4-2.7,8.2-4.9,15.9-4.9
	s11.5,2.2,15.9,4.9c4.9,2.7,10.4,6,21.3,6c3.3,0,5.5-2.2,5.5-5.5S1649.2,1532.3,1646.5,1532.3z"/>
<path d="M1646.5,1570c-7.7,0-11.5-2.2-15.9-4.9c-4.9-2.7-10.4-6-21.3-6c-10.9,0-16.4,3.3-21.3,6c-4.4,2.7-8.2,4.9-15.9,4.9
	c-7.7,0-11.5-2.2-15.9-4.9c-4.9-2.7-10.4-6-21.3-6s-16.4,3.3-21.3,6c-4.4,2.7-8.2,4.9-15.9,4.9c-7.6,0-11.5-2.2-15.9-4.9
	c-4.9-2.7-10.4-6-21.3-6c-10.9,0-16.4,3.3-21.3,6c-4.4,2.7-8.2,4.9-15.9,4.9c-7.7,0-11.5-2.2-15.9-4.9c-4.9-2.7-10.4-6-21.3-6
	c-10.9,0-16.4,3.3-21.3,6c-4.4,2.7-8.2,4.9-15.9,4.9c-7.7,0-11.5-2.2-15.9-4.9c-4.9-2.7-10.4-6-21.3-6s-16.4,3.3-21.3,6
	c-4.4,2.7-8.2,4.9-15.9,4.9s-11.5-2.2-15.9-4.9c-6.5-2.7-12-6-23-6c-3.3,0-5.5,2.2-5.5,5.5c0,3.3,2.2,5.5,5.5,5.5
	c7.7,0,11.5,2.2,15.9,4.9c4.9,2.7,10.4,6,21.3,6s16.4-3.3,21.3-6c4.4-2.7,8.2-4.9,15.9-4.9c7.7,0,11.5,2.2,15.9,4.9
	c4.9,2.7,10.4,6,21.3,6c10.9,0,16.4-3.3,21.3-6c4.4-2.7,8.2-4.9,15.9-4.9c7.7,0,11.5,2.2,15.9,4.9c4.9,2.7,10.4,6,21.3,6
	c10.9,0,16.4-3.3,21.3-6c4.4-2.7,8.2-4.9,15.9-4.9c7.7,0,11.5,2.2,15.9,4.9c4.9,2.7,10.4,6,21.3,6s16.4-3.3,21.3-6
	c4.4-2.7,8.2-4.9,15.9-4.9c7.7,0,11.5,2.2,15.9,4.9c4.9,2.7,10.4,6,21.3,6c10.9,0,16.4-3.3,21.3-6c4.4-2.7,8.2-4.9,15.9-4.9
	s11.5,2.2,15.9,4.9c4.9,2.7,10.4,6,21.3,6c3.3,0,5.5-2.2,5.5-5.5S1649.2,1570,1646.5,1570z"/>
<path d="M1646.5,1607.1c-7.7,0-11.5-2.2-15.9-4.9c-4.9-2.7-10.4-6-21.3-6c-10.9,0-16.4,3.3-21.3,6c-4.4,2.7-8.2,4.9-15.9,4.9
	c-7.7,0-11.5-2.2-15.9-4.9c-4.9-2.7-10.4-6-21.3-6s-16.4,3.3-21.3,6c-4.4,2.7-8.2,4.9-15.9,4.9c-7.6,0-11.5-2.2-15.9-4.9
	c-4.9-2.7-10.4-6-21.3-6c-10.9,0-16.4,3.3-21.3,6c-4.4,2.7-8.2,4.9-15.9,4.9c-7.7,0-11.5-2.2-15.9-4.9c-4.9-2.7-10.4-6-21.3-6
	c-10.9,0-16.4,3.3-21.3,6c-4.4,2.7-8.2,4.9-15.9,4.9c-7.7,0-11.5-2.2-15.9-4.9c-4.9-2.7-10.4-6-21.3-6s-16.4,3.3-21.3,6
	c-4.4,2.7-8.2,4.9-15.9,4.9s-11.5-2.2-15.9-4.9c-6.5-2.7-12-6-23-6c-3.3,0-5.5,2.2-5.5,5.5c0,3.3,2.2,5.5,5.5,5.5
	c7.7,0,11.5,2.2,15.9,4.9c4.9,2.7,10.4,6,21.3,6s16.4-3.3,21.3-6c4.4-2.7,8.2-4.9,15.9-4.9c7.7,0,11.5,2.2,15.9,4.9
	c4.9,2.7,10.4,6,21.3,6c10.9,0,16.4-3.3,21.3-6c4.4-2.7,8.2-4.9,15.9-4.9c7.7,0,11.5,2.2,15.9,4.9c4.9,2.7,10.4,6,21.3,6
	c10.9,0,16.4-3.3,21.3-6c4.4-2.7,8.2-4.9,15.9-4.9c7.7,0,11.5,2.2,15.9,4.9c4.9,2.7,10.4,6,21.3,6s16.4-3.3,21.3-6
	c4.4-2.7,8.2-4.9,15.9-4.9c7.7,0,11.5,2.2,15.9,4.9c4.9,2.7,10.4,6,21.3,6c10.9,0,16.4-3.3,21.3-6c4.4-2.7,8.2-4.9,15.9-4.9
	s11.5,2.2,15.9,4.9c4.9,2.7,10.4,6,21.3,6c3.3,0,5.5-2.2,5.5-5.5C1650.3,1609.3,1649.2,1607.1,1646.5,1607.1z"/>
<path d="M1277.5,1430.6v56.3h-41.5c-3.3,0-5.5,2.2-5.5,5.5c0,3.3,2.2,5.5,5.5,5.5h410.6c3.3,0,5.5-2.2,5.5-5.5
	c0-3.3-2.2-5.5-5.5-5.5h-47v-56.3c29-3.8,51.4-38.3,51.4-80.4c0-44.8-25.7-80.9-56.9-80.9c-31.2,0-57.4,36.1-57.4,80.9
	c0,42.1,23,76.5,51.4,80.4v56.3h-29.5v-29.5c0-3.3-2.2-5.5-5.5-5.5h-56.3v-12c0-9.3,6.5-16.9,14.8-16.9c8.2,0,14.8,7.7,14.8,16.9
	c0,3.3,2.2,5.5,5.5,5.5s5.5-2.2,5.5-5.5c0-15.3-11.5-27.9-25.7-27.9c-5.5,0-10.4,2.2-14.8,4.9v-20.2c0-7.1,4.9-12.6,11.5-12.6
	s11.5,6,11.5,12.6c0,3.3,2.2,5.5,5.5,5.5s5.5-2.2,5.5-5.5c0-13.1-9.8-23.5-22.4-23.5c-4.4,0-7.7,1.1-11.5,3.3v-14.8
	c0-4.4,3.3-8.2,7.1-8.2c3.8,0,7.1,3.8,7.1,8.2c0,3.3,2.2,5.5,5.5,5.5s5.5-2.2,5.5-5.5c0-10.4-8.2-19.1-18-19.1
	c-4.9,0-9.3,2.2-12.6,5.5c-3.3-3.3-7.7-5.5-12.6-5.5c-9.8,0-18,8.8-18,19.1c0,3.3,2.2,5.5,5.5,5.5c3.3,0,5.5-2.2,5.5-5.5
	c0-4.4,3.3-8.2,7.1-8.2c3.8,0,7.1,3.8,7.1,8.2v14.8c-3.3-2.2-7.1-3.3-11.5-3.3c-12,0-22.4,10.9-22.4,23.5c0,3.3,2.2,5.5,5.5,5.5
	s5.5-2.2,5.5-5.5c0-7.1,4.9-12.6,11.5-12.6c6.5,0,11.5,6,11.5,12.6v20.2c-3.8-3.3-9.3-4.9-14.8-4.9c-14.2,0-25.7,12.6-25.7,27.9
	c0,3.3,2.2,5.5,5.5,5.5c3.3,0,5.5-2.2,5.5-5.5c0-9.3,6.5-16.9,14.8-16.9c8.2,0,14.8,7.7,14.8,16.9v12h-56.9c-3.3,0-5.5,2.2-5.5,5.5
	v29.5H1395v-40.5c21.9-4.4,38.3-35,38.3-73.3c0-41.5-19.1-73.8-43.7-73.8c-24.6,0-43.7,32.2-43.7,73.8c0,38.3,16.4,68.9,38.3,73.3
	v40.5h-95.7v-56.3c29-4.4,51.4-45.4,51.4-96.8c0-54.7-25.2-97.3-56.9-97.3s-56.9,42.6-56.9,97.3
	C1225.5,1385.2,1247.9,1426.2,1277.5,1430.6z M1547.5,1350.2c0-38.8,20.8-70,45.9-70c25.2,0,45.9,31.2,45.9,70
	c0,35.5-18,65.1-40.5,69.4v-55.2l23.5-26.8c2.2-2.2,1.6-5.5-0.5-7.7c-2.2-2.2-6-1.6-7.7,0.5l-15.3,17.5v-42.1c0-3.3-2.2-5.5-5.5-5.5
	c-3.3,0-5.5,2.2-5.5,5.5v75.5c-4.9-6-11.5-14.2-17.5-21.9c-1.6-2.2-5.5-2.7-7.7-1.1s-2.7,5.5-1.1,7.7c15.3,20.2,22.4,27.9,26.2,31.2
	v22.4C1565,1415.3,1547.5,1385.7,1547.5,1350.2z M1434.4,1462.8h113.2v23.5h-113.2V1462.8z M1356.7,1373.7
	c0-33.9,14.8-62.9,32.8-62.9s32.8,29,32.8,62.9c0,30.6-12,56.3-27.3,61.8v-38.3l16.9-19.7c2.2-2.2,1.6-5.5-0.5-7.7
	c-2.2-2.2-6-1.6-7.7,0.5l-8.8,9.8v-27.3c0-3.3-2.2-5.5-5.5-5.5s-5.5,2.2-5.5,5.5v51.4c-3.3-3.8-7.1-8.8-10.4-13.1
	c-1.6-2.2-5.5-2.7-7.7-1.1c-2.2,1.6-2.7,5.5-1.1,7.7c10.9,14.2,16.4,20.2,19.1,23v14.2C1368.8,1430,1356.7,1403.8,1356.7,1373.7z
	 M1282.9,1246.9c25.2,0,45.9,39.4,45.9,86.4c0,43.2-18,80.4-40.5,85.8v-54.7l23.5-26.8c2.2-2.2,1.6-5.5-0.5-7.7
	c-2.2-2.2-6-1.6-7.7,0.5l-15.3,17.5v-42.1c0-3.3-2.2-5.5-5.5-5.5s-5.5,2.2-5.5,5.5v75.5c-4.9-6-11.5-14.2-17.5-21.9
	c-1.6-2.2-5.5-2.7-7.7-1.1c-2.2,1.6-2.7,5.5-1.1,7.7c15.3,20.2,22.4,27.9,26.2,31.2v22.4c-22.4-5.5-40.5-42.6-40.5-85.8
	C1236.5,1286.8,1257.8,1246.9,1282.9,1246.9z"/>
<text transform="matrix(1 0 0 1 222.1124 3785.3164)" font-family="'HelveticaNeue-Bold'" font-size="162.6353">Created by Made by Made</text>
<text transform="matrix(1 0 0 1 222.1124 3947.9512)" font-family="'HelveticaNeue-Bold'" font-size="162.6353">from the Noun Project</text>
</svg>
