<?xml version="1.0" encoding="utf-8"?>
<!-- Generator: Adobe Illustrator 18.1.1, SVG Export Plug-In . SVG Version: 6.00 Build 0)  -->
<svg version="1.1" id="Layer_1" xmlns="http://www.w3.org/2000/svg" xmlns:xlink="http://www.w3.org/1999/xlink" x="0px" y="0px"
	 viewBox="351 0 2280 2384" enable-background="new 351 0 2280 2384" xml:space="preserve">
<path d="M518.4,2073.6c75.6,0,110.1,21.6,153.7,48.8c49.7,31.1,106.1,66.4,214.8,66.4c108.7,0,165.1-35.3,214.8-66.4
	c43.7-27.3,78.2-48.8,153.8-48.8c75.6,0,110.1,21.6,153.8,48.8c49.8,31.1,106.2,66.4,214.9,66.4s165.1-35.3,214.9-66.4
	c12.5-7.8,24.4-15.1,36.6-21.6c30.3-16.2,63.3-27.2,117.2-27.2c70.7,0,105.5,18.9,145.4,43.6c2.8,1.7,5.6,3.4,8.4,5.2
	c49.8,31.1,106.2,66.4,214.9,66.4c31.8,0,57.6-25.8,57.6-57.6c0-31.8-25.8-57.6-57.6-57.6c-75.7,0-110.2-21.6-153.8-48.8
	c-49.8-31.1-106.2-66.4-214.9-66.4c-108.7,0-165.1,35.3-214.9,66.4c-43.7,27.3-78.2,48.8-153.8,48.8s-110.1-21.6-153.8-48.8
	c-49.8-31.1-106.2-66.4-214.8-66.4c-108.7,0-165.1,35.3-214.8,66.4c-12.5,7.8-24.4,15.1-36.6,21.6c-30.3,16.2-63.3,27.2-117.2,27.2
	c-70.7,0-105.5-18.9-145.3-43.7c-2.8-1.7-5.5-3.4-8.4-5.2c-49.7-31.1-106.1-66.3-214.8-66.3c-31.8,0-57.6,25.8-57.6,57.6
	C460.8,2047.8,486.6,2073.6,518.4,2073.6z"/>
<path d="M1255.5,1612.8c-108.7,0-165.1,35.3-214.8,66.4c-12.5,7.8-24.4,15.1-36.6,21.6c-30.3,16.2-63.3,27.2-117.2,27.2
	c-70.7,0-105.5-18.9-145.3-43.7c-2.8-1.7-5.5-3.4-8.4-5.2c-49.7-31.1-106.1-66.3-214.8-66.3c-31.8,0-57.6,25.8-57.6,57.6
	c0,31.8,25.8,57.6,57.6,57.6c75.6,0,110.1,21.6,153.7,48.8c49.7,31.1,106.1,66.4,214.8,66.4c108.7,0,165.1-35.3,214.8-66.4
	c43.7-27.3,78.2-48.8,153.8-48.8c75.6,0,110.1,21.6,153.8,48.8c49.8,31.1,106.2,66.4,214.9,66.4s165.1-35.3,214.9-66.4
	c12.5-7.8,24.4-15.1,36.6-21.6c30.3-16.2,63.3-27.2,117.2-27.2c70.7,0,105.5,18.9,145.4,43.6c2.8,1.7,5.6,3.4,8.4,5.2
	c49.8,31.1,106.2,66.4,214.9,66.4c31.8,0,57.6-25.8,57.6-57.6c0-31.8-25.8-57.6-57.6-57.6c-75.7,0-110.2-21.6-153.8-48.8
	c-22.6-14.1-46.9-29-76.6-41.1V921.6h230.4c31.8,0,57.6-25.8,57.6-57.6c0-31.8-25.8-57.6-57.6-57.6h-230.4V545.8
	c0-146.2-87.1-319-198.4-393.5c-82.6-55.3-144.9-36.9-174.7-21c-55.8,29.7-87.7,96.8-87.7,184v318.2c0,31.8,25.8,57.6,57.6,57.6
	c31.8,0,57.6-25.8,57.6-57.6V315.4c0-50.3,14.4-75.8,26.8-82.4c11.8-6.3,32.9-0.6,56.4,15.1c79.8,53.4,147.2,189.8,147.2,297.7
	v260.6h-576V545.8c0-146.2-87.1-319-198.4-393.5c-82.6-55.3-144.9-36.9-174.7-21c-55.8,29.7-87.7,96.8-87.7,184v318.2
	c0,31.8,25.8,57.6,57.6,57.6c31.8,0,57.6-25.8,57.6-57.6V315.4c0-50.3,14.4-75.8,26.8-82.4c11.8-6.3,32.8-0.6,56.4,15.1
	c79.8,53.4,147.2,189.8,147.2,297.7v260.6H518.4c-31.8,0-57.6,25.8-57.6,57.6c0,31.8,25.8,57.6,57.6,57.6h806.4v696.8
	C1304.2,1614.9,1281.5,1612.8,1255.5,1612.8z M1440,921.6h576v172.8h-576V921.6z M1440,1209.6h576v172.8h-576V1209.6z M1440,1497.6
	h576v116.1c-7.6-0.4-14.9-0.9-23.1-0.9c-108.7,0-165.1,35.3-214.9,66.4c-43.7,27.3-78.2,48.8-153.8,48.8s-110.1-21.6-153.8-48.8
	c-9.7-6.1-19.8-12.3-30.4-18.3V1497.6z"/>
<text transform="matrix(1 0 0 1 287.9965 2649.5991)" font-family="'HelveticaNeue-Bold'" font-size="115.2">Created by Arthur Shlain</text>
<text transform="matrix(1 0 0 1 287.9965 2764.7983)" font-family="'HelveticaNeue-Bold'" font-size="115.2">from the Noun Project</text>
</svg>
