<?xml version="1.0" encoding="utf-8"?>
<!-- Generator: Adobe Illustrator 18.1.1, SVG Export Plug-In . SVG Version: 6.00 Build 0)  -->
<svg version="1.1" id="Layer_1" xmlns="http://www.w3.org/2000/svg" xmlns:xlink="http://www.w3.org/1999/xlink" x="0px" y="0px"
	 viewBox="0 0 2880 2352" enable-background="new 0 0 2880 2352" xml:space="preserve">
<g>
	<g>
		<path d="M1080.6,117.5c-41.5-13.8-87.6,11.5-99.1,53l-576,1914.6c-11.5,41.5,11.5,87.6,53,99.1c9.2,4.6,16.1,4.6,25.3,4.6
			c34.6,0,66.8-23,76-57.6l573.7-1912.3C1145.1,175.1,1122,131.3,1080.6,117.5z"/>
		<path d="M2474.5,2085.1l-576-1912.3c-11.5-41.5-57.6-66.8-99.1-53c-41.5,11.5-66.8,57.6-53,99.1l573.7,1914.6
			c11.5,32.3,41.5,55.3,76,55.3c6.9,0,16.1,0,23-2.3C2463,2172.7,2486,2128.9,2474.5,2085.1z"/>
		<path d="M1493,1387c-2.3-27.6-25.3-48.4-53-48.4c-27.6,0-50.7,20.7-53,48.4l-48.4,622.1c0,13.8,4.6,30,13.8,39.2
			c9.2,11.5,25.3,16.1,39.2,16.1h96.8c13.8,0,30-6.9,39.2-16.1c9.2-11.5,16.1-25.3,13.8-39.2L1493,1387z"/>
		<path d="M1440,695.8c-13.8,0-25.3,9.2-25.3,23l-48.4,382.5c0,6.9,2.3,16.1,6.9,20.7c4.6,4.6,11.5,9.2,20.7,9.2h96.8
			c6.9,0,13.8-2.3,20.7-9.2c4.6-4.6,6.9-13.8,6.9-20.7L1470,718.8C1465.3,705,1453.8,695.8,1440,695.8z"/>
		<path d="M1391.6,509.2h96.8c9.2,0,16.1-4.6,20.7-9.2c4.6-6.9,6.9-13.8,4.6-23l-48.4-191.2c-2.3-11.5-13.8-20.7-25.3-20.7
			s-23,9.2-25.3,20.7l-48.4,191.2c-2.3,6.9,0,16.1,4.6,23C1375.5,504.6,1384.7,509.2,1391.6,509.2z"/>
	</g>
</g>
<text transform="matrix(1 0 0 1 287.9965 2649.5991)" font-family="'HelveticaNeue-Bold'" font-size="115.2">Created by Allen</text>
<text transform="matrix(1 0 0 1 287.9965 2764.7983)" font-family="'HelveticaNeue-Bold'" font-size="115.2">from the Noun Project</text>
</svg>
