<?xml version="1.0" encoding="utf-8"?>
<!-- Generator: Adobe Illustrator 18.1.1, SVG Export Plug-In . SVG Version: 6.00 Build 0)  -->
<svg version="1.1"
	 id="Layer_1" xmlns:cc="http://creativecommons.org/ns#" xmlns:rdf="http://www.w3.org/1999/02/22-rdf-syntax-ns#" xmlns:dc="http://purl.org/dc/elements/1.1/" xmlns:inkscape="http://www.inkscape.org/namespaces/inkscape" xmlns:sodipodi="http://sodipodi.sourceforge.net/DTD/sodipodi-0.dtd" xmlns:svg="http://www.w3.org/2000/svg"
	 xmlns="http://www.w3.org/2000/svg" xmlns:xlink="http://www.w3.org/1999/xlink" x="0px" y="0px" viewBox="0 0 2880 2264"
	 enable-background="new 0 0 2880 2264" xml:space="preserve">
<g transform="translate(-106.82065,-400.50395)">
	<path d="M402,523.4c-87.2,0-158.4,70.7-158.4,157.9c0,75.8,53.8,139,124.9,154.3c-164.3,233.3-261.6,517.6-261.6,825.1
		c0,316,102.3,607.7,274,845.2h1.6c34.6,73.7,108.6,124.9,195.6,124.9h1937.6c86.7,0,161-51.2,195.6-124.9h1.6
		c172.3-237.5,274-529,274-845.2c0-307.5-97.6-591.6-261.6-825.1c71.3-15.1,124.9-78.5,124.9-154.3c0-87.2-70.7-157.9-157.9-157.9
		h-2290H402z M402.4,610.6h2290.1c38.8,0,70.7,31.6,70.7,70.7c0,33-23.8,62.3-56.2,69.1c-28.5,6.1-52.4,25.9-62.9,53.2
		c-10.8,27.5-6.8,58,9.8,82c160.6,228.5,246.1,496.1,246.1,774.5c0,257.1-72.1,504.2-208.5,720.4h-2288
		c-136.3-216.1-209-463-209-720.4c-0.4-277.9,84.7-545.5,245.6-774c16.7-23.8,20.6-55.1,9.8-82.6c-10.6-27.2-34.4-46.8-63-53.2
		c-32.2-6.9-55.7-36.1-55.7-69.1C331.2,642.5,363.3,610.6,402.4,610.6L402.4,610.6z M1218.2,777.3c-67.9,0-122.3,54.7-122.3,122.3
		c0,67.6,54.4,122.8,122.3,122.8c67.6,0,122.8-55.2,122.8-122.8C1341,831.9,1285.9,777.3,1218.2,777.3z M1176.9,813.4
		c22.7,0,41.3,18.6,41.3,41.3c0,22.7-18.6,41.3-41.3,41.3c-22.7,0-41.3-18.6-41.3-41.3C1135.7,832,1154.2,813.4,1176.9,813.4z
		 M1722.9,1124c-130,0-248.7,42.2-339.5,112l346.8,346.8l-346.2,347.8c91.1,70.6,209.6,113,339,113c254.2,0,465.1-160.9,510.8-373.6
		c34.6,86.7,119.5,148.1,218.3,148.1c42.8,0,82.8-11.4,117.1-32c-70-40.4-117.1-115.9-117.1-202.8c0-86.7,47.4-162.4,117.1-202.8
		c-34.3-20.6-74.3-32-117.1-32c-98.8,0-183.7,61.4-218.3,148.1C2187.8,1284.7,1977,1124,1722.9,1124L1722.9,1124z M1329.2,1231.4
		c-7.7,0-15.3,2.8-21.2,8.8c-11.9,11.9-11.9,30.9,0,42.8l300.8,300.8l-292.6,292.6c-11.6,11.9-11.6,30.9,0,42.8
		c5.8,5.8,13.5,8.8,21.2,8.8c7.6,0,15.9-3,21.7-8.8l313.7-313.7c5.6-5.6,8.8-13.7,8.8-21.7s-3.2-15.3-8.8-21.2l-322-322
		C1344.9,1234.6,1336.9,1231.4,1329.2,1231.4L1329.2,1231.4z M1780.2,1231.4c43.1,0,77.9,34.9,77.9,77.9c0,43.1-34.9,77.9-77.9,77.9
		c-43.1,0-78.4-34.9-78.4-77.9C1701.7,1266.2,1737.1,1231.4,1780.2,1231.4L1780.2,1231.4z M1082.5,1271.6
		c-100.4,0-182.1,82-182.1,182.7c0,100.9,81.8,182.2,182.1,182.2c100.7,0,182.2-81.5,182.2-182.2
		C1264.7,1353.6,1182.9,1271.6,1082.5,1271.6z M1761.6,1271.6c-19.8,1.4-35.1,17.9-35.1,37.7c-0.2,20.9,16.5,38,37.4,38.2
		c0.1,0,0.2,0,0.3,0c20.9-0.1,37.7-17,37.7-37.9c0-0.1,0-0.2,0-0.3c-0.1-20.8-16.9-37.6-37.7-37.7
		C1763.3,1271.6,1762.4,1271.6,1761.6,1271.6L1761.6,1271.6z M1021.1,1326.3c34.1,0,61.4,27.1,61.4,60.9c0,33.8-27.6,61.4-61.4,61.4
		c-33.8,0-60.9-27.6-60.9-61.4C960.2,1353.4,987.3,1326.3,1021.1,1326.3L1021.1,1326.3z"/>
</g>
<text transform="matrix(1 0 0 1 -4.059835e-04 2325.9287)" font-family="'HelveticaNeue-Bold'" font-size="31.8885">Created by Hopkins</text>
<text transform="matrix(1 0 0 1 -4.059835e-04 2357.8191)" font-family="'HelveticaNeue-Bold'" font-size="31.8885">from the Noun Project</text>
</svg>
