<?xml version="1.0" encoding="utf-8"?>
<!-- Generator: Adobe Illustrator 18.1.1, SVG Export Plug-In . SVG Version: 6.00 Build 0)  -->
<svg version="1.1" id="Layer_1" xmlns="http://www.w3.org/2000/svg" xmlns:xlink="http://www.w3.org/1999/xlink" x="0px" y="0px"
	 viewBox="1184 1184 512 512" enable-background="new 1184 1184 512 512" xml:space="preserve">
<title>City Copy 4</title>
<desc>Created with Sketch.</desc>
<g>
	<g>
		<path d="M1373,1584c0-5.4-4.4-9.8-9.8-9.8h-49c-5.4,0-9.8,4.4-9.8,9.8c0,5.4,4.4,9.8,9.8,9.8h49
			C1368.6,1593.9,1373,1589.5,1373,1584"/>
		<path d="M1598.5,1584c0-5.4-4.4-9.8-9.8-9.8h-49c-5.4,0-9.8,4.4-9.8,9.8c0,5.4,4.4,9.8,9.8,9.8h49
			C1594.1,1593.9,1598.5,1589.5,1598.5,1584"/>
		<path d="M1657.4,1535h-9.8c-5.4,0-9.8,4.4-9.8,9.8c0,5.4,4.4,9.8,9.8,9.8h9.8c5.4,0,9.8-4.4,9.8-9.8
			C1667.2,1539.4,1662.8,1535,1657.4,1535"/>
		<path d="M1431.8,1535h-9.8c-5.4,0-9.8,4.4-9.8,9.8c0,5.4,4.4,9.8,9.8,9.8h9.8c5.4,0,9.8-4.4,9.8-9.8
			C1441.6,1539.4,1437.3,1535,1431.8,1535"/>
		<path d="M1216.1,1535h-9.8c-5.4,0-9.8,4.4-9.8,9.8c0,5.4,4.4,9.8,9.8,9.8h9.8c5.4,0,9.8-4.4,9.8-9.8
			C1225.9,1539.4,1221.5,1535,1216.1,1535"/>
		<path d="M1377.9,1608.6h-19.6c-5.4,0-9.8,4.4-9.8,9.8c0,5.4,4.4,9.8,9.8,9.8h19.6c5.4,0,9.8-4.4,9.8-9.8
			C1387.7,1612.9,1383.3,1608.6,1377.9,1608.6"/>
		<path d="M1603.5,1608.6h-19.6c-5.4,0-9.8,4.4-9.8,9.8c0,5.4,4.4,9.8,9.8,9.8h19.6c5.4,0,9.8-4.4,9.8-9.8
			C1613.2,1612.9,1608.9,1608.6,1603.5,1608.6"/>
		<path d="M1578.9,1384.3c5.7,8.7,12.3,17.1,19.6,24.7v23h-19.6V1384.3z M1539.8,1535l2.2-9.8h24.8l2.2,9.8H1539.8z M1510.3,1432.1
			v-24.5c0-0.6-0.1-1.3-0.2-1.9c7.3-6.5,14-13.9,19.8-22v48.4H1510.3z M1353.4,1383.7c5.8,8.2,12.5,15.5,19.8,22
			c-0.1,0.6-0.2,1.2-0.2,1.9v24.5h-19.6L1353.4,1383.7L1353.4,1383.7z M1314.3,1535l2.2-9.8h24.8l2.2,9.8H1314.3z M1284.7,1432.1
			v-23c7.3-7.6,13.9-15.9,19.6-24.5v47.4H1284.7z M1265.1,1432.1h-9c3.1-1.9,6.1-3.8,9-5.9V1432.1z M1324,1505.6h9.8v-205.9h-9.8
			V1505.6z M1419.5,1432.1h-26.9v-12C1401.1,1425.2,1410.2,1429.2,1419.5,1432.1L1419.5,1432.1z M1490.7,1420.1v12h-27
			C1473.1,1429.2,1482.1,1425.2,1490.7,1420.1L1490.7,1420.1z M1549.5,1505.6h9.8v-205.9h-9.8V1505.6z M1618.1,1426.3
			c2.8,2,5.7,3.9,8.6,5.7h-8.6V1426.3z M1687.4,1437.6c0-5.4-4.4-9.8-9.8-9.8c-40.8,0-78.6-39.1-94.9-77.7c-0.8-1.9-2.2-3.4-3.8-4.5
			v-55.8c0-5.4-4.4-9.7-9.8-9.7h-4.9v-29.4c0-5.4-4.4-9.8-9.8-9.8c-5.4,0-9.8,4.4-9.8,9.8v29.4h-4.9c-5.4,0-9.8,4.4-9.8,9.7v55.7
			c-1.3,1-2.4,2.3-3.1,4c-13.2,31.3-44.2,62.9-85.1,67.3c-41.2-4.4-72.1-36.2-85.3-67.7c-0.7-1.6-1.7-2.9-3-3.9v-55.3
			c0-5.4-4.4-9.7-9.8-9.7h-4.9v-29.4c0-5.4-4.4-9.8-9.8-9.8c-5.4,0-9.8,4.4-9.8,9.8v29.4h-4.9c-5.4,0-9.8,4.4-9.8,9.7v55.7
			c-1.3,1-2.4,2.3-3.1,4c-16.3,38.6-54.1,77.7-94.9,77.7c-5.4,0-9.8,4.4-9.8,9.8c0,0.9,0.1,1.7,0.3,2.4c-0.2,0.8-0.3,1.6-0.3,2.4
			c0,5.4,4.4,9.8,9.8,9.8h98v54.2c-2.2,0.6-4.1,2.3-4.6,4.5l-5.6,24.6h-19.2c-5.4,0-9.8,4.4-9.8,9.8c0,5.4,4.4,9.8,9.8,9.8h19.6
			h68.6h19.6c5.4,0,9.8-4.4,9.8-9.8c0-5.4-4.4-9.8-9.8-9.8h-19.2l-5.6-24.6c-0.5-2.2-2.4-4-4.6-4.5v-54.2h176.5v54.2
			c-2.2,0.6-4.1,2.3-4.6,4.5l-5.6,24.6h-19.2c-5.4,0-9.8,4.4-9.8,9.8c0,5.4,4.4,9.8,9.8,9.8h19.6h68.6h19.6c5.4,0,9.8-4.4,9.8-9.8
			c0-5.4-4.4-9.8-9.8-9.8h-19.2l-5.6-24.6c-0.5-2.2-2.4-4-4.6-4.5v-54.2h98c5.5,0,9.8-4.4,9.8-9.8c0-0.2,0-0.4-0.1-0.6
			C1687.2,1440.1,1687.4,1438.9,1687.4,1437.6L1687.4,1437.6z"/>
	</g>
</g>
<text transform="matrix(1 0 0 1 303.5142 3161.252)" font-family="'HelveticaNeue-Bold'" font-size="124.9157">Created by Nikita Tcherednikov</text>
<text transform="matrix(1 0 0 1 303.5142 3286.166)" font-family="'HelveticaNeue-Bold'" font-size="124.9157">from the Noun Project</text>
</svg>
