<?xml version="1.0" encoding="utf-8"?>
<!-- Generator: Adobe Illustrator 18.1.1, SVG Export Plug-In . SVG Version: 6.00 Build 0)  -->
<svg version="1.1" id="Layer_1" xmlns="http://www.w3.org/2000/svg" xmlns:xlink="http://www.w3.org/1999/xlink" x="0px" y="0px"
	 viewBox="1184 1184 512 512" enable-background="new 1184 1184 512 512" xml:space="preserve">
<path d="M1582.2,1263.4c-6.9,1.9-14.5,3.1-22,3.1c-32.1,0-65.4-19.5-97.4-38.3c-33.3-19.5-67.9-39.6-102.5-39.6
	c-8.2,0-16.3,1.3-24.5,3.8l-3.1,1.3v74.8v81.1v285.4c-28.3,1.3-50.3,13.8-50.3,29.6c0,16.3,23.9,29.6,54.7,29.6
	c30.8,0,54.7-13.2,54.7-29.6c0-15.7-22-28.3-50.3-29.6v-293.6c36.5-32.1,70.5-33.3,109.4-33.3h18.9c39.6,0,78-2.5,116.9-36.5
	l16.3-14.5L1582.2,1263.4z M1382.9,1664.4c0,9.4-18.9,20.1-45.3,20.1s-45.3-10.7-45.3-20.1c0-8.8,16.3-18.9,40.9-20.1v13.8
	c0,2.5,1.9,5,5,5s5-1.9,5-5v-13.8C1365.9,1645.6,1382.9,1655.6,1382.9,1664.4z M1469.6,1298.6h-18.9c-37.1,0-72.9,2.5-109.4,30.8
	v-61v-67.9c5.6-1.3,12-2.5,18.2-2.5c32.1,0,65.4,19.5,97.4,38.3c33.3,19.5,67.9,39.6,102.5,39.6c1.9,0,3.8,0,5,0
	C1533.8,1296.7,1502.3,1298.6,1469.6,1298.6z"/>
<text transform="matrix(1 0 0 1 379.631 3583.999)" font-family="'HelveticaNeue-Bold'" font-size="157.0909">Created by chiccabubble</text>
<text transform="matrix(1 0 0 1 379.631 3741.0889)" font-family="'HelveticaNeue-Bold'" font-size="157.0909">from the Noun Project</text>
</svg>
