<?xml version="1.0" encoding="utf-8"?>
<!-- Generator: Adobe Illustrator 18.1.1, SVG Export Plug-In . SVG Version: 6.00 Build 0)  -->
<svg version="1.1" id="Layer_1" xmlns="http://www.w3.org/2000/svg" xmlns:xlink="http://www.w3.org/1999/xlink" x="0px" y="0px"
	 viewBox="1184 1184 512 512" enable-background="new 1184 1184 512 512" xml:space="preserve">
<path d="M1573.5,1470.4c0-4.7-3.4-8.1-8.1-8.1c-1.7,0-3.4,0-5.1,0c-9.7,0-16.5,11-16.5,11c-0.4,1.3-1.7,2.5-3,4.7
	c-1.3-4.2-2.1-7.6-3-11c-4.2-14.8-10.6-28.4-19.5-41.1c-5.9-8.9-14.8-11.9-25-13.6c-17.8-3-35.6-3.4-53.8-3.4c-17.8,0-36,0-53.8,3.4
	c-9.7,1.7-18.6,5.1-25,13.6c-8.9,12.7-15.2,26.3-19.5,41.1c-0.8,3.4-1.7,6.8-3,11c-1.3-2.1-2.1-3.4-3-4.7c0,0-6.8-11-16.5-11
	c-1.7,0-3.4,0-5.1,0c-4.7,0-7.6,3.4-8.1,8.1c0,3.4,0,6.8,0,10.2c0,5.1,3.4,8.5,8.5,8.5c5.1,0,10.2,0,14.8,0c2.1,0,3.8,0,5.9,0
	c0,0.4,0.4,0.4,0.4,0.8c-0.4,0.4-1.3,0.4-1.7,1.3c-12.7,12.3-19.5,27.1-19.1,44.5c0,10.6,1.3,21.2,2.1,31.8c0.8,8.1,3,16.1,6.4,23.3
	c1.7,3,3.4,5.5,7.2,6.4c1.7,0.4,2.1,1.3,1.7,3c0,4.2,0,8.9,0,13.1c0,5.9,3.4,9.7,9.7,9.7c5.1,0,10.6,0,15.7,0
	c6.8,0,10.2-3.4,10.2-10.2c0-3.4,0-6.8,0-10.6c23.7,1.7,47.4,2.5,71.6,2.5c24.2,0,47.4-0.8,71.6-2.5c0,3.8,0,7.2,0,10.6
	c0,6.8,3.4,10.2,10.2,10.2c5.1,0,10.6,0,15.7,0c5.9,0,9.7-3.8,9.7-9.7c0-4.2,0-8.9,0-13.1c0-1.3,0-2.5,1.7-3c3.8-0.8,5.5-3,7.2-6.4
	c3.8-7.6,5.5-15.2,6.4-23.3c1.3-10.6,2.1-21.2,2.1-31.8c0.4-17.8-6.8-32.6-19.1-44.5c-0.4-0.4-1.3-0.8-1.7-1.3
	c0-0.4,0.4-0.4,0.4-0.8c2.1,0,3.8,0,5.9,0c5.1,0,10.2,0,14.8,0c5.1,0,8.5-3.4,8.5-8.5C1573.5,1477.2,1573.5,1473.8,1573.5,1470.4z
	 M1354,1480.5c3.8-15.7,9.7-30.9,18.2-44.9c0.4-0.8,0.8-1.3,1.7-1.7l0,0l0,0c0.4-0.4,1.3-0.8,2.1-1.3c5.1-2.1,21.2-7.2,64-7.2
	c42.8,0.4,58.5,5.1,64,7.2c0.8,0.4,1.7,0.4,2.1,1.3l0,0l0,0c0.4,0.4,1.3,1.3,1.7,1.7c8.5,14,14.4,29.2,18.2,44.9
	c0.4,1.3,0.4,2.1,0.4,3c-28.8-2.5-57.6-3.8-86.4-3.8s-57.6,1.3-86.4,3.8C1354,1483.1,1354,1481.8,1354,1480.5z M1358.6,1548.3
	c-10.6,0-18.6-8.5-18.6-18.6c0-10.2,8.5-18.6,18.6-18.6c10.2,0,18.6,8.5,18.6,18.6C1377.3,1539.9,1369.2,1548.3,1358.6,1548.3z
	 M1521.4,1548.3c-10.6,0-18.6-8.5-18.6-18.6c0-10.2,8.5-18.6,18.6-18.6c10.6,0,18.6,8.5,18.6,18.6
	C1540,1539.9,1531.5,1548.3,1521.4,1548.3z M1640,1632.6h-10.6c-4.2,0-7.6-3.4-7.6-7.6v-227.1c0-25-20.3-45.3-45.3-45.3h-272.9
	c-25,0-45.3,20.3-45.3,45.3V1625c0,4.2-3.4,7.6-7.6,7.6H1240c-4.2,0-7.6-3.4-7.6-7.6v-227.1c0-39.4,31.8-71.2,71.2-71.2h272.9
	c39.4,0,71.2,31.8,71.2,71.2V1625C1647.6,1629.3,1644.2,1632.6,1640,1632.6z"/>
<text transform="matrix(1 0 0 1 95.4565 3560.332)" font-family="'HelveticaNeue-Bold'" font-size="132.4984">Created by Gregor Cresnar</text>
<text transform="matrix(1 0 0 1 95.4565 3692.8291)" font-family="'HelveticaNeue-Bold'" font-size="132.4984">from the Noun Project</text>
</svg>
