<?xml version="1.0" encoding="utf-8"?>
<!-- Generator: Adobe Illustrator 18.1.1, SVG Export Plug-In . SVG Version: 6.00 Build 0)  -->
<svg version="1.1" id="Layer_1" xmlns="http://www.w3.org/2000/svg" xmlns:xlink="http://www.w3.org/1999/xlink" x="0px" y="0px"
	 viewBox="256 2720 512 512" enable-background="new 256 2720 512 512" xml:space="preserve">
<path d="M-928,1307.7c0,2.6,0.3,5.1,0.4,7.7V1300C-927.7,1302.5-928,1305.1-928,1307.7z"/>
<circle cx="411.8" cy="2905.8" r="17.5"/>
<path d="M604.8,2993c9.4-2.2,15.2-11.6,13-21c-2.2-9.4-11.6-15.2-21-13c-9.4,2.2-15.3,11.6-13,21
	C586,2989.4,595.4,2995.2,604.8,2993z"/>
<path d="M715,3120.7c-23.1,0-50.9-26.1-80.2-53.7c-3.2-3-6.5-6.1-9.7-9.1l-10-42.6c-2.4-10.1-12.5-16.4-22.6-14
	c-8.2,1.9-13.7,8.9-14.4,16.8c-29.3-21.4-62.2-37.3-101.1-37.3v-168l-112-63l-105,63v168v56v154h21v-28h70v28h21v-28h84v28h21v-154
	v-14c49.5,0,89.9,38.1,129,74.9c35.6,33.5,69.2,65.1,109,65.1h7v28h21v-28h21v-42H715z M351,3148.8h-70v-28h70L351,3148.8
	L351,3148.8z M351,3106.7h-70v-28h70L351,3106.7L351,3106.7z M351,3064.8h-70v-28h70L351,3064.8L351,3064.8z M456,2980.7h-21.6
	l-8.3-35.6c-2.4-10.1-12.5-16.4-22.6-14c-10.1,2.4-16.4,12.5-14,22.6l6.3,27H281v-154h175L456,2980.7L456,2980.7z"/>
</svg>
