<?xml version="1.0" encoding="utf-8"?>
<!-- Generator: Adobe Illustrator 18.1.1, SVG Export Plug-In . SVG Version: 6.00 Build 0)  -->
<svg version="1.1" id="Layer_1" xmlns="http://www.w3.org/2000/svg" xmlns:xlink="http://www.w3.org/1999/xlink" x="0px" y="0px"
	 viewBox="104 80 2656 2112" enable-background="new 104 80 2656 2112" xml:space="preserve">
<title>City Copy 4</title>
<desc>Created with Sketch.</desc>
<g>
	<g>
		<path d="M1117.4,1843.2c0-25.6-20.7-46.1-46.2-46.1H841.1c-25.6,0-46.2,20.6-46.2,46.1c0,25.6,20.7,46.1,46.2,46.1h230.1
			C1096.8,1889.3,1117.4,1868.6,1117.4,1843.2"/>
		<path d="M2177.3,1843.2c0-25.6-20.7-46.1-46.2-46.1h-230.1c-25.6,0-46.2,20.6-46.2,46.1c0,25.6,20.7,46.1,46.2,46.1h230.1
			C2156.6,1889.3,2177.3,1868.6,2177.3,1843.2"/>
		<path d="M2453.8,1612.8h-46.2c-25.3,0-46,20.6-46,46.1c0,25.6,20.6,46.1,46,46.1h46.2c25.3,0,46-20.6,46-46.1
			C2499.8,1633.3,2479.2,1612.8,2453.8,1612.8"/>
		<path d="M1394,1612.8h-46.2c-25.3,0-46,20.6-46,46.1c0,25.6,20.6,46.1,46,46.1h46.2c25.3,0,46-20.6,46-46.1
			C1440,1633.3,1419.4,1612.8,1394,1612.8"/>
		<path d="M380.2,1612.8H334c-25.3,0-46,20.6-46,46.1c0,25.6,20.6,46.1,46,46.1h46.2c25.3,0,46-20.6,46-46.1
			C426.2,1633.3,405.6,1612.8,380.2,1612.8"/>
		<path d="M1140.5,1958.4h-92.3c-25.6,0-46,20.6-46,46.1c0,25.6,20.6,46.1,46,46.1h92.3c25.6,0,46-20.6,46-46.1
			C1186.6,1978.9,1166,1958.4,1140.5,1958.4"/>
		<path d="M2200.4,1958.4h-92.3c-25.6,0-46,20.6-46,46.1c0,25.6,20.6,46.1,46,46.1h92.3c25.6,0,46-20.6,46-46.1
			C2246.4,1978.9,2225.8,1958.4,2200.4,1958.4"/>
		<path d="M2085.1,904.5c26.7,40.8,57.6,80.2,92.2,116.2V1129h-92.2V904.5z M1901.2,1612.8l10.5-46.1h116.4l10.5,46.1H1901.2z
			 M1762.6,1129v-115.2c0-3-0.3-6-0.9-8.8c34.3-30.6,65.6-65.2,93-103.5V1129H1762.6z M1025.3,901.5c27.4,38.3,58.8,73,93,103.6
			c-0.5,2.8-0.9,5.7-0.9,8.7V1129h-92.2V901.5z M841.4,1612.8l10.5-46.1h116.4l10.5,46.1H841.4z M702.7,1129v-108
			c34.5-35.6,65.4-74.5,92.2-114.9V1129H702.7z M610.6,1129h-42.5c14.5-8.7,28.7-17.9,42.5-27.9V1129z M887,1474.6h46.1V506.9H887
			V1474.6z M1336.1,1129h-126.5v-56.2C1249.6,1096.8,1292.1,1115.6,1336.1,1129L1336.1,1129z M1670.4,1072.6v56.3h-126.7
			C1587.7,1115.6,1630.3,1096.8,1670.4,1072.6L1670.4,1072.6z M1946.9,1474.6h46.1V506.9h-46.1V1474.6z M2269.4,1102
			c13.1,9.6,26.6,18.5,40.4,27h-40.4V1102z M2595,1155c0-25.4-20.6-46.1-46.1-46.1c-191.7,0-369.4-183.6-446-365
			c-3.8-9-10.2-16.2-17.9-21V460.6c0-25.4-20.6-45.8-46.1-45.8h-23V276.5c0-25.6-20.6-46.1-46.1-46.1c-25.6,0-46.1,20.6-46.1,46.1
			v138.3h-23c-25.6,0-46.1,20.5-46.1,45.8v261.6c-6.3,4.7-11.5,11-14.8,18.7c-62.1,147.2-207.6,295.4-400,316.2
			c-193.4-20.9-339-170.1-400.7-318.3c-3.1-7.4-8.1-13.5-13.9-18.2V460.6c0-25.4-20.6-45.8-46.1-45.8h-23V276.5
			c0-25.6-20.6-46.1-46.1-46.1c-25.6,0-46.1,20.6-46.1,46.1v138.3h-23c-25.6,0-46.1,20.5-46.1,45.8v261.6
			c-6.3,4.7-11.5,10.9-14.8,18.7c-76.5,181.4-254.3,365-446,365c-25.4,0-46.1,20.6-46.1,46.1c0,4,0.7,7.8,1.6,11.5
			c-0.9,3.7-1.6,7.5-1.6,11.5c0,25.6,20.7,46.1,46.2,46.1h460.7v254.7c-10.2,2.7-19.3,11-21.6,21.3l-26.4,115.7h-90.3
			c-25.4,0-46,20.6-46,46.1c0,25.6,20.6,46.1,46,46.1h92.3h322.5h92.3c25.4,0,46-20.6,46-46.1c0-25.6-20.6-46.1-46-46.1h-90.3
			l-26.4-115.7c-2.4-10.4-11.4-18.6-21.6-21.3v-254.6h829.4v254.7c-10.2,2.7-19.3,11-21.6,21.3l-26.4,115.7h-90.2
			c-25.4,0-46,20.6-46,46.1c0,25.6,20.6,46.1,46,46.1h92.3h322.5h92.3c25.4,0,46-20.6,46-46.1c0-25.6-20.6-46.1-46-46.1h-90.2
			l-26.5-115.7c-2.4-10.4-11.4-18.6-21.6-21.3v-254.6h460.7c25.7,0,46.2-20.6,46.2-46.1c0-1-0.2-2-0.3-3
			C2593.8,1166.8,2595,1161.1,2595,1155L2595,1155z"/>
	</g>
</g>
<text transform="matrix(1 0 0 1 287.9965 2649.5991)" font-family="'HelveticaNeue-Bold'" font-size="115.2">Created by Nikita Tcherednikov</text>
<text transform="matrix(1 0 0 1 287.9965 2764.7983)" font-family="'HelveticaNeue-Bold'" font-size="115.2">from the Noun Project</text>
</svg>
