<?xml version="1.0" encoding="utf-8"?>
<!-- Generator: Adobe Illustrator 18.1.1, SVG Export Plug-In . SVG Version: 6.00 Build 0)  -->
<svg version="1.1" id="Layer_1" xmlns="http://www.w3.org/2000/svg" xmlns:xlink="http://www.w3.org/1999/xlink" x="0px" y="0px"
	 viewBox="1184 1184 512 512" enable-background="new 1184 1184 512 512" xml:space="preserve">
<g>
	<path d="M1682.5,1546.1c-3.1-1.5-69.8-26.1-201.8-30.7l45.3-112c26.9,11.5,42.2,21.5,45.3,26.1c0,0.8,0,1.5,0.8,2.3v0.8
		c0,0.8,0.8,0.8,0.8,1.5c0,0,0,0.8,0.8,0.8c0.8,0.8,1.5,0.8,2.3,1.5c0.8,0,1.5,0.8,2.3,0.8l0,0h0.8h0.8c0,0,0.8,0,0.8-0.8
		c0,0,0.8,0,0.8-0.8l0.8-0.8c0,0,0.8,0,0.8-0.8c4.6-0.8,21.5,1.5,46,11.5s38.4,20,40.7,23.8c0,3.1,1.5,6.1,4.6,7.7
		c0.8,0,2.3,0.8,3.1,0.8c3.1,0,6.1-1.5,6.9-4.6c29.2-72.9-18.4-161.2-107.4-200.3l3.1-8.4c1.5-3.8,0-8.4-4.6-10
		c-3.8-1.5-8.4,0-10,4.6l-3.1,8.4c-43-15.3-87.5-18.4-127.4-6.9c-43,12.3-74.4,39.1-89,76c-1.5,3.8,0,8.4,4.6,10
		c3.1,1.5,6.1,0,8.4-2.3c4.6-0.8,21.5,1.5,46,11.5c24.6,10,38.4,20,40.7,23.8l0,0l0,0l0,0c0,0.8,0,1.5,0.8,2.3v0.8
		c0,0.8,0.8,0.8,0.8,1.5c0,0,0,0.8,0.8,0.8c0.8,0.8,1.5,0.8,2.3,1.5l0,0l0,0c0.8,0,1.5,0.8,2.3,0.8h0.8c0.8,0,1.5,0,2.3-0.8h0.8
		c0.8,0,1.5-0.8,2.3-1.5c5.4-0.8,23,3.1,50.7,13l-47.6,117.4c-8.4,0-16.9,0-25.3,0c-159.6,0-240.2,29.9-244.1,31.5
		c-3.8,1.5-6.1,6.1-4.6,10c1.5,3.1,3.8,4.6,6.9,4.6c0.8,0,1.5,0,3.1-0.8c0.8,0,82.1-29.9,237.9-29.9c6.1,0,13,0,19.2,0l-18.4,44.5
		v0.8c-6.1-1.5-13-3.1-20.7-3.1c-7.7,0-15.3,0.8-22.3,3.1c-3.8,1.5-6.1,5.4-5.4,9.2c1.5,3.8,5.4,6.1,9.2,5.4
		c5.4-1.5,11.5-2.3,17.7-2.3c15.3,0,26.9,5.4,30.7,10c1.5,1.5,3.8,3.1,6.1,3.1c1.5,0,3.8-0.8,4.6-1.5c3.1-3.1,3.8-7.7,0.8-10.7
		c-0.8-0.8-2.3-2.3-3.1-3.1c3.1-0.8,6.9-1.5,10.7-1.5c9.2,0,15.3,2.3,19.2,4.6c3.1,2.3,8.4,1.5,10.7-1.5c2.3-3.1,1.5-8.4-1.5-10.7
		c-6.9-4.6-16.9-7.7-27.6-7.7c-3.8,0-6.9,0.8-10.7,0.8l16.1-39.1c136.6,3.8,205.7,29.2,205.7,29.2c3.8,1.5,8.4-0.8,10-4.6
		C1687.9,1551.5,1686.3,1547.6,1682.5,1546.1z M1524.4,1385.7c-19.2-7.7-40.7-15.3-56.8-16.9c26.9-59.1,70.6-97.5,98.2-86.7
		c27.6,11.5,31.5,69.1,10,130.5C1564.3,1403.3,1543.6,1393.4,1524.4,1385.7z M1676.3,1452.5c-10.7-8.4-27.6-16.1-39.9-21.5
		c-13.8-5.4-27.6-10-38.4-11.5c-1.5,0-4.6-0.8-6.9-0.8c16.1-46.8,18.4-89.8,8.4-119C1657.9,1336.6,1690.2,1398,1676.3,1452.5z
		 M1412.3,1340.4c-13.8-5.4-27.6-10-38.4-11.5c-1.5,0-3.1-0.8-5.4-0.8c14.6-25.3,39.9-44.5,72.9-53.7c27.6-8.4,58.3-9.2,89-2.3
		c-27.6,13-56,46-76.7,91.3c-2.3-1.5-4.6-3.1-5.4-3.8C1439.2,1352.7,1426.2,1345.8,1412.3,1340.4z"/>
	<circle cx="1337.1" cy="1582.9" r="5.4"/>
	<circle cx="1324.1" cy="1598.3" r="5.4"/>
	<circle cx="1297.2" cy="1597.5" r="5.4"/>
	<circle cx="1257.3" cy="1608.3" r="5.4"/>
	<circle cx="1344" cy="1600.6" r="5.4"/>
	<circle cx="1531.3" cy="1641.3" r="5.4"/>
	<circle cx="1553.6" cy="1631.3" r="5.4"/>
	<circle cx="1581.2" cy="1646.6" r="5.4"/>
	<circle cx="1558.9" cy="1646.6" r="5.4"/>
	<circle cx="1523.6" cy="1623.6" r="5.4"/>
</g>
<text transform="matrix(1 0 0 1 299.5122 3277)" font-family="'HelveticaNeue-Bold'" font-size="173.494">Created by Evan Udelsman</text>
<text transform="matrix(1 0 0 1 299.5122 3450.4932)" font-family="'HelveticaNeue-Bold'" font-size="173.494">from the Noun Project</text>
</svg>
