<?xml version="1.0" encoding="utf-8"?>
<!-- Generator: Adobe Illustrator 18.1.1, SVG Export Plug-In . SVG Version: 6.00 Build 0)  -->
<svg version="1.1" id="Layer_1" xmlns="http://www.w3.org/2000/svg" xmlns:xlink="http://www.w3.org/1999/xlink" x="0px" y="0px"
	 viewBox="288 0 2304 2256" enable-background="new 288 0 2304 2256" xml:space="preserve">
<path d="M1002.2,622.1c0,25.3-20.7,46.1-46.1,46.1s-46.1-20.7-46.1-46.1s20.7-46.1,46.1-46.1S1002.2,596.7,1002.2,622.1z
	 M1163.5,576c-25.3,0-46.1,20.7-46.1,46.1s20.7,46.1,46.1,46.1s46.1-20.7,46.1-46.1S1188.9,576,1163.5,576z M1393.9,576
	c-25.3,0-46.1,20.7-46.1,46.1s20.7,46.1,46.1,46.1s46.1-20.7,46.1-46.1S1419.3,576,1393.9,576z M956.2,760.3
	c-25.3,0-46.1,20.7-46.1,46.1c0,25.3,20.7,46.1,46.1,46.1s46.1-20.7,46.1-46.1C1002.2,781.1,981.5,760.3,956.2,760.3z M1163.5,760.3
	c-25.3,0-46.1,20.7-46.1,46.1c0,25.3,20.7,46.1,46.1,46.1s46.1-20.7,46.1-46.1C1209.6,781.1,1188.9,760.3,1163.5,760.3z
	 M1393.9,760.3c-25.3,0-46.1,20.7-46.1,46.1c0,25.3,20.7,46.1,46.1,46.1s46.1-20.7,46.1-46.1C1440,781.1,1419.3,760.3,1393.9,760.3z
	 M956.2,944.6c-25.3,0-46.1,20.7-46.1,46.1c0,25.3,20.7,46.1,46.1,46.1s46.1-20.7,46.1-46.1C1002.2,965.4,981.5,944.6,956.2,944.6z
	 M1163.5,944.6c-25.3,0-46.1,20.7-46.1,46.1c0,25.3,20.7,46.1,46.1,46.1s46.1-20.7,46.1-46.1
	C1209.6,965.4,1188.9,944.6,1163.5,944.6z M1393.9,944.6c-25.3,0-46.1,20.7-46.1,46.1c0,25.3,20.7,46.1,46.1,46.1
	s46.1-20.7,46.1-46.1C1440,965.4,1419.3,944.6,1393.9,944.6z M956.2,1129c-25.3,0-46.1,20.7-46.1,46.1s20.7,46.1,46.1,46.1
	s46.1-20.7,46.1-46.1S981.5,1129,956.2,1129z M1163.5,1129c-25.3,0-46.1,20.7-46.1,46.1s20.7,46.1,46.1,46.1s46.1-20.7,46.1-46.1
	S1188.9,1129,1163.5,1129z M1393.9,1129c-25.3,0-46.1,20.7-46.1,46.1s20.7,46.1,46.1,46.1s46.1-20.7,46.1-46.1
	S1419.3,1129,1393.9,1129z M956.2,1313.3c-25.3,0-46.1,20.7-46.1,46.1c0,25.3,20.7,46.1,46.1,46.1s46.1-20.7,46.1-46.1
	C1002.2,1334,981.5,1313.3,956.2,1313.3z M1163.5,1313.3c-25.3,0-46.1,20.7-46.1,46.1c0,25.3,20.7,46.1,46.1,46.1
	s46.1-20.7,46.1-46.1C1209.6,1334,1188.9,1313.3,1163.5,1313.3z M1393.9,1313.3c-25.3,0-46.1,20.7-46.1,46.1
	c0,25.3,20.7,46.1,46.1,46.1s46.1-20.7,46.1-46.1C1440,1334,1419.3,1313.3,1393.9,1313.3z M956.2,1497.6
	c-25.3,0-46.1,20.7-46.1,46.1s20.7,46.1,46.1,46.1s46.1-20.7,46.1-46.1S981.5,1497.6,956.2,1497.6z M1163.5,1497.6
	c-25.3,0-46.1,20.7-46.1,46.1s20.7,46.1,46.1,46.1s46.1-20.7,46.1-46.1S1188.9,1497.6,1163.5,1497.6z M1393.9,1497.6
	c-25.3,0-46.1,20.7-46.1,46.1s20.7,46.1,46.1,46.1s46.1-20.7,46.1-46.1S1419.3,1497.6,1393.9,1497.6z M956.2,1681.9
	c-25.3,0-46.1,20.7-46.1,46.1c0,25.3,20.7,46.1,46.1,46.1s46.1-20.7,46.1-46.1C1002.2,1702.7,981.5,1681.9,956.2,1681.9z
	 M1163.5,1681.9c-25.3,0-46.1,20.7-46.1,46.1c0,25.3,20.7,46.1,46.1,46.1s46.1-20.7,46.1-46.1
	C1209.6,1702.7,1188.9,1681.9,1163.5,1681.9z M1393.9,1681.9c-25.3,0-46.1,20.7-46.1,46.1c0,25.3,20.7,46.1,46.1,46.1
	s46.1-20.7,46.1-46.1C1440,1702.7,1419.3,1681.9,1393.9,1681.9z M956.2,1866.2c-25.3,0-46.1,20.7-46.1,46.1s20.7,46.1,46.1,46.1
	s46.1-20.7,46.1-46.1S981.5,1866.2,956.2,1866.2z M1163.5,1866.2c-25.3,0-46.1,20.7-46.1,46.1s20.7,46.1,46.1,46.1
	s46.1-20.7,46.1-46.1S1188.9,1866.2,1163.5,1866.2z M1393.9,1866.2c-25.3,0-46.1,20.7-46.1,46.1s20.7,46.1,46.1,46.1
	s46.1-20.7,46.1-46.1S1419.3,1866.2,1393.9,1866.2z M1854.7,576c-25.3,0-46.1,20.7-46.1,46.1s20.7,46.1,46.1,46.1
	c25.3,0,46.1-20.7,46.1-46.1S1880.1,576,1854.7,576z M1854.7,760.3c-25.3,0-46.1,20.7-46.1,46.1c0,25.3,20.7,46.1,46.1,46.1
	c25.3,0,46.1-20.7,46.1-46.1C1900.8,781.1,1880.1,760.3,1854.7,760.3z M1854.7,944.6c-25.3,0-46.1,20.7-46.1,46.1
	c0,25.3,20.7,46.1,46.1,46.1c25.3,0,46.1-20.7,46.1-46.1C1900.8,965.4,1880.1,944.6,1854.7,944.6z M1854.7,1129
	c-25.3,0-46.1,20.7-46.1,46.1s20.7,46.1,46.1,46.1c25.3,0,46.1-20.7,46.1-46.1S1880.1,1129,1854.7,1129z M1854.7,1313.3
	c-25.3,0-46.1,20.7-46.1,46.1c0,25.3,20.7,46.1,46.1,46.1c25.3,0,46.1-20.7,46.1-46.1C1900.8,1334,1880.1,1313.3,1854.7,1313.3z
	 M1854.7,1497.6c-25.3,0-46.1,20.7-46.1,46.1s20.7,46.1,46.1,46.1c25.3,0,46.1-20.7,46.1-46.1S1880.1,1497.6,1854.7,1497.6z
	 M1854.7,1681.9c-25.3,0-46.1,20.7-46.1,46.1c0,25.3,20.7,46.1,46.1,46.1c25.3,0,46.1-20.7,46.1-46.1
	C1900.8,1702.7,1880.1,1681.9,1854.7,1681.9z M1854.7,1866.2c-25.3,0-46.1,20.7-46.1,46.1s20.7,46.1,46.1,46.1
	c25.3,0,46.1-20.7,46.1-46.1S1880.1,1866.2,1854.7,1866.2z M2476.8,2142.7c0,25.3-20.7,46.1-46.1,46.1H2069h-428.5h-27.6H739.6
	H449.3c-25.3,0-46.1-20.7-46.1-46.1c0-25.3,20.7-46.1,46.1-46.1H682V456.2c0-25.3,16.1-48.4,41.5-55.3l870.9-283.4
	c4.6-2.3,11.5-2.3,18.4-2.3c30,0,57.6,25.3,57.6,59.9v62.2l428.5,237.3c18.4,11.5,32.3,32.3,32.3,53v1569h299.5
	C2456.1,2096.6,2476.8,2117.4,2476.8,2142.7z M774.1,2096.6h804.1V288v-69.1L774.1,481.5V2096.6z M2039,2096.6V546L1670.4,341
	v1755.6H2039z"/>
<text transform="matrix(1 0 0 1 287.9965 2649.5991)" font-family="'HelveticaNeue-Bold'" font-size="115.2">Created by Mark Aventura</text>
<text transform="matrix(1 0 0 1 287.9965 2764.7983)" font-family="'HelveticaNeue-Bold'" font-size="115.2">from the Noun Project</text>
</svg>
