<?xml version="1.0" encoding="utf-8"?>
<!-- Generator: Adobe Illustrator 18.1.1, SVG Export Plug-In . SVG Version: 6.00 Build 0)  -->
<svg version="1.1" id="Layer_1" xmlns="http://www.w3.org/2000/svg" xmlns:xlink="http://www.w3.org/1999/xlink" x="0px" y="0px"
	 viewBox="448 248 2040 1832" enable-background="new 448 248 2040 1832" xml:space="preserve">
<path d="M2317.8,1599c-32.3,0-48.4-9.2-66.8-20.7c-20.7-11.5-43.8-25.3-89.9-25.3c-46.1,0-69.1,13.8-89.9,25.3
	c-18.4,11.5-34.6,20.7-66.8,20.7c-32.3,0-48.4-9.2-66.8-20.7c-20.7-11.5-43.8-25.3-89.9-25.3c-46.1,0-69.1,13.8-89.9,25.3
	c-18.4,11.5-34.6,20.7-66.8,20.7s-48.4-9.2-66.8-20.7c-20.7-11.5-43.8-25.3-89.9-25.3c-46.1,0-69.1,13.8-89.9,25.3
	c-18.4,11.5-34.6,20.7-66.8,20.7c-32.3,0-48.4-9.2-66.8-20.7c-20.7-11.5-43.8-25.3-89.9-25.3s-69.1,13.8-89.9,25.3
	c-18.4,11.5-34.6,20.7-66.8,20.7c-32.3,0-48.4-9.2-66.8-20.7c-20.7-11.5-43.8-25.3-89.9-25.3s-69.1,13.8-89.9,25.3
	c-18.4,11.5-34.6,20.7-66.8,20.7s-48.4-9.2-66.8-20.7c-27.6-11.5-50.7-25.3-96.8-25.3c-13.8,0-23,9.2-23,23c0,13.8,9.2,23,23,23
	c32.3,0,48.4,9.2,66.8,20.7c20.7,11.5,43.8,25.3,89.9,25.3c46.1,0,69.1-13.8,89.9-25.3c18.4-11.5,34.6-20.7,66.8-20.7
	c32.3,0,48.4,9.2,66.8,20.7c20.7,11.5,43.8,25.3,89.9,25.3c46.1,0,69.1-13.8,89.9-25.3c18.4-11.5,34.6-20.7,66.8-20.7
	c32.3,0,48.4,9.2,66.8,20.7c20.7,11.5,43.8,25.3,89.9,25.3s69.1-13.8,89.9-25.3c18.4-11.5,34.6-20.7,66.8-20.7
	c32.3,0,48.4,9.2,66.8,20.7c20.7,11.5,43.8,25.3,89.9,25.3c46.1,0,69.1-13.8,89.9-25.3c18.4-11.5,34.6-20.7,66.8-20.7
	c32.3,0,48.4,9.2,66.8,20.7c20.7,11.5,43.8,25.3,89.9,25.3s69.1-13.8,89.9-25.3c18.4-11.5,34.6-20.7,66.8-20.7s48.4,9.2,66.8,20.7
	c20.7,11.5,43.8,25.3,89.9,25.3c13.8,0,23-9.2,23-23S2329.3,1599,2317.8,1599z"/>
<path d="M2317.8,1758c-32.3,0-48.4-9.2-66.8-20.7c-20.7-11.5-43.8-25.3-89.9-25.3c-46.1,0-69.1,13.8-89.9,25.3
	c-18.4,11.5-34.6,20.7-66.8,20.7c-32.3,0-48.4-9.2-66.8-20.7c-20.7-11.5-43.8-25.3-89.9-25.3c-46.1,0-69.1,13.8-89.9,25.3
	c-18.4,11.5-34.6,20.7-66.8,20.7s-48.4-9.2-66.8-20.7c-20.7-11.5-43.8-25.3-89.9-25.3c-46.1,0-69.1,13.8-89.9,25.3
	c-18.4,11.5-34.6,20.7-66.8,20.7c-32.3,0-48.4-9.2-66.8-20.7c-20.7-11.5-43.8-25.3-89.9-25.3s-69.1,13.8-89.9,25.3
	c-18.4,11.5-34.6,20.7-66.8,20.7c-32.3,0-48.4-9.2-66.8-20.7c-20.7-11.5-43.8-25.3-89.9-25.3s-69.1,13.8-89.9,25.3
	c-18.4,11.5-34.6,20.7-66.8,20.7s-48.4-9.2-66.8-20.7c-27.6-11.5-50.7-25.3-96.8-25.3c-13.8,0-23,9.2-23,23s9.2,23,23,23
	c32.3,0,48.4,9.2,66.8,20.7c20.7,11.5,43.8,25.3,89.9,25.3c46.1,0,69.1-13.8,89.9-25.3c18.4-11.5,34.6-20.7,66.8-20.7
	c32.3,0,48.4,9.2,66.8,20.7c20.7,11.5,43.8,25.3,89.9,25.3c46.1,0,69.1-13.8,89.9-25.3c18.4-11.5,34.6-20.7,66.8-20.7
	c32.3,0,48.4,9.2,66.8,20.7c20.7,11.5,43.8,25.3,89.9,25.3s69.1-13.8,89.9-25.3c18.4-11.5,34.6-20.7,66.8-20.7
	c32.3,0,48.4,9.2,66.8,20.7c20.7,11.5,43.8,25.3,89.9,25.3c46.1,0,69.1-13.8,89.9-25.3c18.4-11.5,34.6-20.7,66.8-20.7
	c32.3,0,48.4,9.2,66.8,20.7c20.7,11.5,43.8,25.3,89.9,25.3s69.1-13.8,89.9-25.3c18.4-11.5,34.6-20.7,66.8-20.7s48.4,9.2,66.8,20.7
	c20.7,11.5,43.8,25.3,89.9,25.3c13.8,0,23-9.2,23-23S2329.3,1758,2317.8,1758z"/>
<path d="M2317.8,1914.6c-32.3,0-48.4-9.2-66.8-20.7c-20.7-11.5-43.8-25.3-89.9-25.3c-46.1,0-69.1,13.8-89.9,25.3
	c-18.4,11.5-34.6,20.7-66.8,20.7c-32.3,0-48.4-9.2-66.8-20.7c-20.7-11.5-43.8-25.3-89.9-25.3c-46.1,0-69.1,13.8-89.9,25.3
	c-18.4,11.5-34.6,20.7-66.8,20.7s-48.4-9.2-66.8-20.7c-20.7-11.5-43.8-25.3-89.9-25.3c-46.1,0-69.1,13.8-89.9,25.3
	c-18.4,11.5-34.6,20.7-66.8,20.7c-32.3,0-48.4-9.2-66.8-20.7c-20.7-11.5-43.8-25.3-89.9-25.3s-69.1,13.8-89.9,25.3
	c-18.4,11.5-34.6,20.7-66.8,20.7c-32.3,0-48.4-9.2-66.8-20.7c-20.7-11.5-43.8-25.3-89.9-25.3s-69.1,13.8-89.9,25.3
	c-18.4,11.5-34.6,20.7-66.8,20.7s-48.4-9.2-66.8-20.7c-27.6-11.5-50.7-25.3-96.8-25.3c-13.8,0-23,9.2-23,23c0,13.8,9.2,23,23,23
	c32.3,0,48.4,9.2,66.8,20.7c20.7,11.5,43.8,25.3,89.9,25.3c46.1,0,69.1-13.8,89.9-25.3c18.4-11.5,34.6-20.7,66.8-20.7
	c32.3,0,48.4,9.2,66.8,20.7c20.7,11.5,43.8,25.3,89.9,25.3c46.1,0,69.1-13.8,89.9-25.3c18.4-11.5,34.6-20.7,66.8-20.7
	c32.3,0,48.4,9.2,66.8,20.7c20.7,11.5,43.8,25.3,89.9,25.3s69.1-13.8,89.9-25.3c18.4-11.5,34.6-20.7,66.8-20.7
	c32.3,0,48.4,9.2,66.8,20.7c20.7,11.5,43.8,25.3,89.9,25.3c46.1,0,69.1-13.8,89.9-25.3c18.4-11.5,34.6-20.7,66.8-20.7
	c32.3,0,48.4,9.2,66.8,20.7c20.7,11.5,43.8,25.3,89.9,25.3s69.1-13.8,89.9-25.3c18.4-11.5,34.6-20.7,66.8-20.7s48.4,9.2,66.8,20.7
	c20.7,11.5,43.8,25.3,89.9,25.3c13.8,0,23-9.2,23-23S2329.3,1914.6,2317.8,1914.6z"/>
<path d="M762.6,1170.4v237.3H587.5c-13.8,0-23,9.2-23,23s9.2,23,23,23h1730.3c13.8,0,23-9.2,23-23s-9.2-23-23-23h-198.1v-237.3
	c122.1-16.1,216.6-161.3,216.6-338.7c0-188.9-108.3-341-239.6-341s-241.9,152.1-241.9,341c0,177.4,96.8,322.6,216.6,338.7v237.3
	h-124.4v-124.4c0-13.8-9.2-23-23-23h-237.3v-50.7c0-39.2,27.6-71.4,62.2-71.4c34.6,0,62.2,32.3,62.2,71.4c0,13.8,9.2,23,23,23
	s23-9.2,23-23c0-64.5-48.4-117.5-108.3-117.5c-23,0-43.8,9.2-62.2,20.7v-85.2c0-30,20.7-53,48.4-53s48.4,25.3,48.4,53
	c0,13.8,9.2,23,23,23s23-9.2,23-23c0-55.3-41.5-99.1-94.5-99.1c-18.4,0-32.3,4.6-48.4,13.8v-62.2c0-18.4,13.8-34.6,30-34.6
	s30,16.1,30,34.6c0,13.8,9.2,23,23,23s23-9.2,23-23c0-43.8-34.6-80.6-76-80.6c-20.7,0-39.2,9.2-53,23c-13.8-13.8-32.3-23-53-23
	c-41.5,0-76,36.9-76,80.6c0,13.8,9.2,23,23,23s23-9.2,23-23c0-18.4,13.8-34.6,30-34.6c16.1,0,30,16.1,30,34.6v62.2
	c-13.8-9.2-30-13.8-48.4-13.8c-50.7,0-94.5,46.1-94.5,99.1c0,13.8,9.2,23,23,23s23-9.2,23-23c0-30,20.7-53,48.4-53
	c27.6,0,48.4,25.3,48.4,53v85.2c-16.1-13.8-39.2-20.7-62.2-20.7c-59.9,0-108.3,53-108.3,117.5c0,13.8,9.2,23,23,23s23-9.2,23-23
	c0-39.2,27.6-71.4,62.2-71.4c34.6,0,62.2,32.3,62.2,71.4v50.7h-239.6c-13.8,0-23,9.2-23,23v124.4H1258v-170.5
	c92.2-18.4,161.3-147.5,161.3-308.7c0-175.1-80.6-311-184.3-311c-103.7,0-184.3,135.9-184.3,311c0,161.3,69.1,290.3,161.3,308.7
	v170.5H808.7v-237.3c122.1-18.4,216.6-191.2,216.6-407.8c0-230.4-106-410.1-239.6-410.1S546,532.2,546,762.6
	C543.7,979.2,638.2,1152,762.6,1170.4z M1900.8,831.7c0-163.6,87.6-294.9,193.5-294.9c106,0,193.5,131.3,193.5,294.9
	c0,149.8-76,274.2-170.5,292.6V891.6l99.1-112.9c9.2-9.2,6.9-23-2.3-32.3c-9.2-9.2-25.3-6.9-32.3,2.3l-64.5,73.7V645.1
	c0-13.8-9.2-23-23-23s-23,9.2-23,23v318c-20.7-25.3-48.4-59.9-73.7-92.2c-6.9-9.2-23-11.5-32.3-4.6s-11.5,23-4.6,32.3
	c64.5,85.2,94.5,117.5,110.6,131.3v94.5C1974.5,1105.9,1900.8,981.5,1900.8,831.7z M1423.9,1306.4h476.9v99.1h-476.9V1306.4z
	 M1096.7,930.8c0-142.8,62.2-265,138.2-265s138.2,122.1,138.2,265c0,129-50.7,237.3-115.2,260.4v-161.3l71.4-82.9
	c9.2-9.2,6.9-23-2.3-32.3c-9.2-9.2-25.3-6.9-32.3,2.3l-36.9,41.5V843.3c0-13.8-9.2-23-23-23s-23,9.2-23,23v216.6
	c-13.8-16.1-30-36.9-43.8-55.3c-6.9-9.2-23-11.5-32.3-4.6s-11.5,23-4.6,32.3c46.1,59.9,69.1,85.2,80.6,96.8v59.9
	C1147.4,1168.1,1096.7,1057.5,1096.7,930.8z M785.7,396.3c106,0,193.5,165.9,193.5,364c0,182-76,338.7-170.5,361.7V891.6l99.1-112.9
	c9.2-9.2,6.9-23-2.3-32.3c-9.2-9.2-25.3-6.9-32.3,2.3l-64.5,73.7V645.1c0-13.8-9.2-23-23-23c-13.8,0-23,9.2-23,23v318
	c-20.7-25.3-48.4-59.9-73.7-92.2c-6.9-9.2-23-11.5-32.3-4.6s-11.5,23-4.6,32.3c64.5,85.2,94.5,117.5,110.6,131.3v94.5
	c-94.5-23-170.5-179.7-170.5-361.7C589.8,564.5,679.7,396.3,785.7,396.3z"/>
<text transform="matrix(1 0 0 1 287.9965 2649.5991)" font-family="'HelveticaNeue-Bold'" font-size="115.2">Created by Made by Made</text>
<text transform="matrix(1 0 0 1 287.9965 2764.7983)" font-family="'HelveticaNeue-Bold'" font-size="115.2">from the Noun Project</text>
</svg>
