<?xml version="1.0" encoding="utf-8"?>
<!-- Generator: Adobe Illustrator 18.1.1, SVG Export Plug-In . SVG Version: 6.00 Build 0)  -->
<svg version="1.1" id="Layer_1" xmlns="http://www.w3.org/2000/svg" xmlns:xlink="http://www.w3.org/1999/xlink" x="0px" y="0px"
	 viewBox="471 80 1880 2112" enable-background="new 471 80 1880 2112" xml:space="preserve">
<path d="M2156.5,488.4c-25.3,6.9-53,11.5-80.6,11.5c-117.5,0-239.6-71.4-357.1-140.5C1596.7,288,1470,214.3,1343.2,214.3
	c-30,0-59.9,4.6-89.9,13.8l-11.5,4.6v274.2v297.2v1046c-103.7,4.6-184.3,50.7-184.3,108.3c0,59.9,87.6,108.3,200.4,108.3
	s200.4-48.4,200.4-108.3c0-57.6-80.6-103.7-184.3-108.3v-1076C1407.7,656.6,1532.2,652,1675,652h69.1c145.2,0,285.7-9.2,428.5-133.6
	l59.9-53L2156.5,488.4z M1426.2,1958.4c0,34.6-69.1,73.7-165.9,73.7c-96.8,0-165.9-39.2-165.9-73.7c0-32.3,59.9-69.1,149.8-73.7
	v50.7c0,9.2,6.9,18.4,18.4,18.4s18.4-6.9,18.4-18.4v-50.7C1364,1889.3,1426.2,1926.1,1426.2,1958.4z M1744.1,617.5H1675
	c-135.9,0-267.3,9.2-400.9,112.9V506.9V258c20.7-4.6,43.8-9.2,66.8-9.2c117.5,0,239.6,71.4,357.1,140.5
	c122.1,71.4,248.8,145.2,375.6,145.2c6.9,0,13.8,0,18.4,0C1979.1,610.6,1863.9,617.5,1744.1,617.5z"/>
<text transform="matrix(1 0 0 1 287.9965 2649.5991)" font-family="'HelveticaNeue-Bold'" font-size="115.2">Created by chiccabubble</text>
<text transform="matrix(1 0 0 1 287.9965 2764.7983)" font-family="'HelveticaNeue-Bold'" font-size="115.2">from the Noun Project</text>
</svg>
