<?xml version="1.0" encoding="utf-8"?>
<!-- Generator: Adobe Illustrator 18.1.1, SVG Export Plug-In . SVG Version: 6.00 Build 0)  -->
<svg version="1.1" id="Layer_1" xmlns="http://www.w3.org/2000/svg" xmlns:xlink="http://www.w3.org/1999/xlink" x="0px" y="0px"
	 viewBox="0 376 2504 1928" enable-background="new 0 376 2504 1928" xml:space="preserve">
<path d="M1960.8,1308.3c0-25.3-18.4-43.8-43.8-43.8c-9.2,0-18.4,0-27.6,0c-53,0-89.9,59.9-89.9,59.9c-2.3,6.9-9.2,13.8-16.1,25.3
	c-6.9-23-11.5-41.5-16.1-59.9c-23-80.6-57.6-154.4-106-223.5c-32.3-48.4-80.6-64.5-135.9-73.7c-96.8-16.1-193.5-18.4-292.6-18.4
	c-96.8,0-195.8,0-292.6,18.4c-53,9.2-101.4,27.6-135.9,73.7c-48.4,69.1-82.9,142.8-106,223.5c-4.6,18.4-9.2,36.9-16.1,59.9
	c-6.9-11.5-11.5-18.4-16.1-25.3c0,0-36.9-59.9-89.9-59.9c-9.2,0-18.4,0-27.6,0c-25.3,0-41.5,18.4-43.8,43.8c0,18.4,0,36.9,0,55.3
	c0,27.6,18.4,46.1,46.1,46.1c27.6,0,55.3,0,80.6,0c11.5,0,20.7,0,32.3,0c0,2.3,2.3,2.3,2.3,4.6c-2.3,2.3-6.9,2.3-9.2,6.9
	c-69.1,66.8-106,147.5-103.7,241.9c0,57.6,6.9,115.2,11.5,172.8c4.6,43.8,16.1,87.6,34.6,126.7c9.2,16.1,18.4,30,39.2,34.6
	c9.2,2.3,11.5,6.9,9.2,16.1c0,23,0,48.4,0,71.4c0,32.3,18.4,53,53,53c27.6,0,57.6,0,85.2,0c36.9,0,55.3-18.4,55.3-55.3
	c0-18.4,0-36.9,0-57.6c129,9.2,258,13.8,389.4,13.8s258-4.6,389.4-13.8c0,20.7,0,39.2,0,57.6c0,36.9,18.4,55.3,55.3,55.3
	c27.6,0,57.6,0,85.2,0c32.3,0,53-20.7,53-53c0-23,0-48.4,0-71.4c0-6.9,0-13.8,9.2-16.1c20.7-4.6,30-16.1,39.2-34.6
	c20.7-41.5,30-82.9,34.6-126.7c6.9-57.6,11.5-115.2,11.5-172.8c2.3-96.8-36.9-177.4-103.7-241.9c-2.3-2.3-6.9-4.6-9.2-6.9
	c0-2.3,2.3-2.3,2.3-4.6c11.5,0,20.7,0,32.3,0c27.6,0,55.3,0,80.6,0c27.6,0,46.1-18.4,46.1-46.1
	C1960.8,1345.2,1960.8,1326.7,1960.8,1308.3z M767.3,1363.6c20.7-85.2,53-168.2,99.1-244.2c2.3-4.6,4.6-6.9,9.2-9.2l0,0l0,0
	c2.3-2.3,6.9-4.6,11.5-6.9c27.6-11.5,115.2-39.2,347.9-39.2c232.7,2.3,318,27.6,347.9,39.2c4.6,2.3,9.2,2.3,11.5,6.9l0,0l0,0
	c2.3,2.3,6.9,6.9,9.2,9.2c46.1,76,78.3,159,99.1,244.2c2.3,6.9,2.3,11.5,2.3,16.1c-156.7-13.8-313.3-20.7-470-20.7
	c-156.7,0-313.3,6.9-470,20.7C767.3,1377.4,767.3,1370.5,767.3,1363.6z M792.6,1732.2c-57.6,0-101.4-46.1-101.4-101.4
	c0-55.3,46.1-101.4,101.4-101.4c55.3,0,101.4,46.1,101.4,101.4C894,1686.2,850.2,1732.2,792.6,1732.2z M1677.4,1732.2
	c-57.6,0-101.4-46.1-101.4-101.4c0-55.3,46.1-101.4,101.4-101.4c57.6,0,101.4,46.1,101.4,101.4
	C1778.7,1686.2,1732.7,1732.2,1677.4,1732.2z M2322.5,2190.7h-57.6c-23,0-41.5-18.4-41.5-41.5V914.3
	c0-135.9-110.6-246.5-246.5-246.5H493.1c-135.9,0-246.5,110.6-246.5,246.5v1234.9c0,23-18.4,41.5-41.5,41.5h-57.6
	c-23,0-41.5-18.4-41.5-41.5V914.3c0-214.3,172.8-387.1,387.1-387.1h1483.8c214.3,0,387.1,172.8,387.1,387.1v1234.9
	C2364,2172.3,2345.5,2190.7,2322.5,2190.7z"/>
<text transform="matrix(1 0 0 1 82.994 2856.5991)" font-family="'HelveticaNeue-Bold'" font-size="115.2">Created by Gregor Cresnar</text>
<text transform="matrix(1 0 0 1 82.994 2971.7983)" font-family="'HelveticaNeue-Bold'" font-size="115.2">from the Noun Project</text>
</svg>
