<?xml version="1.0" encoding="utf-8"?>
<!-- Generator: Adobe Illustrator 18.1.1, SVG Export Plug-In . SVG Version: 6.00 Build 0)  -->
<svg version="1.1" id="Layer_1" xmlns="http://www.w3.org/2000/svg" xmlns:xlink="http://www.w3.org/1999/xlink" x="0px" y="0px"
	 viewBox="1184 1184 512 512" enable-background="new 1184 1184 512 512" xml:space="preserve">
<path d="M1230.4,1649.6c17.2,0,25,4.9,35,11.1c11.3,7.1,24.1,15.1,48.8,15.1s37.5-8,48.8-15.1c9.9-6.2,17.8-11.1,35-11.1
	c17.2,0,25,4.9,35,11.1c11.3,7.1,24.2,15.1,48.9,15.1c24.7,0,37.5-8,48.9-15.1c2.8-1.8,5.5-3.4,8.3-4.9c6.9-3.7,14.4-6.2,26.7-6.2
	c16.1,0,24,4.3,33.1,9.9c0.6,0.4,1.3,0.8,1.9,1.2c11.3,7.1,24.2,15.1,48.9,15.1c7.2,0,13.1-5.9,13.1-13.1c0-7.2-5.9-13.1-13.1-13.1
	c-17.2,0-25.1-4.9-35-11.1c-11.3-7.1-24.2-15.1-48.9-15.1s-37.5,8-48.9,15.1c-9.9,6.2-17.8,11.1-35,11.1s-25-4.9-35-11.1
	c-11.3-7.1-24.2-15.1-48.8-15.1c-24.7,0-37.5,8-48.8,15.1c-2.8,1.8-5.5,3.4-8.3,4.9c-6.9,3.7-14.4,6.2-26.7,6.2
	c-16.1,0-24-4.3-33-9.9c-0.6-0.4-1.3-0.8-1.9-1.2c-11.3-7.1-24.1-15.1-48.8-15.1c-7.2,0-13.1,5.9-13.1,13.1
	C1217.3,1643.7,1223.2,1649.6,1230.4,1649.6z"/>
<path d="M1398,1544.8c-24.7,0-37.5,8-48.8,15.1c-2.8,1.8-5.5,3.4-8.3,4.9c-6.9,3.7-14.4,6.2-26.7,6.2c-16.1,0-24-4.3-33-9.9
	c-0.6-0.4-1.3-0.8-1.9-1.2c-11.3-7.1-24.1-15.1-48.8-15.1c-7.2,0-13.1,5.9-13.1,13.1c0,7.2,5.9,13.1,13.1,13.1
	c17.2,0,25,4.9,35,11.1c11.3,7.1,24.1,15.1,48.8,15.1s37.5-8,48.8-15.1c9.9-6.2,17.8-11.1,35-11.1s25,4.9,35,11.1
	c11.3,7.1,24.2,15.1,48.9,15.1s37.5-8,48.9-15.1c2.8-1.8,5.5-3.4,8.3-4.9c6.9-3.7,14.4-6.2,26.7-6.2c16.1,0,24,4.3,33.1,9.9
	c0.6,0.4,1.3,0.8,1.9,1.2c11.3,7.1,24.2,15.1,48.9,15.1c7.2,0,13.1-5.9,13.1-13.1c0-7.2-5.9-13.1-13.1-13.1
	c-17.2,0-25.1-4.9-35-11.1c-5.1-3.2-10.7-6.6-17.4-9.3v-162.9h52.4c7.2,0,13.1-5.9,13.1-13.1c0-7.2-5.9-13.1-13.1-13.1h-52.4v-59.3
	c0-33.2-19.8-72.5-45.1-89.5c-18.8-12.6-33-8.4-39.7-4.8c-12.7,6.8-19.9,22-19.9,41.8v72.4c0,7.2,5.9,13.1,13.1,13.1
	c7.2,0,13.1-5.9,13.1-13.1v-72.3c0-11.4,3.3-17.2,6.1-18.7c2.7-1.4,7.5-0.1,12.8,3.4c18.1,12.1,33.5,43.2,33.5,67.7v59.3h-131v-59.3
	c0-33.2-19.8-72.5-45.1-89.5c-18.8-12.6-33-8.4-39.7-4.8c-12.7,6.8-19.9,22-19.9,41.8v72.4c0,7.2,5.9,13.1,13.1,13.1
	c7.2,0,13.1-5.9,13.1-13.1v-72.3c0-11.4,3.3-17.2,6.1-18.7c2.7-1.4,7.5-0.1,12.8,3.4c18.1,12.1,33.5,43.2,33.5,67.7v59.3h-183.4
	c-7.2,0-13.1,5.9-13.1,13.1c0,7.2,5.9,13.1,13.1,13.1h183.4v158.5C1409.1,1545.3,1404,1544.8,1398,1544.8z M1440,1387.6h131v39.3
	h-131V1387.6z M1440,1453.1h131v39.3h-131V1453.1z M1440,1518.6h131v26.4c-1.7-0.1-3.4-0.2-5.3-0.2c-24.7,0-37.5,8-48.9,15.1
	c-9.9,6.2-17.8,11.1-35,11.1s-25-4.9-35-11.1c-2.2-1.4-4.5-2.8-6.9-4.2V1518.6L1440,1518.6z"/>
<text transform="matrix(1 0 0 1 337.707 3200.8584)" font-family="'HelveticaNeue-Bold'" font-size="139.1678">Created by Arthur Shlain</text>
<text transform="matrix(1 0 0 1 337.707 3340.0254)" font-family="'HelveticaNeue-Bold'" font-size="139.1678">from the Noun Project</text>
</svg>
